<ttFont>
          <CharString index="0">
            630 24 callgsubr
            -64 callsubr
            -277 -79 vlineto
            -28 callsubr
            -81 callsubr
            -18 -23 -37 -4 -32 hhcurveto
            -81 -80 32 121 hvcurveto
            346 vlineto
            25 4 10 25 3 -83 callgsubr
            -4 4 -9 -25 vvcurveto
            -362 vlineto
            -155 88 -87 169 131 147 65 177 vhcurveto
            return
          </CharString>
          <CharString index="1">
            rmoveto
            215 -84 155 -224 -257 -98 -180 -190 -215 84 -155 224 257 98 180 190 vhcurveto
            -344 266 rmoveto
            135 72 -98 -162 -86 -20 -115 -37 -36 hvcurveto
            -27 -28 -42 -8 -55 hhcurveto
            -135 -72 98 162 86 19 116 38 35 hvcurveto
            26 28 42 9 55 hhcurveto
            return
          </CharString>
          <CharString index="2">
            529 242 rmoveto
            147 -65 106 -167 -190 -73 -136 -117 -146 65 -106 166 191 73 136 116 vhcurveto
            -256 164 rmoveto
            82 46 -61 -98 -50 -10 -71 -25 -23 hvcurveto
            -15 -15 -26 -9 -36 hhcurveto
            -82 -45 60 99 50 10 71 24 23 hvcurveto
            15 15 27 9 35 hhcurveto
            return
          </CharString>
          <CharString index="3">
            rmoveto
            39 -22 34 -57 -44 -29 -16 -47 -34 21 -30 43 3 5 1 2 3 vhcurveto
            -22 -33 -30 -32 -19 vhcurveto
            33 -34 rlineto
            52 23 57 60 73 vvcurveto
            endchar
          </CharString>
          <CharString index="4">
            9 20 29 7 26 hhcurveto
            50 37 -17 -46 hvcurveto
            -58 vlineto
            -139 -18 rlineto
            -99 -13 -51 -56 -80 vvcurveto
            -79 45 -55 98 69 56 42 27 27 vhcurveto
            return
          </CharString>
          <CharString index="5">
            rmoveto
            -33 -20 -37 -31 -45 hhcurveto
            -45 -37 31 33 -20 hvcurveto
            -64 -19 rlineto
            -71 23 54 -60 89 hhcurveto
            86 53 60 71 22 hvcurveto
            endchar
          </CharString>
          <CharString index="6">
            7 -65 rlineto
            84 hlineto
            7 198 rlineto
            -527 -76 hlineto
            48 -6 rlineto
            25 -3 4 -12 -25 vvcurveto
            -471 vlineto
            -25 -4 -8 16 callsubr
            return
          </CharString>
          <CharString index="7">
            18 -2 4 -8 -18 vvcurveto
            return
          </CharString>
          <CharString index="8">
            rmoveto
            49 -37 51 -69 -74 -41 -54 -49 -49 37 -51 69 74 41 54 49 vhcurveto
            -70 2 rmoveto
            -27 -13 -16 -27 -22 -19 13 22 27 13 16 27 22 19 -13 -22 vhcurveto
            return
          </CharString>
          <CharString index="9">
            -11 11 22 -22 26 hhcurveto
            12 12 3 11 12 hvcurveto
            128 112 rlineto
            endchar
          </CharString>
          <CharString index="10">
            -43 -39 35 -56 hhcurveto
            -43 -37 -33 -36 -24 hvcurveto
            24 -60 rlineto
            12 18 27 15 28 hhcurveto
            endchar
          </CharString>
          <CharString index="11">
            130 97 79 110 40 -11 37 -18 27 hvcurveto
            18 3 29 12 15 12 rrcurveto
            -159 -122 rmoveto
            -33 -7 -43 -11 -13 vhcurveto
            -17 -12 -25 -11 -33 hhcurveto
            -66 -28 45 58 37 3 30 11 14 hvcurveto
            17 12 25 11 33 hhcurveto
            69 29 -38 -57 hvcurveto
            return
          </CharString>
          <CharString index="12">
            -4 -8 -23 -4 -15 hhcurveto
            -25 -27 15 43 -26 hvcurveto
            -86 141 -14 23 -20 11 -19 3 rlinecurve
            53 9 107 43 158 vvcurveto
            138 -95 42 -144 vhcurveto
            -279 -79 hlineto
            -28 callsubr
            10 callsubr
            -468 vlineto
            -25 -4 -10 -25 -3 vhcurveto
            13 callsubr
            -79 290 80 vlineto
            -56 8 rlineto
            -25 3 -5 10 25 vvcurveto
            return
          </CharString>
          <CharString index="13">
            -54 37 -50 68 49 43 24 6 15 vhcurveto
            -17 58 rlineto
            -4 -14 -25 -9 -27 hhcurveto
            -25 -13 19 19 26 30 27 18 14 hvcurveto
            return
          </CharString>
          <CharString index="14">
            143 rmoveto
            -11 -4 -50 -48 -56 hhcurveto
            -49 -24 30 54 hvcurveto
            317 -53 callsubr
            return
          </CharString>
          <CharString index="15">
            rmoveto
            -22 -82 -16 0 -98 hhcurveto
            -40 hlineto
            -170 -61 -101 -87 -79 43 -57 68 -32 hvcurveto
            -52 -78 rlineto
            -57 28 -25 48 -9 vhcurveto
            54 -10 51 -6 54 -6 rrcurveto
            39 -4 26 -10 -27 vvcurveto
            -57 -58 -8 -67 -48 -59 13 15 -30 vhcurveto
            return
          </CharString>
          <CharString index="16">
            -90 callsubr
            -120 103 rmoveto
            -78 vlineto
            return
          </CharString>
          <CharString index="17">
            8 -59 rlineto
            179 -2 callgsubr
            -18 2 -4 8 18 vvcurveto
            return
          </CharString>
          <CharString index="18">
            -17 -13 -56 -37 -41 hhcurveto
            -35 -21 18 32 37 21 21 35 6 hvcurveto
            return
          </CharString>
          <CharString index="19">
            rmoveto
            -104 -146 59 -48 99 118 99 -118 59 48 -103 146 rlineto
            endchar
          </CharString>
          <CharString index="20">
            -65 callgsubr
            -71 callgsubr
            return
          </CharString>
          <CharString index="21">
            vlineto
            -18 -4 -8 -18 -2 vhcurveto
            return
          </CharString>
          <CharString index="22">
            252 620 rmoveto
            60 hlineto
            69 48 -24 -66 -57 -6 -30 -24 -20 hvcurveto
            -13 -16 -33 -3 -29 hhcurveto
            -69 hlineto
            -100 vmoveto
            28 hlineto
            21 12 -18 -17 11 hvcurveto
            119 -198 rlineto
            -45 27 39 -39 56 hhcurveto
            51 32 16 6 11 hvcurveto
            10 90 rlineto
            return
          </CharString>
          <CharString index="23">
            rmoveto
            118 126 -59 48 -114 -98 -114 98 -59 -48 119 -126 rlineto
            endchar
          </CharString>
          <CharString index="24">
            21 -105 rlineto
            97 hlineto
            16 173 rlineto
            53 -101 -68 4 -65 -29 callsubr
            97 -132 218 122 116 52 9 27 hvcurveto
            return
          </CharString>
          <CharString index="25">
            6 callsubr
            -268 -86 callsubr
            hintmask 11110000
            -77 callsubr
            return
          </CharString>
          <CharString index="26">
            10 callsubr
            -338 vlineto
            -78 -9 -42 -23 -19 vhcurveto
            return
          </CharString>
          <CharString index="27">
            213 -61 rmoveto
            29 64 rlineto
            -8 31 35 -5 39 hhcurveto
            257 98 180 190 150 -41 121 -102 59 hvcurveto
            26 56 -85 41 -30 -64 rlineto
            4 -23 -26 3 -27 hhcurveto
            -257 -98 -180 -190 -138 34 -114 85 -63 hvcurveto
            -30 -65 rlineto
            437 386 rmoveto
            -86 -20 -115 -37 -36 vhcurveto
            -27 -28 -42 -8 -55 hhcurveto
            -34 -31 6 12 -26 hvcurveto
            211 456 rlineto
            41 -45 21 -69 -88 vvcurveto
            -207 260 rmoveto
            23 21 -3 -6 20 hvcurveto
            -203 -440 rlineto
            -29 44 -14 60 73 vvcurveto
            86 19 116 38 35 vhcurveto
            26 28 42 9 55 hhcurveto
            return
          </CharString>
          <CharString index="28">
            -20 hstem
            263 461 rmoveto
            164 -461 rlineto
            116 hlineto
            156 463 15 62 2 -65 28 -343 2 -19 -9 -10 -22 -3 rlinecurve
            -49 -6 rlineto
            -79 286 79 vlineto
            -54 9 -25 4 -2 8 -2 25 rlinecurve
            -43 478 -2 22 10 7 23 3 rlinecurve
            51 6 rlineto
            79 -240 vlineto
            -166 -510 -10 -52 -11 52 -179 510 rlineto
            -231 -79 hlineto
            47 -6 22 -3 10 -8 -2 -19 rlinecurve
            -40 -480 -2 -25 -2 -7 -25 -5 rlinecurve
            13 callsubr
            -79 267 79 vlineto
            -47 6 -23 3 -8 10 1 21 rlinecurve
            22 341 rlineto
            65 vlineto
            return
          </CharString>
          <CharString index="29">
            230 495 rmoveto
            -100 -90 -40 -96 -78 40 -38 118 -39 hvcurveto
            58 -20 44 -16 -37 vvcurveto
            -43 -44 -17 -41 -24 -33 6 8 -21 vhcurveto
            return
          </CharString>
          <CharString index="30">
            -60 callgsubr
            266 -9 callgsubr
            -18 2 -4 8 18 vvcurveto
            return
          </CharString>
          <CharString index="31">
            rmoveto
            -72 callsubr
            return
          </CharString>
          <CharString index="32">
            -9 66 rlineto
            -81 hlineto
            -9 -125 rlineto
            -22 54 50 -14 79 hhcurveto
            103 97 56 99 80 -59 33 -101 34 hvcurveto
            -60 20 -42 18 38 vvcurveto
            37 27 10 37 20 34 -2 -12 28 vhcurveto
            return
          </CharString>
          <CharString index="33">
            389 -93 callsubr
            return
          </CharString>
          <CharString index="34">
            -7 11 10 -3 9 hhcurveto
            27 21 22 20 14 hvcurveto
            -171 148 rlineto
            endchar
          </CharString>
          <CharString index="35">
            -193 -74 hlineto
            51 -6 rlineto
            return
          </CharString>
          <CharString index="36">
            107 0 102 202 108 206 102 hstem
            -62 callgsubr
            299 137 vstem
            48 304 rmoveto
            77 -175 hlineto
            -63 callgsubr
            -315 -76 hlineto
            48 -6 rlineto
            25 -3 4 -12 -25 vvcurveto
            -186 -77 vlineto
            503 -42 rmoveto
            -192 -63 -76 -135 vhcurveto
            -101 202 167 108 -167 206 101 hlineto
            135 63 -57 -191 hvcurveto
            endchar
          </CharString>
          <CharString index="37">
            17 -73 rlineto
            79 hlineto
            9 133 rlineto
            20 -31 -67 22 -68 hhcurveto
            -151 -92 -111 -155 return
          </CharString>
          <CharString index="38">
            -20 hstemhm
            40 119 141 121 hintmask 11011100
            -78 callsubr
            -75 callsubr
            -48 callgsubr
            return
          </CharString>
          <CharString index="39">
            25 25 33 22 50 hhcurveto
            50 31 -28 -52 hvcurveto
            -318 vlineto
            return
          </CharString>
          <CharString index="40">
            rmoveto
            282 hlineto
            15 97 rlineto
            -282 hlineto
            endchar
          </CharString>
          <CharString index="41">
            176 359 rmoveto
            71 19 130 37 31 vhcurveto
            20 24 31 14 63 hhcurveto
            66 32 -8 -17 44 hvcurveto
            return
          </CharString>
          <CharString index="42">
            rmoveto
            -21 -16 -39 -37 -45 hhcurveto
            -83 -20 81 81 41 10 82 23 18 hvcurveto
            16 19 30 8 28 hhcurveto
            24 42 -5 -23 27 hvcurveto
            return
          </CharString>
          <CharString index="43">
            -62 callsubr
            79 return
          </CharString>
          <CharString index="44">
            -193 -74 vlineto
            51 return
          </CharString>
          <CharString index="45">
            -42 callgsubr
            -38 callsubr
            return
          </CharString>
          <CharString index="46">
            rmoveto
            -171 -148 rlineto
            return
          </CharString>
          <CharString index="47">
            61 18 41 23 48 vvcurveto
            65 -63 22 -53 -49 -29 -15 -4 -14 vhcurveto
            6 -51 rlineto
            5 25 19 5 23 hhcurveto
            17 28 -1 -29 -26 -37 -13 -49 -13 hvcurveto
            13 -100 rlineto
            endchar
          </CharString>
          <CharString index="48">
            -126 11 -69 126 40 52 9 12 22 vhcurveto
            11 75 rlineto
            -7 -30 -28 -3 -16 hhcurveto
            -63 -5 52 72 hvcurveto
            return
          </CharString>
          <CharString index="49">
            rmoveto
            19 19 26 15 24 vvcurveto
            9 0 7 -8 11 vhcurveto
            -74 118 74 118 rlineto
            6 10 2 9 7 vvcurveto
            24 -26 13 -19 22 vhcurveto
            -170 -203 rlineto
            return
          </CharString>
          <CharString index="50">
            -7 203 rlineto
            -10 callgsubr
            return
          </CharString>
          <CharString index="51">
            -36 -3 -44 -5 -41 -3 rrcurveto
            102 vlineto
            -120 -27 rlineto
            -79 vlineto
            -59 -8 rlineto
            return
          </CharString>
          <CharString index="52">
            236 645 rmoveto
            47 -4 -197 -509 -13 -35 -9 -7 -25 -4 rlinecurve
            -37 -7 rlineto
            -79 274 77 vlineto
            -49 9 rlineto
            -18 3 -10 8 15 vvcurveto
            8 2 6 3 7 vhcurveto
            71 189 rlineto
            170 -195 hlineto
            -25 -4 -10 -25 -3 vhcurveto
            -49 -9 rlineto
            -80 525 vlineto
            return
          </CharString>
          <CharString index="53">
            13 0 4 callsubr
            119 -43 callsubr
            return
          </CharString>
          <CharString index="54">
            -63 callsubr
            -7 rlineto
            return
          </CharString>
          <CharString index="55">
            rmoveto
            -149 -170 rlineto
            return
          </CharString>
          <CharString index="56">
            -23 callsubr
            239 128 return
          </CharString>
          <CharString index="57">
            52 -22 45 -74 -44 -31 -18 -52 -50 22 -24 51 -5 vhcurveto
            -40 -50 -41 -31 -17 vhcurveto
            47 -49 rlineto
            59 31 73 78 90 vvcurveto
            return
          </CharString>
          <CharString index="58">
            25 3 11 4 23 hhcurveto
            103 -494 31 callsubr
            return
          </CharString>
          <CharString index="59">
            -240 -21 102 127 return
          </CharString>
          <CharString index="60">
            579 hmoveto
            -57 callsubr
            return
          </CharString>
          <CharString index="61">
            21 -22 callgsubr
            return
          </CharString>
          <CharString index="62">
            780 -76 callsubr
            return
          </CharString>
          <CharString index="63">
            85 21 -32 callsubr
            return
          </CharString>
          <CharString index="64">
            104 96 198 -104 104 return
          </CharString>
          <CharString index="65">
            79 5 callsubr
            vlineto
            return
          </CharString>
          <CharString index="66">
            -86 -250 92 -92 188 186 81 212 78 return
          </CharString>
          <CharString index="67">
            -5 -12 -19 -2 -14 hhcurveto
            -29 -24 11 43 -32 hvcurveto
            -106 145 rlineto
            7 vlineto
            83 74 rlineto
            23 26 13 14 37 hhcurveto
            24 81 -57 hlineto
            -47 -24 -10 -43 -43 hvcurveto
            -134 -137 rlineto
            return
          </CharString>
          <CharString index="68">
            -20 -58 callgsubr
            return
          </CharString>
          <CharString index="69">
            48 9 rlineto
            return
          </CharString>
          <CharString index="70">
            -25 -5 vhcurveto
            return
          </CharString>
          <CharString index="71">
            rmoveto
            73 -50 64 -88 -99 -50 -71 -68 -76 53 -57 85 79 70 51 84 vhcurveto
            -91 7 rmoveto
            -37 -14 -30 -34 -33 -24 25 34 34 13 26 32 37 23 -23 -29 vhcurveto
            return
          </CharString>
          <CharString index="72">
            316 401 rmoveto
            -288 -333 rlineto
            -68 453 vlineto
            return
          </CharString>
          <CharString index="73">
            479 620 rmoveto
            24 11 -4 -25 3 hvcurveto
            return
          </CharString>
          <CharString index="74">
            54 -55 rlineto
            164 81 29 36 140 vvcurveto
            return
          </CharString>
          <CharString index="75">
            1 callgsubr
            404 return
          </CharString>
          <CharString index="76">
            rmoveto
            -202 hlineto
            39 38 15 38 25 vhcurveto
            65 43 61 42 84 vvcurveto
            71 -46 52 -103 -57 -63 -16 -16 -44 vhcurveto
            6 -114 rlineto
            61 hlineto
            14 60 rlineto
            return
          </CharString>
          <CharString index="77">
            -3 vhcurveto
            -50 -9 rlineto
            return
          </CharString>
          <CharString index="78">
            -53 callgsubr
            -230 return
          </CharString>
          <CharString index="79">
            48 -9 rlineto
            return
          </CharString>
          <CharString index="80">
            5 -65 rlineto
            89 hlineto
            7 198 rlineto
            -637 hlineto
            209 -294 rmoveto
            -131 hlineto
            76 204 26 -2 rlineto
            25 -2 4 -13 -25 vvcurveto
            return
          </CharString>
          <CharString index="81">
            vvcurveto
            27 -4 17 -3 11 vhcurveto
            -113 -12 rlineto
            3 -21 5 -15 -15 vvcurveto
            return
          </CharString>
          <CharString index="82">
            15 -25 -29 9 -32 hhcurveto
            -62 -59 -50 -36 -21 hvcurveto
            return
          </CharString>
          <CharString index="83">
            hstemhm
            103 8 callsubr
            return
          </CharString>
          <CharString index="84">
            34 128 return
          </CharString>
          <CharString index="85">
            81 34 rlineto
            -248 vlineto
            -25 -3 -8 -19 -2 vhcurveto
            -53 -6 rlineto
            -63 return
          </CharString>
          <CharString index="86">
            105 -10 105 625 -20 return
          </CharString>
          <CharString index="87">
            14 12 47 34 9 4 return
          </CharString>
          <CharString index="88">
            94 -63 -6 callgsubr
            return
          </CharString>
          <CharString index="89">
            21 -7 callgsubr
            return
          </CharString>
          <CharString index="90">
            8 callgsubr
            7 -200 rlineto
            87 hlineto
            7 70 rlineto
            return
          </CharString>
          <CharString index="91">
            -28 callgsubr
            -60 callgsubr
            284 74 vlineto
            -69 7 rlineto
            -18 2 -4 8 18 vvcurveto
            return
          </CharString>
          <CharString index="92">
            -20 callsubr
            rrcurveto
            return
          </CharString>
          <CharString index="93">
            -25 -2 -12 -4 -24 hhcurveto
            -182 218 198 104 -198 190 162 hlineto
            24 12 -4 -25 2 hvcurveto
            return
          </CharString>
          <CharString index="94">
            hstemhm
            82 -36 callgsubr
            241 return
          </CharString>
          <CharString index="95">
            -56 -250 93 642 return
          </CharString>
          <CharString index="96">
            141 74 141 return
          </CharString>
          <CharString index="97">
            -63 -58 -39 -38 -34 return
          </CharString>
          <CharString index="98">
            39 137 return
          </CharString>
          <CharString index="99">
            hstemhm
            40 123 return
          </CharString>
          <CharString index="100">
            hstemhm
            -9 callsubr
            return
          </CharString>
          <CharString index="101">
            -47 -29 -20 -56 -45 27 -24 30 6 8 1 3 6 vhcurveto
            -6 -49 -44 -33 -27 -16 41 -43 rcurveline
            return
          </CharString>
          <CharString index="102">
            197 -100 100 hstemhm
            250 127 return
          </CharString>
          <CharString index="103">
            -25 4 -4 9 25 vvcurveto
            494 vlineto
            return
          </CharString>
          <CharString index="104">
            rmoveto
            142 -94 rlineto
            return
          </CharString>
          <CharString index="105">
            20 13 50 38 37 hhcurveto
            70 34 -54 -103 -63 -13 -60 -20 -21 hvcurveto
            -20 -19 -34 -6 -25 hhcurveto
            return
          </CharString>
          <CharString index="106">
            217 724 rmoveto
            -70 hlineto
            -104 -51 rlineto
            -80 vlineto
            return
          </CharString>
          <CharString index="107">
            -79 vlineto
            47 -6 rlineto
            25 -3 return
          </CharString>
          <CharString index="108">
            -21 398 97 return
          </CharString>
          <CharString index="109">
            -8 callsubr
            -13 70 81 70 -42 120 return
          </CharString>
          <CharString index="110">
            hstemhm
            48 132 232 129 return
          </CharString>
          <CharString index="111">
            104 -104 203 return
          </CharString>
          <CharString index="112">
            -281 -79 return
          </CharString>
          <CharString index="113">
            485 -76 callsubr
            hintmask 11101000
            -100 callsubr
            return
          </CharString>
          <CharString index="114">
            -17 callgsubr
            -2 79 rmoveto
            return
          </CharString>
          <CharString index="115">
            120 189 -43 callgsubr
            return
          </CharString>
          <CharString index="116">
            -131 -10 89 241 175 -89 89 return
          </CharString>
          <CharString index="117">
            25 -4 4 -27 callgsubr
            return
          </CharString>
          <CharString index="118">
            1 callsubr
            -10 -20 return
          </CharString>
          <CharString index="119">
            191 117 return
          </CharString>
          <CharString index="120">
            -48 -9 rlineto
            return
          </CharString>
          <CharString index="121">
            -7 -16 -18 -3 -16 hhcurveto
            -29 -22 10 64 -46 hvcurveto
            -169 233 rlineto
            return
          </CharString>
          <CharString index="122">
            -12 callsubr
            -20 return
          </CharString>
          <CharString index="123">
            -37 callsubr
            13 callsubr
            -80 return
          </CharString>
          <CharString index="124">
            5 16 15 3 28 hhcurveto
            36 18 -17 -21 -65 -92 -20 -35 -7 hvcurveto
            return
          </CharString>
          <CharString index="125">
            -48 -51 19 -38 hhcurveto
            -30 -18 -11 -15 -21 hvcurveto
            34 28 24 44 47 return
          </CharString>
          <CharString index="126">
            -48 9 rlineto
            -47 callgsubr
            return
          </CharString>
          <CharString index="127">
            -219 -21 230 89 327 89 return
          </CharString>
          <CharString index="128">
            hlineto
            hintmask 10010000
            23 130 rlineto
            -104 hlineto
            hintmask 10100000
            -23 -130 rlineto
            return
          </CharString>
          <CharString index="129">
            -66 44 41 -41 66 hhcurveto
            46 27 9 13 21 hvcurveto
            8 92 rlineto
            return
          </CharString>
          <CharString index="130">
            6 rlineto
            73 return
          </CharString>
          <CharString index="131">
            -20 hstemhm
            30 -85 callgsubr
            hintmask 11110000
            223 return
          </CharString>
          <CharString index="132">
            51 0 94 -83 -21 417 213 0 100 0 34 return
          </CharString>
          <CharString index="133">
            91 -91 209 -193 120 return
          </CharString>
          <CharString index="134">
            -20 hstemhm
            43 174 -174 250 -169 93 return
          </CharString>
          <CharString index="135">
            -107 0 86 -86 170 151 164 -84 84 return
          </CharString>
          <CharString index="136">
            80 -41 callgsubr
            return
          </CharString>
          <CharString index="137">
            -20 hstemhm
            39 126 182 126 -75 106 return
          </CharString>
          <CharString index="138">
            hlineto
            -65 callgsubr
            -79 return
          </CharString>
          <CharString index="139">
            182 -41 callgsubr
            return
          </CharString>
          <CharString index="140">
            vlineto
            25 4 8 25 5 vhcurveto
            return
          </CharString>
          <CharString index="141">
            hstemhm
            85 156 -139 118 hintmask 11010000
            return
          </CharString>
          <CharString index="142">
            -107 0 86 235 164 -84 84 0 return
          </CharString>
          <CharString index="143">
            15 callgsubr
            43 171 return
          </CharString>
          <CharString index="144">
            -14 -35 2 hvcurveto
            19 -224 rlineto
            78 hlineto
            return
          </CharString>
        <CharString name=".notdef">
          -378 endchar
        </CharString>
        <CharString name="A">
          -31 callgsubr
          hstem
          -107 callgsubr
          endchar
        </CharString>
        <CharString name="AE">
          326 0 104 -104 208 114 -43 callsubr
          hstemhm
          445 127 202 95 hintmask 10110110
          -55 callsubr
          hintmask 01110110
          -7 208 rlineto
          -87 hlineto
          -6 -75 rlineto
          hintmask 10101110
          -14 callsubr
          hintmask 10110110
          -27 callsubr
          endchar
        </CharString>
        <CharString name="AEacute">
          326 30 callgsubr
          34 190 -20 hstemhm
          445 127 202 95 hintmask 11010111
          -55 callsubr
          -7 208 rlineto
          -87 hlineto
          -6 -75 rlineto
          -14 callsubr
          hintmask 11100111
          -27 callsubr
          160 356 -61 callsubr
          hintmask 11001111
          -99 callgsubr
        </CharString>
        <CharString name="Aacute">
          -44 callsubr
          34 190 -20 hstem
          -107 callgsubr
          95 436 -61 callsubr
          -99 callgsubr
        </CharString>
        <CharString name="Abreve">
          -31 callgsubr
          63 86 64 -20 hstem
          -107 callgsubr
          99 405 -102 callsubr
        </CharString>
        <CharString name="Acircumflex">
          -31 callgsubr
          218 -20 hstem
          -107 callgsubr
          -57 410 -98 callgsubr
        </CharString>
        <CharString name="Adieresis">
          -31 callgsubr
          57 131 hstem
          170 -11 callsubr
          vstem
          -107 callgsubr
          -42 311 -103 callgsubr
        </CharString>
        <CharString name="Agrave">
          -44 callsubr
          35 190 -20 hstem
          -107 callgsubr
          -167 351 -3 callsubr
          -73 callsubr
        </CharString>
        <CharString name="Amacron">
          -31 callgsubr
          92 97 hstem
          -107 callgsubr
          -148 284 -67 callsubr
        </CharString>
        <CharString name="Aogonek">
          85 -230 75 176 -32 callsubr
          -20 hstemhm
          494 91 vstemhm
          494 -126 rmoveto
          -94 callsubr
          hintmask 11111000
          -15 callsubr
          79 vlineto
          -34 7 -26 5 -9 5 -13 36 rlinecurve
          -212 588 rlineto
          -119 hlineto
          -208 -588 -13 -36 -9 -5 -25 -5 rlinecurve
          -33 -7 rlineto
          -79 273 77 vlineto
          -49 9 rlineto
          -20 3 -8 8 13 vvcurveto
          6 2 8 3 9 vhcurveto
          28 85 rlineto
          224 hlineto
          31 -88 rlineto
          3 -10 2 -7 -6 vvcurveto
          -12 -8 -6 -19 -30 callsubr
          -77 185 vlineto
          -12 callgsubr
          -74 442 rmoveto
          -156 hlineto
          66 194 10 49 13 -51 rlineto
          endchar
        </CharString>
        <CharString name="Aring">
          -31 callgsubr
          47 62 78 63 hstem
          239 70 81 70 vstem
          -107 callgsubr
          107 342 -99 callsubr
          endchar
        </CharString>
        <CharString name="Aringacute">
          85 21 1 callgsubr
          413 158 -80 63 207 -20 hstemhm
          239 70 81 70 hintmask 11011110
          460 770 rmoveto
          49 -37 51 -69 -74 -41 -54 -49 -34 17 -34 33 -18 vhcurveto
          -207 -549 -13 -36 -9 -5 -25 -5 rlinecurve
          -33 -7 rlineto
          -79 273 77 vlineto
          -49 9 rlineto
          -20 3 -8 8 13 vvcurveto
          6 2 8 3 9 vhcurveto
          32 85 rlineto
          216 hlineto
          35 -88 rlineto
          3 -10 2 -7 -6 vvcurveto
          -12 -8 -6 -19 -30 callsubr
          -77 289 79 vlineto
          -34 7 -26 5 -9 5 -13 36 rlinecurve
          -212 551 rlineto
          33 20 18 34 33 vvcurveto
          -8 307 -61 callsubr
          hintmask 11101110
          -20 14 21 -22 27 hhcurveto
          9 10 3 7 11 hvcurveto
          142 94 rlineto
          -97 -675 rmoveto
          -152 hlineto
          64 169 10 49 13 -51 rlineto
          37 289 rmoveto
          -27 -13 -16 -27 -22 -19 13 22 vhcurveto
          hintmask 11011110
          27 13 16 27 22 19 -13 -22 vhcurveto
          endchar
        </CharString>
        <CharString name="Atilde">
          -31 callgsubr
          60 104 -67 67 hstemhm
          hintmask 11101000
          -107 callgsubr
          -76 289 rmoveto
          hintmask 11110000
          -93 callgsubr
          hintmask 11101000
          -97 callsubr
        </CharString>
        <CharString name="B">
          30 0 100 220 98 202 100 -58 callgsubr
          174 134 -84 84 -84 134 hintmask 11110010
          125 126 rmoveto
          -52 callgsubr
          13 callsubr
          -79 306 vlineto
          157 99 81 136 112 -72 45 -91 8 hvcurveto
          hintmask 11111000
          47 12 66 64 100 vvcurveto
          135 -96 27 -144 vhcurveto
          -272 -79 hlineto
          -28 callsubr
          25 -5 4 -8 -25 vvcurveto
          127 26 rmoveto
          50 hlineto
          69 55 -14 -77 -41 -5 -39 -32 -18 hvcurveto
          -13 -20 -30 0 -29 hhcurveto
          -58 hlineto
          -98 vmoveto
          88 hlineto
          hintmask 11110100
          77 59 -26 -79 -79 -46 -36 -85 hvcurveto
          -93 hlineto
          endchar
        </CharString>
        <CharString name="C">
          -29 callgsubr
          -7 callsubr
          hintmask 10110000
          -87 callgsubr
          hintmask 11010000
          -83 callsubr
          endchar
        </CharString>
        <CharString name="Cacute">
          -29 callgsubr
          0 24 190 -20 -7 callsubr
          hintmask 10101100
          -87 callgsubr
          hintmask 11001100
          -83 callsubr
          -191 893 -61 callsubr
          hintmask 10011100
          -99 callgsubr
        </CharString>
        <CharString name="Ccaron">
          -29 callgsubr
          0 24 174 -20 -7 callsubr
          hintmask 10101100
          -87 callgsubr
          hintmask 11001100
          -83 callsubr
          hintmask 10011100
          -214 703 -84 callsubr
        </CharString>
        <CharString name="Ccedilla">
          43 -235 56 170 107 402 230 -105 105 -7 callsubr
          195 88 hintmask 11011100
          -87 callgsubr
          hintmask 11101100
          21 -105 rlineto
          97 hlineto
          16 173 rlineto
          53 -101 -68 4 -65 -53 callgsubr
          -212 82 -128 182 -19 hvcurveto
          -19 -90 57 -13 rlineto
          -94 callgsubr
          48 vlineto
          113 6 103 45 25 9 rrcurveto
          endchar
        </CharString>
        <CharString name="Ccircumflex">
          -29 callgsubr
          188 -20 -7 callsubr
          hintmask 10111000
          -87 callgsubr
          hintmask 11011000
          -83 callsubr
          -322 867 -98 callgsubr
        </CharString>
        <CharString name="Cdotaccent">
          -29 callgsubr
          37 155 -7 callsubr
          73 165 hintmask 10111100
          -87 callgsubr
          hintmask 11011100
          -83 callsubr
          -205 789 rmoveto
          -100 callgsubr
        </CharString>
        <CharString name="D">
          107 0 102 516 102 hstem
          -62 callgsubr
          299 137 vstem
          -56 callgsubr
          endchar
        </CharString>
        <CharString name="Dcaron">
          107 0 102 516 102 0 34 174 -39 callsubr
          299 137 hintmask 11011100
          -56 callgsubr
          hintmask 10111100
          -14 34 -84 callsubr
        </CharString>
        <CharString name="Dcroat">
          -71 callsubr
        </CharString>
        <CharString name="E">
          -54 callsubr
          -58 callgsubr
          hintmask 01110100
          -47 callsubr
          hintmask 10101100
          -97 callgsubr
          hintmask 01110100
          -101 callsubr
          vlineto
          endchar
        </CharString>
        <CharString name="Eacute">
          13 30 callgsubr
          34 190 -39 callsubr
          hintmask 11010110
          579 hmoveto
          -7 203 rlineto
          -87 hlineto
          -7 -70 rlineto
          -97 callgsubr
          hintmask 11100110
          -101 callsubr
          vlineto
          390 944 -61 callsubr
          hintmask 11001110
          -99 callgsubr
        </CharString>
        <CharString name="Ebreve">
          -54 callsubr
          43 86 64 -39 callsubr
          hintmask 01110111
          -47 callsubr
          hintmask 10101111
          -97 callgsubr
          hintmask 01110111
          -101 callsubr
          vlineto
          394 913 -102 callsubr
        </CharString>
        <CharString name="Ecaron">
          13 30 callgsubr
          34 174 -39 callsubr
          hintmask 11010110
          579 hmoveto
          -7 203 rlineto
          -87 hlineto
          -7 -70 rlineto
          -97 callgsubr
          hintmask 11100110
          -101 callsubr
          vlineto
          hintmask 11001110
          346 754 -84 callsubr
        </CharString>
        <CharString name="Ecircumflex">
          -54 callsubr
          198 -39 callsubr
          hintmask 01110110
          -47 callsubr
          hintmask 10101110
          -97 callgsubr
          hintmask 01110110
          -101 callsubr
          vlineto
          238 918 -98 callgsubr
        </CharString>
        <CharString name="Edieresis">
          -54 callsubr
          37 131 -58 callgsubr
          -90 -11 callsubr
          -141 198 hintmask 0111011010000000
          -47 callsubr
          hintmask 1010111010000000
          -97 callgsubr
          hintmask 0111011001000000
          -101 callsubr
          vlineto
          hintmask 1011010110000000
          255 819 -103 callgsubr
        </CharString>
        <CharString name="Edotaccent">
          -54 callsubr
          47 155 -58 callgsubr
          7 165 hintmask 01110111
          -47 callsubr
          hintmask 10101111
          -97 callgsubr
          hintmask 01110111
          -101 callsubr
          vlineto
          376 840 rmoveto
          -100 callgsubr
        </CharString>
        <CharString name="Egrave">
          13 30 callgsubr
          35 190 -39 callsubr
          hintmask 11010110
          579 hmoveto
          -7 203 rlineto
          -87 hlineto
          -7 -70 rlineto
          -97 callgsubr
          hintmask 11100110
          -101 callsubr
          vlineto
          128 859 -3 callsubr
          hintmask 11001110
          -73 callsubr
        </CharString>
        <CharString name="Emacron">
          -54 callsubr
          72 97 -58 callgsubr
          hintmask 01110110
          -47 callsubr
          hintmask 10101110
          -97 callgsubr
          hintmask 01110110
          -101 callsubr
          vlineto
          147 792 -67 callsubr
        </CharString>
        <CharString name="Eng">
          138 -143 -21 185 -21 625 105 -10 -39 callsubr
          298 128 hintmask 11101100
          550 153 rmoveto
          -115 -20 -54 -135 -67 vhcurveto
          52 -81 rlineto
          153 67 78 59 167 vvcurveto
          412 vlineto
          108 -69 81 -142 -102 -59 -47 -56 -53 vhcurveto
          hintmask 11011100
          -11 93 rlineto
          -193 -79 hlineto
          46 -6 rlineto
          26 -3 4 -13 -25 vvcurveto
          -461 vlineto
          -30 -3 -10 -22 -4 vhcurveto
          -54 -10 rlineto
          -79 289 78 vlineto
          -59 11 rlineto
          -21 4 -3 9 31 vvcurveto
          396 vlineto
          hintmask 11101100
          53 32 61 43 85 hhcurveto
          62 58 -38 -89 hvcurveto
          endchar
        </CharString>
        <CharString name="Eogonek">
          13 -230 75 155 104 218 -43 callsubr
          -58 callgsubr
          118 91 hintmask 11101110
          370 -126 rmoveto
          -94 callsubr
          -20 callsubr
          -7 203 rcurveline
          -10 callgsubr
          -97 callgsubr
          hintmask 11110110
          -101 callsubr
          427 vlineto
          -12 callgsubr
          endchar
        </CharString>
        <CharString name="Eth">
          -71 callsubr
        </CharString>
        <CharString name="F">
          -43 21 -21 315 104 202 99 -58 callgsubr
          vstemhm
          48 720 rmoveto
          -76 vlineto
          48 -6 rlineto
          23 -3 6 -10 -23 vvcurveto
          -476 vlineto
          -52 callgsubr
          13 callsubr
          -13 callgsubr
          189 191 104 -191 202 177 vlineto
          24 11 -4 -25 3 hvcurveto
          hintmask 11110000
          7 -65 rlineto
          84 hlineto
          7 193 rlineto
          endchar
        </CharString>
        <CharString name="G">
          -5 callgsubr
          -7 callsubr
          317 124 hintmask 10111000
          -66 callsubr
          hintmask 11011000
          21 -100 rlineto
          97 hlineto
          16 173 rlineto
          53 -105 -73 4 -68 -29 callsubr
          92 -132 224 116 91 38 23 55 hvcurveto
          163 vlineto
          26 1 7 26 5 vhcurveto
          34 7 rlineto
          79 -266 -79 vlineto
          52 -9 rlineto
          24 -4 5 -27 callgsubr
          -96 vlineto
          -15 -41 -37 -5 -45 hhcurveto
          -136 -58 116 147 hvcurveto
          endchar
        </CharString>
        <CharString name="Gbreve">
          -5 callgsubr
          33 86 64 -20 -7 callsubr
          317 124 hintmask 10111110
          -66 callsubr
          hintmask 11011110
          21 -100 rlineto
          97 hlineto
          16 173 rlineto
          53 -105 -73 4 -68 -29 callsubr
          92 -132 224 116 91 38 23 55 hvcurveto
          163 vlineto
          26 1 7 26 5 vhcurveto
          34 7 rlineto
          79 -266 -79 vlineto
          52 -9 rlineto
          24 -4 5 -27 callgsubr
          -96 vlineto
          -15 -41 -37 -5 -45 hhcurveto
          -136 -58 116 147 hvcurveto
          277 554 -102 callsubr
        </CharString>
        <CharString name="Gcircumflex">
          -5 callgsubr
          188 -20 -7 callsubr
          317 124 hintmask 10111100
          -66 callsubr
          hintmask 11011100
          21 -100 rlineto
          97 hlineto
          16 173 rlineto
          53 -105 -73 4 -68 -29 callsubr
          92 -132 224 116 91 38 23 55 hvcurveto
          163 vlineto
          26 1 7 26 5 vhcurveto
          34 7 rlineto
          79 -266 -79 vlineto
          52 -9 rlineto
          24 -4 5 -27 callgsubr
          -96 vlineto
          -15 -41 -37 -5 -45 hhcurveto
          -136 -58 116 147 hvcurveto
          121 559 -98 callgsubr
        </CharString>
        <CharString name="Gcommaaccent">
          102 -48 callsubr
          22 106 404 230 -105 105 -7 callsubr
          106 152 59 124 hintmask 11101111
          -66 callsubr
          hintmask 11110111
          21 -100 rlineto
          97 hlineto
          16 173 rlineto
          53 -105 -73 4 -68 -29 callsubr
          92 -132 224 116 91 38 23 55 hvcurveto
          163 vlineto
          26 1 7 26 5 vhcurveto
          34 7 rlineto
          79 -266 -79 vlineto
          52 -9 rlineto
          24 -4 5 -27 callgsubr
          -96 vlineto
          -15 -41 -37 -5 -45 hhcurveto
          -136 -58 116 147 hvcurveto
          258 -464 -104 callsubr
        </CharString>
        <CharString name="Gdotaccent">
          -5 callgsubr
          37 155 -7 callsubr
          94 165 58 124 hintmask 10111110
          -66 callsubr
          hintmask 11011110
          21 -100 rlineto
          97 hlineto
          16 173 rlineto
          53 -105 -73 4 -68 -29 callsubr
          92 -132 224 116 91 38 23 55 hvcurveto
          163 vlineto
          26 1 7 26 5 vhcurveto
          34 7 rlineto
          79 -266 -79 vlineto
          52 -9 rlineto
          24 -4 5 -27 callgsubr
          -96 vlineto
          -15 -41 -37 -5 -45 hhcurveto
          -136 -58 116 147 hvcurveto
          259 481 rmoveto
          -100 callgsubr
        </CharString>
        <CharString name="H">
          32 callgsubr
          292 -20 hstem
          -62 callgsubr
          288 127 vstem
          667 24 callgsubr
          25 4 8 25 5 vhcurveto
          -38 callsubr
          79 -286 -79 vlineto
          53 -9 rlineto
          10 callsubr
          -166 -288 166 vlineto
          -39 callgsubr
          53 9 rlineto
          79 -286 -79 vlineto
          -28 callsubr
          25 -5 4 -8 -25 vvcurveto
          -468 vlineto
          -52 callgsubr
          13 callsubr
          -79 286 79 vlineto
          -53 9 rlineto
          -25 4 -4 9 25 vvcurveto
          200 288 -200 vlineto
          -25 -4 -9 -25 -4 vhcurveto
          -53 -9 rlineto
          -79 286 79 vlineto
          19 callsubr
          endchar
        </CharString>
        <CharString name="Hbar">
          32 callgsubr
          60 90 -90 232 -58 callgsubr
          288 127 hintmask 11011100
          667 24 callgsubr
          25 4 8 25 5 vhcurveto
          -38 callsubr
          79 -286 -79 vlineto
          53 -9 rlineto
          10 callsubr
          hintmask 11101100
          -16 -288 16 vlineto
          -39 callgsubr
          53 9 rlineto
          hintmask 11011100
          79 -286 -79 vlineto
          -28 callsubr
          25 -5 4 -8 -25 vvcurveto
          hintmask 11101100
          -16 -69 -90 69 -362 vlineto
          -52 callgsubr
          13 callsubr
          -79 286 79 vlineto
          -53 9 rlineto
          -25 4 -4 9 25 vvcurveto
          200 288 -200 vlineto
          -25 -4 -9 -25 -4 vhcurveto
          -53 -9 rlineto
          -79 286 79 vlineto
          19 callsubr
          362 69 90 -69 vlineto
          -415 -150 rmoveto
          60 288 -60 vlineto
          endchar
        </CharString>
        <CharString name="Hcircumflex">
          32 callgsubr
          292 -20 216 -20 hstem
          -62 callgsubr
          288 127 vstem
          667 24 callgsubr
          25 4 8 25 5 vhcurveto
          -38 callsubr
          79 -286 -79 vlineto
          53 -9 rlineto
          10 callsubr
          -166 -288 166 vlineto
          -39 callgsubr
          53 9 rlineto
          79 -286 -79 vlineto
          -28 callsubr
          25 -5 4 -8 -25 vvcurveto
          -468 vlineto
          -52 callgsubr
          13 callsubr
          -79 286 79 vlineto
          -53 9 rlineto
          -25 4 -4 9 25 vvcurveto
          200 288 -200 vlineto
          -25 -4 -9 -25 -4 vhcurveto
          -53 -9 rlineto
          -79 286 79 vlineto
          19 callsubr
          -325 790 -98 callgsubr
        </CharString>
        <CharString name="I">
          -14 callgsubr
          hstem
          -62 callgsubr
          vstem
          329 79 rmoveto
          19 callsubr
          468 vlineto
          25 4 8 25 5 -83 callgsubr
          -5 4 -8 -25 vvcurveto
          -468 vlineto
          -52 callgsubr
          13 callsubr
          -79 281 vlineto
          endchar
        </CharString>
        <CharString name="IJ">
          106 -135 -21 177 -22 callgsubr
          -20 hstem
          -62 callgsubr
          243 127 vstem
          329 79 rmoveto
          19 callsubr
          468 vlineto
          25 4 8 25 5 -83 callgsubr
          -5 4 -8 -25 vvcurveto
          -468 vlineto
          -52 callgsubr
          13 callsubr
          -79 281 vlineto
          73 -156 rmoveto
          179 92 41 31 181 vvcurveto
          446 vlineto
          25 4 8 25 5 -83 callgsubr
          -5 4 -8 -25 vvcurveto
          -415 vlineto
          -139 -24 -35 -129 -80 vhcurveto
          endchar
        </CharString>
        <CharString name="Iacute">
          -243 -46 callsubr
          34 190 -20 hstem
          -62 callgsubr
          vstem
          329 79 rmoveto
          19 callsubr
          468 vlineto
          25 4 8 25 5 -83 callgsubr
          -5 4 -8 -25 vvcurveto
          -468 vlineto
          -52 callgsubr
          13 callsubr
          -79 281 vlineto
          -43 944 -61 callsubr
          -99 callgsubr
        </CharString>
        <CharString name="Ibreve">
          -14 callgsubr
          63 86 64 -20 hstem
          -62 callgsubr
          vstem
          329 79 rmoveto
          19 callsubr
          468 vlineto
          25 4 8 25 5 -83 callgsubr
          -5 4 -8 -25 vvcurveto
          -468 vlineto
          -52 callgsubr
          13 callsubr
          -79 281 vlineto
          -39 913 -102 callsubr
        </CharString>
        <CharString name="Icircumflex">
          -14 callgsubr
          218 -20 hstem
          -62 callgsubr
          vstem
          329 79 rmoveto
          19 callsubr
          468 vlineto
          25 4 8 25 5 -83 callgsubr
          -5 4 -8 -25 vvcurveto
          -468 vlineto
          -52 callgsubr
          13 callsubr
          -79 281 vlineto
          -195 918 -98 callgsubr
        </CharString>
        <CharString name="Idieresis">
          -14 callgsubr
          57 131 hstemhm
          9 141 -102 102 -25 127 -28 105 -105 141 hintmask 11110010
          329 79 rmoveto
          -48 9 rlineto
          hintmask 11100100
          -47 callgsubr
          468 33 callsubr
          hintmask 11101010
          -82 callgsubr
          hintmask 11100100
          25 -5 4 -8 -25 vvcurveto
          -468 vlineto
          -52 callgsubr
          hintmask 11101010
          13 callsubr
          -79 281 vlineto
          -179 819 rmoveto
          43 -8 26 -54 vhcurveto
          hintmask 11110001
          -68 -11 -26 -46 -46 24 -13 46 46 25 16 46 hvcurveto
          215 hmoveto
          43 -8 26 -54 -68 -11 -26 -46 -46 24 -13 46 46 25 16 46 vhcurveto
          endchar
        </CharString>
        <CharString name="Idotaccent">
          -14 callgsubr
          47 155 hstemhm
          48 224 -165 165 -165 222 -204 127 hintmask 11100100
          329 79 rmoveto
          -48 9 rlineto
          hintmask 11100010
          -47 callgsubr
          468 33 callsubr
          hintmask 11100100
          -38 callsubr
          79 vlineto
          hintmask 11110000
          5 callsubr
          hlineto
          -28 callsubr
          hintmask 11100010
          25 -5 4 -8 -25 vvcurveto
          -468 vlineto
          -52 callgsubr
          hintmask 11110000
          13 callsubr
          -79 vlineto
          hintmask 11100100
          281 hlineto
          hintmask 11101000
          -57 820 rmoveto
          -100 callgsubr
        </CharString>
        <CharString name="Igrave">
          -243 -46 callsubr
          35 190 -20 hstem
          -62 callgsubr
          vstem
          329 79 rmoveto
          19 callsubr
          468 vlineto
          25 4 8 25 5 -83 callgsubr
          -5 4 -8 -25 vvcurveto
          -468 vlineto
          -52 callgsubr
          13 callsubr
          -79 281 vlineto
          -305 859 -3 callsubr
          -73 callsubr
        </CharString>
        <CharString name="Imacron">
          -14 callgsubr
          92 97 hstem
          -62 callgsubr
          vstem
          329 79 rmoveto
          19 callsubr
          468 vlineto
          25 4 8 25 5 -83 callgsubr
          -5 4 -8 -25 vvcurveto
          -468 vlineto
          -52 callgsubr
          13 callsubr
          -79 281 vlineto
          -286 792 -67 callsubr
        </CharString>
        <CharString name="Iogonek">
          -243 -230 75 176 -22 callgsubr
          -20 hstemhm
          125 86 -86 127 -127 204 hintmask 11110000
          120 -126 rmoveto
          -94 callsubr
          hintmask 11100100
          -15 callsubr
          17 callgsubr
          hintmask 11101000
          -47 callgsubr
          468 33 callsubr
          hintmask 11100100
          -80 callgsubr
          -5 4 -8 -25 vvcurveto
          -468 vlineto
          -52 callgsubr
          13 callsubr
          -79 177 vlineto
          -12 callgsubr
          endchar
        </CharString>
        <CharString name="Itilde">
          -14 callgsubr
          60 104 -67 67 -58 callgsubr
          hintmask 11011000
          329 79 rmoveto
          19 callsubr
          468 vlineto
          25 4 8 25 5 -83 callgsubr
          -5 4 -8 -25 vvcurveto
          -468 vlineto
          -52 callgsubr
          13 callsubr
          -79 281 vlineto
          -213 797 rmoveto
          hintmask 11101000
          -93 callgsubr
          hintmask 11011000
          -97 callsubr
        </CharString>
        <CharString name="J">
          -271 -135 -21 876 -20 hstem
          118 127 vstem
          25 -156 rmoveto
          179 92 41 31 181 vvcurveto
          446 vlineto
          25 4 8 25 5 -83 callgsubr
          -5 4 -8 -25 vvcurveto
          -415 vlineto
          -139 -24 -35 -129 -80 vhcurveto
          endchar
        </CharString>
        <CharString name="Jcircumflex">
          -271 -135 -21 876 -20 218 -20 hstem
          118 127 vstem
          25 -156 rmoveto
          179 92 41 31 181 vvcurveto
          446 vlineto
          25 4 8 25 5 -83 callgsubr
          -5 4 -8 -25 vvcurveto
          -415 vlineto
          -139 -24 -35 -129 -80 vhcurveto
          169 993 -98 callgsubr
        </CharString>
        <CharString name="K">
          77 0 94 -83 -21 730 -39 callsubr
          hintmask 10110000
          562 601 rmoveto
          31 29 25 0 38 hhcurveto
          88 -65 vlineto
          -40 -33 -14 -30 -26 hvcurveto
          -238 -266 rlineto
          184 vlineto
          -39 callgsubr
          52 9 rlineto
          79 -285 -79 vlineto
          -28 callsubr
          25 -5 4 -8 -25 vvcurveto
          -468 vlineto
          -52 callgsubr
          13 callsubr
          -79 285 -74 callgsubr
          252 vlineto
          190 -281 rlineto
          hintmask 01110000
          22 callsubr
          hintmask 10110000
          14 callsubr
          endchar
        </CharString>
        <CharString name="Kcommaaccent">
          77 -48 callsubr
          32 94 -83 -21 730 -39 callsubr
          22 59 -59 152 hintmask 11101110
          562 601 rmoveto
          31 29 25 0 38 hhcurveto
          88 -65 vlineto
          -40 -33 -14 -30 -26 hvcurveto
          -238 -266 rlineto
          184 vlineto
          -39 callgsubr
          52 9 rlineto
          79 -285 -79 vlineto
          -28 callsubr
          25 -5 4 -8 -25 vvcurveto
          -468 vlineto
          -52 callgsubr
          13 callsubr
          -79 285 -74 callgsubr
          252 vlineto
          190 -281 rlineto
          hintmask 11011110
          22 callsubr
          hintmask 11101101
          14 callsubr
          47 -506 -104 callsubr
        </CharString>
        <CharString name="L">
          -63 0 203 517 -39 callsubr
          vstemhm
          -24 callgsubr
          hintmask 11100000
          -25 -2 -12 -4 -24 hhcurveto
          -155 490 hlineto
          -39 callgsubr
          55 9 rlineto
          79 -288 -79 vlineto
          -28 callsubr
          25 -5 4 -8 -25 vvcurveto
          -468 vlineto
          -52 callgsubr
          13 callsubr
          -79 vlineto
          endchar
        </CharString>
        <CharString name="Lacute">
          -63 0 104 616 34 190 -20 hstem
          -62 callgsubr
          vstem
          -24 callgsubr
          -25 -2 -12 -4 -24 hhcurveto
          -155 490 hlineto
          -39 callgsubr
          55 9 rlineto
          79 -288 -79 vlineto
          -28 callsubr
          25 -5 4 -8 -25 vvcurveto
          -468 vlineto
          -52 callgsubr
          13 callsubr
          -79 vlineto
          247 944 -61 callsubr
          -99 callgsubr
        </CharString>
        <CharString name="Lcaron">
          -63 0 4 callsubr
          433 127 -43 -39 callsubr
          134 152 hintmask 10101100
          538 690 rmoveto
          39 -22 34 -57 vhcurveto
          hintmask 10011100
          -44 -29 -16 -47 hvcurveto
          hintmask 01101100
          -34 21 -30 43 4 3 1 2 4 vhcurveto
          -22 -33 -30 -32 -19 vhcurveto
          33 -34 rlineto
          52 23 57 60 73 vvcurveto
          7 -690 rmoveto
          -7 203 rlineto
          -86 -38 callgsubr
          hintmask 01011100
          -25 -2 -12 -4 -24 hhcurveto
          -155 490 hlineto
          -39 callgsubr
          55 9 rlineto
          79 -288 -79 vlineto
          -28 callsubr
          25 -5 4 -8 -25 vvcurveto
          -468 vlineto
          -52 callgsubr
          13 callsubr
          -79 vlineto
          endchar
        </CharString>
        <CharString name="Lcommaaccent">
          -63 -48 callsubr
          32 4 callsubr
          517 -39 callsubr
          -48 152 hintmask 11011100
          -24 callgsubr
          -25 -2 -12 -4 -24 hhcurveto
          -155 490 hlineto
          -39 callgsubr
          55 9 rlineto
          79 -288 -79 vlineto
          -28 callsubr
          25 -5 4 -8 -25 vvcurveto
          -468 vlineto
          -52 callgsubr
          13 callsubr
          -79 vlineto
          hintmask 11101010
          308 -105 -104 callsubr
        </CharString>
        <CharString name="Ldot">
          -63 0 203 94 155 268 -39 callsubr
          64 165 vstemhm
          -24 callgsubr
          hintmask 11111000
          -25 -2 -12 -4 -24 hhcurveto
          -155 490 hlineto
          -39 callgsubr
          55 9 rlineto
          79 -288 -79 vlineto
          -28 callsubr
          25 -5 4 -8 -25 vvcurveto
          -468 vlineto
          -52 callgsubr
          13 callsubr
          -79 vlineto
          433 370 rmoveto
          -100 callgsubr
        </CharString>
        <CharString name="Lslash">
          -63 0 4 callsubr
          517 -20 hstemhm
          48 204 -127 127 hintmask 10101000
          51 222 rmoveto
          74 43 rlineto
          -139 vlineto
          -52 callgsubr
          hintmask 10110000
          13 callsubr
          -79 497 vlineto
          hintmask 01110000
          -7 203 rlineto
          -86 -38 callgsubr
          hintmask 10110000
          -25 -2 -12 -4 -24 hhcurveto
          -155 234 hlineto
          139 81 rlineto
          99 vlineto
          -139 -80 rlineto
          156 vlineto
          -39 callgsubr
          55 9 rlineto
          79 -288 -79 vlineto
          -28 callsubr
          hintmask 10101000
          25 -5 4 -8 -25 vvcurveto
          -230 vlineto
          -74 -42 rlineto
          endchar
        </CharString>
        <CharString name="M">
          355 21 -21 720 -79 callsubr
          endchar
        </CharString>
        <CharString name="Macute">
          355 -41 callgsubr
          244 -79 callsubr
          347 419 -61 callsubr
          -99 callgsubr
        </CharString>
        <CharString name="N">
          32 callsubr
          hstem
          -62 callgsubr
          312 127 vstem
          -102 callgsubr
          endchar
        </CharString>
        <CharString name="Nacute">
          32 callsubr
          244 -20 hstem
          -62 callgsubr
          312 127 vstem
          -102 callgsubr
          249 224 -61 callsubr
          -99 callgsubr
        </CharString>
        <CharString name="Ncaron">
          32 callsubr
          228 -20 hstem
          -62 callgsubr
          312 127 vstem
          -102 callgsubr
          205 34 -84 callsubr
        </CharString>
        <CharString name="Ncommaaccent">
          182 3 callgsubr
          720 -20 hstem
          -62 callgsubr
          85 152 75 127 vstem
          -102 callgsubr
          232 -825 -104 callsubr
        </CharString>
        <CharString name="Ntilde">
          32 callsubr
          59 104 -67 67 -58 callgsubr
          312 127 hintmask 11011100
          -102 callgsubr
          81 76 rmoveto
          hintmask 11101100
          -93 callgsubr
          hintmask 11011100
          -97 callsubr
        </CharString>
        <CharString name="O">
          -18 callgsubr
          hstem
          -9 callsubr
          389 137 vstem
          702 360 -106 callsubr
          endchar
        </CharString>
        <CharString name="OE">
          448 -10 114 -114 213 -182 -21 322 -43 callsubr
          10 -20 -7 callsubr
          384 127 hintmask 0011100110000000
          1014 hmoveto
          hintmask 0101100110000000
          -57 callsubr
          hintmask 1001010110000000
          -97 callgsubr
          hintmask 1001100110000000
          7 -65 rlineto
          84 hlineto
          7 198 rlineto
          -450 -50 hlineto
          hintmask 1001001110000000
          38 -40 -54 22 -72 hhcurveto
          -257 -98 -180 -190 -215 84 -155 224 96 69 32 51 48 hvcurveto
          hintmask 0011100110000000
          -73 vlineto
          -202 626 rmoveto
          128 74 -93 -155 hvcurveto
          -25 vlineto
          -2 -84 -20 -106 -35 -34 rrcurveto
          -27 -27 -40 -8 -53 hhcurveto
          -135 -72 98 162 86 19 116 38 35 hvcurveto
          26 28 42 9 55 hhcurveto
          endchar
        </CharString>
        <CharString name="Oacute">
          -18 callgsubr
          0 24 190 -20 -7 callsubr
          389 137 hintmask 11011100
          702 360 -106 callsubr
          111 318 -61 callsubr
          hintmask 10111100
          -99 callgsubr
        </CharString>
        <CharString name="Obreve">
          -18 callgsubr
          33 86 64 -20 hstem
          -9 callsubr
          389 137 vstem
          702 360 -106 callsubr
          115 287 -102 callsubr
        </CharString>
        <CharString name="Ocircumflex">
          -18 callgsubr
          188 -20 hstem
          -9 callsubr
          389 137 vstem
          702 360 -106 callsubr
          -41 292 -98 callgsubr
        </CharString>
        <CharString name="Odieresis">
          -18 callgsubr
          27 131 hstem
          -9 callsubr
          8 -11 callsubr
          25 137 vstem
          702 360 -106 callsubr
          -33 193 -103 callgsubr
        </CharString>
        <CharString name="Ograve">
          -18 callgsubr
          0 25 190 -20 -7 callsubr
          389 137 hintmask 11011100
          702 360 -106 callsubr
          -151 233 -3 callsubr
          hintmask 10111100
          -73 callsubr
        </CharString>
        <CharString name="Ohorn">
          -18 callgsubr
          66 -20 -7 callsubr
          389 137 -9 112 hintmask 11111000
          702 360 rmoveto
          89 -15 79 -33 61 vhcurveto
          hintmask 11110100
          73 19 78 44 89 -26 callsubr
          -59 -36 -20 -41 -10 vhcurveto
          54 -49 -72 32 -101 hhcurveto
          -257 -98 -180 -190 -215 84 -155 224 hvcurveto
          hintmask 11111000
          257 98 180 190 hvcurveto
          -344 266 rmoveto
          135 72 -98 -162 -86 -20 -115 -37 -36 hvcurveto
          -27 -28 -42 -8 -55 hhcurveto
          -135 -72 98 162 86 19 116 38 35 hvcurveto
          26 28 42 9 55 hhcurveto
          endchar
        </CharString>
        <CharString name="Ohungarumlaut">
          -18 callgsubr
          226 -20 hstem
          -9 callsubr
          389 137 vstem
          702 360 -106 callsubr
          -27 330 -88 callgsubr
        </CharString>
        <CharString name="Omacron">
          -18 callgsubr
          62 97 hstem
          -9 callsubr
          389 137 vstem
          702 360 -106 callsubr
          -132 166 -67 callsubr
        </CharString>
        <CharString name="Oslash">
          97 -40 -21 51 104 532 104 57 -20 hstem
          -9 callsubr
          389 137 vstem
          -80 callsubr
          endchar
        </CharString>
        <CharString name="Oslashacute">
          97 -40 -21 51 104 532 104 0 24 190 -20 -7 callsubr
          389 137 hintmask 11101110
          -80 callsubr
          98 318 -61 callsubr
          hintmask 11011110
          -99 callgsubr
        </CharString>
        <CharString name="Otilde">
          -18 callgsubr
          30 104 -67 67 -7 callsubr
          389 137 hintmask 11011100
          702 360 -106 callsubr
          -67 171 rmoveto
          hintmask 11101100
          -93 callgsubr
          hintmask 11011100
          -97 callsubr
        </CharString>
        <CharString name="P">
          -38 21 -21 274 100 246 100 hstem
          -62 callgsubr
          181 137 vstem
          252 620 rmoveto
          61 hlineto
          63 57 -20 -81 -67 -9 -36 -25 -21 hvcurveto
          -20 -24 -38 -1 -31 hhcurveto
          -54 hlineto
          -127 -248 rmoveto
          -52 callgsubr
          13 callsubr
          -13 callgsubr
          148 57 vlineto
          129 132 95 165 148 -99 38 -149 hvcurveto
          -274 -79 hlineto
          -28 callsubr
          25 -5 4 -8 -25 vvcurveto
          endchar
        </CharString>
        <CharString name="Q">
          -210 106 -45 45 -45 100 39 104 532 104 -7 callsubr
          389 137 hintmask 01011110
          239 -162 rmoveto
          6 24 24 7 27 hhcurveto
          hintmask 10011110
          99 85 -61 100 hhcurveto
          42 49 19 32 33 hvcurveto
          -22 77 rlineto
          -12 -25 -31 -10 -31 hhcurveto
          hintmask 00111110
          -65 -99 55 -106 hhcurveto
          -63 -33 -14 -19 -38 hvcurveto
          493 442 -106 callsubr
          endchar
        </CharString>
        <CharString name="R">
          51 0 94 -83 -21 630 100 -58 callgsubr
          177 137 hintmask 01111000
          -85 callsubr
          hintmask 10111000
          -95 callsubr
          endchar
        </CharString>
        <CharString name="Racute">
          25 callsubr
          190 -39 callsubr
          177 137 hintmask 01101111
          -85 callsubr
          hintmask 10010111
          -95 callsubr
          137 818 -61 callsubr
          hintmask 10101111
          -99 callgsubr
        </CharString>
        <CharString name="Rcaron">
          25 callsubr
          174 -39 callsubr
          177 137 hintmask 01101111
          -85 callsubr
          hintmask 10010111
          -95 callsubr
          hintmask 10101111
          98 628 -84 callsubr
        </CharString>
        <CharString name="Rcommaaccent">
          51 -48 callsubr
          32 94 -83 -21 630 100 -58 callgsubr
          47 39 -39 152 -22 137 hintmask 1101111010000000
          -85 callsubr
          hintmask 1110111010000000
          -95 callsubr
          hintmask 1110110100000000
          199 -231 -104 callsubr
        </CharString>
        <CharString name="S">
          -40 -10 9 callgsubr
          3 callsubr
          hintmask 01011100
          -89 callgsubr
          hintmask 10101100
          -96 callgsubr
          endchar
        </CharString>
        <CharString name="Sacute">
          -40 -10 96 451 192 -93 93 0 25 190 -20 3 callsubr
          hintmask 10101110
          -89 callgsubr
          hintmask 11001110
          -96 callgsubr
          225 828 -61 callsubr
          hintmask 10011110
          -99 callgsubr
        </CharString>
        <CharString name="Scaron">
          -40 -10 96 451 192 -93 93 0 25 174 -20 3 callsubr
          hintmask 10101110
          -89 callgsubr
          hintmask 11001110
          -96 callgsubr
          hintmask 10011110
          181 638 -84 callsubr
        </CharString>
        <CharString name="Scedilla">
          -40 -235 56 170 95 451 192 -93 93 hstemhm
          48 132 103 88 41 129 hintmask 11011110
          155 207 rmoveto
          -100 hlineto
          -12 -171 57 -22 45 -16 70 -6 rlinecurve
          -19 -89 57 -13 rlineto
          -94 callgsubr
          48 vlineto
          164 7 87 85 119 vvcurveto
          131 -89 44 -95 34 vhcurveto
          -85 30 rlineto
          -65 24 -27 34 52 vvcurveto
          59 33 26 63 37 36 -6 -14 35 vhcurveto
          hintmask 11101110
          -96 callgsubr
          endchar
        </CharString>
        <CharString name="Scircumflex">
          -40 -10 9 callgsubr
          189 -20 3 callsubr
          hintmask 01011110
          -89 callgsubr
          hintmask 10101110
          -96 callgsubr
          hintmask 01101110
          73 802 -98 callgsubr
        </CharString>
        <CharString name="Scommaaccent">
          -40 -48 callsubr
          22 9 callgsubr
          hstemhm
          48 132 13 152 67 129 hintmask 1101011110000000
          -89 callgsubr
          hintmask 1110101110000000
          -96 callgsubr
          hintmask 1101101110000000
          177 -221 -104 callsubr
        </CharString>
        <CharString name="T">
          7 21 -21 523 -5 callsubr
          hintmask 10110000
          -34 callsubr
          hintmask 11010000
          -61 callgsubr
          hintmask 10110000
          25 3 11 4 23 hhcurveto
          103 -494 hlineto
          -87 callsubr
          494 vlineto
          endchar
        </CharString>
        <CharString name="Tbar">
          7 21 -21 304 108 111 -5 callsubr
          hintmask 11011000
          -34 callsubr
          hintmask 11101000
          -61 callgsubr
          hintmask 11011000
          25 3 11 4 23 hhcurveto
          103 -208 -143 -108 143 -178 hlineto
          -87 callsubr
          178 142 108 -142 208 vlineto
          endchar
        </CharString>
        <CharString name="Tcaron">
          7 21 -21 523 197 -100 100 0 34 174 -20 hstemhm
          250 127 hintmask 10101100
          -34 callsubr
          hintmask 11001100
          -61 callgsubr
          hintmask 10101100
          25 3 11 4 23 hhcurveto
          103 -494 hlineto
          -87 callsubr
          494 vlineto
          hintmask 10011100
          -10 134 -84 callsubr
        </CharString>
        <CharString name="Tcedilla">
          7 -235 56 200 -21 523 -5 callsubr
          -47 88 hintmask 11011000
          -34 callsubr
          hintmask 11101000
          -61 callgsubr
          hintmask 11011000
          -49 callsubr
          95 vlineto
          -21 -97 57 -13 rlineto
          hintmask 11100100
          -94 callgsubr
          57 121 79 vlineto
          -52 9 rlineto
          hintmask 11011000
          -4 callsubr
          endchar
        </CharString>
        <CharString name="Tcommaaccent">
          7 3 callgsubr
          523 -5 callsubr
          -127 142 -142 208 hintmask 11101100
          -34 callsubr
          hintmask 11110100
          -61 callgsubr
          hintmask 11101100
          -49 callsubr
          vlineto
          hintmask 11110001
          289 79 hlineto
          -52 9 rlineto
          hintmask 11101100
          -4 callsubr
          hintmask 11110010
          15 -725 -104 callsubr
        </CharString>
        <CharString name="Thorn">
          -49 21 -21 180 93 227 91 -91 220 hstemhm
          127 125 174 133 hintmask 11101100
          329 79 rmoveto
          -48 9 rlineto
          -25 4 -4 9 25 vvcurveto
          54 51 vlineto
          125 131 84 153 135 -95 39 -140 hvcurveto
          -72 3 hlineto
          -62 callsubr
          hintmask 11011100
          -42 callsubr
          50 -9 rlineto
          10 callsubr
          -468 vlineto
          -25 -4 -10 -25 -30 callsubr
          -79 281 vlineto
          -77 273 rmoveto
          227 63 vlineto
          57 54 -16 -75 -63 -8 -37 -24 -17 hvcurveto
          -18 -24 -43 -1 -27 hhcurveto
          endchar
        </CharString>
        <CharString name="U">
          -21 callsubr
          hstem
          95 127 285 123 vstem
          -107 callsubr
          endchar
        </CharString>
        <CharString name="Uacute">
          105 -10 105 625 34 190 -20 hstem
          95 127 285 123 vstem
          -107 callsubr
          -169 712 -61 callsubr
          -99 callgsubr
        </CharString>
        <CharString name="Ubreve">
          -21 callsubr
          63 86 64 -20 hstem
          95 127 285 123 vstem
          -107 callsubr
          -165 681 -102 callsubr
        </CharString>
        <CharString name="Ucircumflex">
          -21 callsubr
          218 -20 hstem
          95 127 285 123 vstem
          -107 callsubr
          -321 686 -98 callgsubr
        </CharString>
        <CharString name="Udieresis">
          -21 callsubr
          57 131 hstemhm
          95 127 -38 115 -115 -11 callsubr
          -110 110 -33 123 hintmask 1111000010000000
          630 24 callgsubr
          -64 callsubr
          vlineto
          hintmask 1111000100000000
          -277 -79 hlineto
          -28 callsubr
          hintmask 1111000010000000
          -81 callsubr
          -18 -23 -37 -4 -32 hhcurveto
          -81 -80 32 121 hvcurveto
          346 vlineto
          -42 callgsubr
          hintmask 1110101000000000
          -82 callgsubr
          hintmask 1111000010000000
          10 callsubr
          -362 vlineto
          -155 88 -87 169 131 147 65 177 vhcurveto
          hintmask 1110011000000000
          -305 587 -103 callgsubr
        </CharString>
        <CharString name="Ugrave">
          -21 callsubr
          245 -20 hstem
          95 127 285 123 vstem
          -107 callsubr
          -431 627 -3 callsubr
          -73 callsubr
        </CharString>
        <CharString name="Uhorn">
          188 -10 105 625 -20 136 -20 hstem
          95 127 285 123 83 112 vstem
          630 24 callgsubr
          12 1 9 4 6 vhcurveto
          79 12 111 43 105 -26 callsubr
          -23 -6 -17 -9 -13 vhcurveto
          -268 -79 hlineto
          -28 callsubr
          -81 callsubr
          -18 -23 -37 -4 -32 hhcurveto
          -81 -80 32 121 hvcurveto
          346 vlineto
          25 4 10 25 3 -83 callgsubr
          -4 4 -9 -25 vvcurveto
          -362 vlineto
          -155 88 -87 169 131 147 65 177 vhcurveto
          endchar
        </CharString>
        <CharString name="Uhungarumlaut">
          -21 callsubr
          256 -20 hstem
          95 127 285 123 vstem
          -107 callsubr
          -307 724 -88 callgsubr
        </CharString>
        <CharString name="Umacron">
          -21 callsubr
          92 97 hstem
          95 127 285 123 vstem
          -107 callsubr
          -412 560 -67 callsubr
        </CharString>
        <CharString name="Uogonek">
          105 -230 75 146 104 -74 -22 callgsubr
          -20 hstemhm
          95 127 9 91 185 123 hintmask 10111110
          231 -126 rmoveto
          -94 callsubr
          -15 callsubr
          -1 hlineto
          101 24 90 70 138 vvcurveto
          362 vlineto
          -64 callsubr
          -277 -79 vlineto
          -28 callsubr
          -81 callsubr
          hintmask 11011110
          -18 -23 -37 -4 -32 hhcurveto
          -81 -80 32 121 hvcurveto
          346 vlineto
          25 4 10 25 3 -83 callgsubr
          -4 4 -9 -25 vvcurveto
          -362 vlineto
          -146 78 -86 150 -9 vhcurveto
          -48 -33 -44 -28 -56 vvcurveto
          endchar
        </CharString>
        <CharString name="Uring">
          -21 callsubr
          47 62 78 63 hstem
          95 127 30 70 81 70 34 123 vstem
          -107 callsubr
          -157 618 -99 callsubr
          endchar
        </CharString>
        <CharString name="Utilde">
          -21 callsubr
          60 104 -67 67 hstemhm
          95 127 285 123 hintmask 11011100
          -107 callsubr
          -339 565 rmoveto
          hintmask 11101100
          -93 callgsubr
          hintmask 11011100
          -97 callsubr
        </CharString>
        <CharString name="V">
          81 -41 callgsubr
          hstem
          372 159 rmoveto
          -11 53 -130 382 rlineto
          -3 9 -2 6 6 vvcurveto
          13 9 5 20 3 vhcurveto
          48 6 rlineto
          78 -301 -79 vlineto
          30 -4 26 -3 20 -4 13 -36 rlinecurve
          214 -594 rlineto
          119 hlineto
          195 594 12 36 10 4 26 3 rlinecurve
          32 4 rlineto
          79 -278 -78 vlineto
          48 -6 rlineto
          21 -3 10 -6 -14 vvcurveto
          -5 -2 -7 -2 -7 vhcurveto
          -117 -383 rlineto
          endchar
        </CharString>
        <CharString name="W">
          361 21 -21 720 -75 callgsubr
          endchar
        </CharString>
        <CharString name="Wacute">
          361 21 -21 636 118 -34 -20 244 -79 callgsubr
          98 497 -61 callsubr
          hintmask 11010000
          -99 callgsubr
        </CharString>
        <CharString name="Wcircumflex">
          361 -41 callgsubr
          218 -75 callgsubr
          -54 471 -98 callgsubr
        </CharString>
        <CharString name="Wgrave">
          361 21 -21 636 116 -32 -20 242 -79 callgsubr
          -172 409 -3 callsubr
          hintmask 11010000
          -73 callsubr
        </CharString>
        <CharString name="X">
          107 -41 callgsubr
          hstem
          280 380 rmoveto
          -172 -254 -20 -29 -12 -10 -26 -3 rlinecurve
          -46 -5 rlineto
          -79 291 78 vlineto
          -43 6 rlineto
          -15 2 -6 4 9 vvcurveto
          7 5 9 7 11 vhcurveto
          104 164 122 -164 rlineto
          7 -9 3 -7 -6 vvcurveto
          -12 -12 -6 -16 -2 vhcurveto
          -42 -6 rlineto
          -78 314 79 vlineto
          -47 5 -21 2 -14 16 -18 24 rlinecurve
          -178 240 153 228 20 30 11 9 26 3 rlinecurve
          46 5 rlineto
          79 -274 -78 vlineto
          33 -6 rlineto
          12 -2 7 -4 -7 vvcurveto
          -7 -6 -10 -8 -12 vhcurveto
          -88 -137 -101 137 rlineto
          -9 12 -5 9 7 vvcurveto
          8 7 4 14 2 vhcurveto
          37 6 rlineto
          78 -294 -79 vlineto
          47 -5 23 -2 5 -12 21 -28 rlinecurve
          endchar
        </CharString>
        <CharString name="Y">
          29 callsubr
          hstem
          285 127 vstem
          -105 callgsubr
          endchar
        </CharString>
        <CharString name="Yacute">
          80 -46 callsubr
          34 190 -20 hstem
          285 127 vstem
          -105 callgsubr
          37 706 -61 callsubr
          -99 callgsubr
        </CharString>
        <CharString name="Ycircumflex">
          29 callsubr
          218 -20 hstem
          285 127 vstem
          -105 callgsubr
          -115 680 -98 callgsubr
        </CharString>
        <CharString name="Ydieresis">
          29 callsubr
          57 131 hstemhm
          170 129 -129 141 -26 127 -27 141 -112 112 hintmask 11110001
          604 24 callgsubr
          16 29 5 8 29 5 44 5 rcurveline
          79 -284 -79 vlineto
          35 -6 rlineto
          24 -4 11 -3 -12 vvcurveto
          -5 -2 -8 -5 -9 vhcurveto
          -116 -234 -121 234 rlineto
          -5 10 -4 7 6 vvcurveto
          12 13 4 20 3 vhcurveto
          35 6 rlineto
          78 -297 -79 vlineto
          44 -5 24 -3 10 -10 16 -29 rlinecurve
          hintmask 11100101
          189 -346 rlineto
          -122 vlineto
          -87 callsubr
          112 vlineto
          hintmask 11101010
          -101 581 -103 callgsubr
        </CharString>
        <CharString name="Ygrave">
          80 -46 callsubr
          35 190 -20 hstem
          285 127 vstem
          -105 callgsubr
          -225 621 -3 callsubr
          -73 callsubr
        </CharString>
        <CharString name="Ytilde">
          29 callsubr
          60 104 -67 67 hstemhm
          285 127 hintmask 11011000
          -105 callgsubr
          -133 559 rmoveto
          hintmask 11101000
          -93 callgsubr
          hintmask 11011000
          -97 callsubr
        </CharString>
        <CharString name="Z">
          -1 0 4 callsubr
          317 200 -101 101 hstemhm
          hintmask 10010000
          -34 callgsubr
          hintmask 01100000
          -57 callsubr
          hintmask 10100000
          -17 callsubr
          hintmask 10010000
          25 2 12 4 24 hhcurveto
          endchar
        </CharString>
        <CharString name="Zacute">
          31 callgsubr
          190 -20 hstemhm
          hintmask 10101000
          -34 callgsubr
          -7 203 rlineto
          -87 hlineto
          -7 -70 rlineto
          8 callgsubr
          hintmask 11001000
          7 -200 rlineto
          87 hlineto
          7 70 rlineto
          hintmask 10101000
          25 2 12 4 24 hhcurveto
          211 325 -61 callsubr
          hintmask 10011000
          -99 callgsubr
        </CharString>
        <CharString name="Zcaron">
          31 callgsubr
          174 -20 hstemhm
          hintmask 10101000
          -34 callgsubr
          -7 203 rlineto
          -87 hlineto
          -7 -70 rlineto
          8 callgsubr
          hintmask 11001000
          7 -200 rlineto
          87 hlineto
          7 70 rlineto
          hintmask 10101000
          25 2 12 4 24 hhcurveto
          hintmask 10011000
          167 135 -84 callsubr
        </CharString>
        <CharString name="Zdotaccent">
          -1 0 4 callsubr
          317 200 -101 101 47 155 hstemhm
          230 165 hintmask 10011100
          -34 callgsubr
          hintmask 01101100
          -57 callsubr
          hintmask 10101100
          -17 callsubr
          hintmask 10011100
          25 2 12 4 24 hhcurveto
          197 221 rmoveto
          -100 callgsubr
        </CharString>
        <CharString name="a">
          -64 callgsubr
          -32 callgsubr
          hintmask 10101100
          -95 callgsubr
          hintmask 10011100
          -103 callsubr
          hintmask 01101100
          -91 callsubr
          hintmask 10101100
          -89 callsubr
          endchar
        </CharString>
        <CharString name="aacute">
          -64 callgsubr
          0 59 203 20 callgsubr
          hintmask 10100111
          -95 callgsubr
          hintmask 10010111
          -103 callsubr
          hintmask 01100111
          -91 callsubr
          hintmask 10001111
          -89 callsubr
          132 563 -52 callsubr
          -98 callsubr
        </CharString>
        <CharString name="abreve">
          -64 callgsubr
          78 86 64 20 callgsubr
          hintmask 10101111
          -95 callgsubr
          hintmask 10011111
          -103 callsubr
          hintmask 01101111
          -91 callsubr
          hintmask 10101111
          -89 callsubr
          144 529 -102 callsubr
        </CharString>
        <CharString name="acircumflex">
          -64 callgsubr
          248 20 callgsubr
          hintmask 10101110
          -95 callgsubr
          hintmask 10011110
          -103 callsubr
          hintmask 01101110
          -91 callsubr
          hintmask 10101110
          -89 callsubr
          -12 549 -88 callsubr
        </CharString>
        <CharString name="acute">
          -335 585 -21 203 -20 hstem
          171 767 -52 callsubr
          -98 callsubr
        </CharString>
        <CharString name="acute.case">
          -364 775 -21 190 -20 hstem
          185 944 -61 callsubr
          -99 callgsubr
        </CharString>
        <CharString name="adieresis">
          -64 callgsubr
          62 131 -8 callsubr
          -92 152 74 152 -120 120 hintmask 1010110010000000
          -95 callgsubr
          hintmask 1001110010000000
          -103 callsubr
          hintmask 0110110010000000
          -91 callsubr
          hintmask 1010110010000000
          -89 callsubr
          hintmask 1010101100000000
          4 425 -103 callgsubr
        </CharString>
        <CharString name="ae">
          176 -10 89 251 165 -89 89 -8 callsubr
          166 122 12 callsubr
          hintmask 11011100
          759 -68 callgsubr
          hintmask 10111100
          90 11 14 25 83 hhcurveto
          69 15 -48 -51 1 hvcurveto
          -313 -95 rmoveto
          -78 vlineto
          -89 callsubr
          endchar
        </CharString>
        <CharString name="aeacute">
          184 -10 89 251 165 -89 89 0 34 callgsubr
          44 123 166 122 12 callsubr
          hintmask 11001111
          763 -68 callgsubr
          hintmask 10101111
          90 11 14 25 83 hhcurveto
          69 15 -48 -51 1 hvcurveto
          -313 -95 rmoveto
          -78 vlineto
          -89 callsubr
          248 573 -52 callsubr
          hintmask 10011111
          -98 callsubr
        </CharString>
        <CharString name="agrave">
          -64 callgsubr
          0 59 203 20 callgsubr
          hintmask 10100111
          -95 callgsubr
          hintmask 10010111
          -103 callsubr
          hintmask 01100111
          -91 callsubr
          hintmask 10001111
          -89 callsubr
          -123 486 -20 callgsubr
          -73 callgsubr
        </CharString>
        <CharString name="amacron">
          -64 callgsubr
          107 97 -32 callgsubr
          hintmask 10101110
          -95 callgsubr
          hintmask 10011110
          -103 callsubr
          hintmask 01101110
          -91 callsubr
          hintmask 10101110
          -89 callsubr
          -103 408 -67 callsubr
        </CharString>
        <CharString name="ampersand">
          117 -11 106 -84 -21 549 191 -86 86 hstemhm
          39 141 -54 136 0 151 hintmask 10011010
          618 288 rmoveto
          -90 -60 -160 196 rlineto
          -39 45 -67 68 56 vvcurveto
          30 21 21 33 42 35 -11 -13 20 vhcurveto
          hintmask 10101010
          -81 100 vlineto
          18 141 rlineto
          24 -47 -69 26 -85 hhcurveto
          hintmask 10100100
          -164 -40 -81 -55 -71 41 -37 46 -63 hvcurveto
          -97 -83 rlineto
          hintmask 10101010
          -43 -37 -34 -41 -92 vvcurveto
          -68 40 -113 162 114 99 74 25 34 vhcurveto
          hintmask 01101010
          -57 50 34 -41 65 hhcurveto
          36 22 9 11 20 hvcurveto
          10 91 rlineto
          -3 -8 -18 -5 -19 hhcurveto
          -30 -27 21 28 -24 hvcurveto
          -14 16 68 52 rlineto
          -229 -49 rmoveto
          hintmask 10101010
          -16 -19 -72 -50 -53 hhcurveto
          -71 -29 46 47 52 24 23 29 29 hvcurveto
          46 45 rlineto
          endchar
        </CharString>
        <CharString name="aogonek">
          -76 -230 75 145 90 -59 -21 330 165 -83 83 -8 callsubr
          150 26 callsubr
          hintmask 1011011000000000
          313 -126 rmoveto
          -94 callsubr
          hintmask 1011010100000000
          -15 callsubr
          -9 callgsubr
          hintmask 1101010010000000
          -18 2 -4 8 18 vvcurveto
          242 vlineto
          104 -97 40 -104 -61 -36 -12 -30 -84 vhcurveto
          9 -123 rlineto
          79 hlineto
          12 66 rlineto
          hintmask 1100110010000000
          -103 callsubr
          hintmask 1011011000000000
          8 -59 rlineto
          75 hlineto
          -12 callgsubr
          hintmask 1101010010000000
          16 338 rmoveto
          -78 vlineto
          -89 callsubr
          endchar
        </CharString>
        <CharString name="aring">
          -64 callgsubr
          62 62 78 63 2 callsubr
          hintmask 1010111001000000
          -95 callgsubr
          hintmask 1001111001000000
          -103 callsubr
          hintmask 0110111001000000
          -91 callsubr
          hintmask 1010111001000000
          -89 callsubr
          hintmask 1010110110000000
          152 466 -99 callsubr
          endchar
        </CharString>
        <CharString name="aringacute">
          -64 callgsubr
          62 62 78 63 0 30 190 -20 2 callsubr
          hintmask 1010110110010000
          -95 callgsubr
          hintmask 1001110110010000
          -103 callsubr
          hintmask 0110110110010000
          -91 callsubr
          hintmask 1010110110010000
          -89 callsubr
          hintmask 1010110101100000
          152 466 -99 callsubr
          27 318 -61 callsubr
          hintmask 1010101110100000
          -99 callgsubr
        </CharString>
        <CharString name="asciicircum">
          -41 349 -21 392 -20 hstem
          235 720 rmoveto
          -185 -352 83 -40 152 288 157 -288 87 50 -189 342 rlineto
          endchar
        </CharString>
        <CharString name="asciitilde">
          -50 175 102 -46 46 hstemhm
          hintmask 01000000
          195 231 rmoveto
          hintmask 10000000
          56 59 -56 61 hhcurveto
          47 54 38 33 31 hvcurveto
          -17 69 rlineto
          -16 -29 -42 -22 -35 hhcurveto
          hintmask 01000000
          -50 -57 56 -65 hhcurveto
          -50 -54 -44 -34 -38 hvcurveto
          18 -69 rlineto
          16 30 45 29 36 hhcurveto
          endchar
        </CharString>
        <CharString name="asterisk">
          -236 480 -21 336 -20 hstem
          130 634 rmoveto
          -112 -55 18 -28 18 -30 33 -6 24 23 rlinecurve
          43 41 -11 -120 rlineto
          33 hlineto
          33 25 20 37 -9 hvcurveto
          -15 61 101 -71 16 27 18 29 -7 31 -36 12 rlinecurve
          -57 18 110 51 -17 28 -17 29 -34 8 -24 -23 rlinecurve
          -44 -41 11 120 rlineto
          -33 hlineto
          -33 -25 -20 -38 9 hvcurveto
          15 -60 -101 70 -16 -28 -17 -29 6 -33 36 -9 rlinecurve
          endchar
        </CharString>
        <CharString name="at">
          197 -86 99 90 98 183 87 96 98 hstem
          38 115 71 108 344 109 vstem
          526 444 rmoveto
          17 -28 -33 10 -35 hhcurveto
          -61 -50 -29 -35 -32 hvcurveto
          -31 -33 -32 -71 -68 vvcurveto
          -71 59 -61 66 47 62 38 29 38 vhcurveto
          -30 18 28 -27 36 hhcurveto
          107 100 115 155 147 -108 135 -212 -165 -87 -62 -58 -56 hvcurveto
          -44 -45 -75 -111 -171 vvcurveto
          -186 155 -118 168 185 135 78 25 44 vhcurveto
          -40 61 rlineto
          -34 -81 -114 -31 -104 hhcurveto
          -118 -115 69 158 133 74 125 57 32 hvcurveto
          27 42 79 10 50 hhcurveto
          117 104 -63 -126 -95 -39 -82 -45 -13 -17 12 34 5 hvcurveto
          33 214 rlineto
          -122 -209 rmoveto
          -21 -25 -52 -29 -26 hhcurveto
          -13 -30 5 43 56 21 41 13 15 hvcurveto
          13 13 20 9 23 hhcurveto
          46 -1 25 -19 0 vvcurveto
          endchar
        </CharString>
        <CharString name="atilde">
          -64 callgsubr
          65 104 -67 67 -32 callgsubr
          hintmask 10101011
          -95 callgsubr
          hintmask 10011011
          -103 callsubr
          hintmask 01101011
          -91 callsubr
          hintmask 10100111
          -89 callsubr
          -45 403 rmoveto
          hintmask 10101011
          -93 callgsubr
          hintmask 10100111
          -97 callsubr
        </CharString>
        <CharString name="b">
          -57 -10 89 326 90 285 -20 hstemhm
          -2 199 -120 120 204 128 hintmask 11110100
          197 367 rmoveto
          18 16 36 20 44 hhcurveto
          60 48 -49 -106 -60 -9 -55 -22 -28 hvcurveto
          -18 -14 -31 -10 -34 hhcurveto
          -29 -35 9 23 -30 hvcurveto
          hintmask 11101100
          -120 -75 rmoveto
          -30 58 66 -16 73 hhcurveto
          169 86 118 154 145 -89 88 -115 -50 -52 -26 -24 -26 hvcurveto
          335 vlineto
          hintmask 11110100
          -199 -74 hlineto
          57 -6 rlineto
          hintmask 11101100
          -100 callsubr
          endchar
        </CharString>
        <CharString name="backslash">
          -185 -123 -21 864 -20 hstem
          13 720 rmoveto
          304 -864 rlineto
          116 hlineto
          -304 864 rlineto
          endchar
        </CharString>
        <CharString name="bar">
          -315 -219 -21 1032 -20 hstem
          100 105 vstem
          100 792 rmoveto
          -1032 105 1032 vlineto
          endchar
        </CharString>
        <CharString name="braceleft">
          27 callgsubr
          125 119 -119 214 cntrmask 11100000
          hintmask 11101000
          52 232 rmoveto
          55 18 -54 -87 hvcurveto
          -221 vlineto
          -60 40 -52 71 vhcurveto
          103 79 -37 hlineto
          hintmask 11110000
          -49 -9 29 50 hvcurveto
          192 vlineto
          77 -40 80 -53 4 vhcurveto
          53 4 40 80 77 vvcurveto
          192 vlineto
          50 9 29 49 vhcurveto
          hintmask 11101000
          37 79 -103 hlineto
          -71 -40 -52 -60 hvcurveto
          -221 vlineto
          -87 -18 -54 -55 vhcurveto
          endchar
        </CharString>
        <CharString name="braceright">
          27 callgsubr
          53 214 -119 119 cntrmask 11100000
          hintmask 11110000
          340 306 rmoveto
          -55 -18 54 87 hvcurveto
          221 vlineto
          60 -40 52 -71 vhcurveto
          -103 -79 37 hlineto
          hintmask 11101000
          49 9 -29 -50 hvcurveto
          -192 vlineto
          -77 40 -80 53 -4 vhcurveto
          -53 -4 -40 -80 -77 vvcurveto
          -192 vlineto
          -50 -9 -29 -49 vhcurveto
          hintmask 11110000
          -37 -79 103 hlineto
          71 40 52 60 hvcurveto
          221 vlineto
          87 18 54 55 vhcurveto
          endchar
        </CharString>
        <CharString name="bracketleft">
          -232 -240 96 828 96 hstem
          100 115 vstem
          355 780 rmoveto
          -255 -1020 255 96 -140 828 140 hlineto
          endchar
        </CharString>
        <CharString name="bracketright">
          -232 -240 96 828 96 hstem
          173 115 vstem
          33 684 rmoveto
          140 -828 -140 -96 255 1020 -255 hlineto
          endchar
        </CharString>
        <CharString name="breve">
          -244 573 86 64 -20 hstem
          295 723 -102 callsubr
        </CharString>
        <CharString name="brokenbar">
          -320 -219 -21 1030 -20 hstem
          93 114 vstem
          93 790 rmoveto
          -387 114 387 vlineto
          -114 -643 rmoveto
          -387 114 387 vlineto
          endchar
        </CharString>
        <CharString name="bullet">
          -192 229 -21 258 -20 hstem
          353 329 rmoveto
          88 -20 49 -104 -127 -27 -49 -93 -76 34 -40 90 114 40 24 97 vhcurveto
          endchar
        </CharString>
        <CharString name="c">
          9 callsubr
          21 callgsubr
          hintmask 10110000
          -84 callgsubr
          hintmask 11010000
          -70 callsubr
          -33 callgsubr
          hvcurveto
          endchar
        </CharString>
        <CharString name="cacute">
          36 callgsubr
          58 203 -20 21 callgsubr
          hintmask 01101100
          -84 callgsubr
          -70 callsubr
          hvcurveto
          hintmask 10011100
          -33 callgsubr
          vhcurveto
          -118 721 -52 callsubr
          -98 callsubr
        </CharString>
        <CharString name="caron">
          -267 581 -21 194 -20 hstem
          232 560 -77 callgsubr
        </CharString>
        <CharString name="caron.case">
          -364 775 -21 174 -20 hstem
          183 754 -84 callsubr
        </CharString>
        <CharString name="ccaron">
          36 callgsubr
          65 194 -20 21 callgsubr
          hintmask 01101100
          -84 callgsubr
          -70 callsubr
          hvcurveto
          hintmask 10011100
          -33 callgsubr
          vhcurveto
          -143 525 -77 callgsubr
        </CharString>
        <CharString name="ccedilla">
          -131 -235 56 170 88 241 175 -89 89 21 callgsubr
          119 88 hintmask 11011100
          -84 callgsubr
          hintmask 11101100
          -70 callsubr
          -139 62 -80 118 -16 hvcurveto
          -20 -91 57 -13 rlineto
          -94 callgsubr
          48 vlineto
          72 5 53 25 37 14 rrcurveto
          endchar
        </CharString>
        <CharString name="ccircumflex">
          9 callsubr
          248 -20 21 callgsubr
          hintmask 10111000
          -84 callgsubr
          hintmask 11011000
          -70 callsubr
          -33 callgsubr
          hvcurveto
          -252 708 -88 callsubr
        </CharString>
        <CharString name="cdotaccent">
          9 callsubr
          62 155 21 callgsubr
          9 165 hintmask 10111100
          -84 callgsubr
          hintmask 11011100
          -70 callsubr
          -33 callgsubr
          hvcurveto
          -114 595 rmoveto
          -100 callgsubr
        </CharString>
        <CharString name="cedilla">
          -298 -235 56 192 -20 hstem
          184 88 vstem
          121 13 rmoveto
          -24 -110 57 -13 rlineto
          -94 callgsubr
          58 vlineto
          endchar
        </CharString>
        <CharString name="cent">
          -131 -38 217 231 174 -88 88 -88 215 21 callgsubr
          36 108 hintmask 10101100
          434 209 rmoveto
          -20 -72 -43 -10 -44 hhcurveto
          -75 -38 64 85 58 7 55 22 31 hvcurveto
          16 11 31 8 24 hhcurveto
          30 33 -4 -9 18 hvcurveto
          hintmask 11001100
          17 -73 rlineto
          79 hlineto
          9 133 -28 17 -55 20 -60 4 rlinecurve
          hintmask 10011100
          6 127 rlineto
          -111 hlineto
          6 -137 rlineto
          -105 -30 -62 -96 -124 vvcurveto
          -132 58 -78 112 -19 vhcurveto
          -6 -133 rlineto
          111 hlineto
          -6 130 65 7 47 23 35 13 rlinecurve
          endchar
        </CharString>
        <CharString name="circumflex">
          -267 570 -21 194 -20 hstem
          123 743 -88 callsubr
        </CharString>
        <CharString name="circumflex.case">
          -364 765 -21 174 -20 hstem
          74 918 -98 callgsubr
        </CharString>
        <CharString name="colon">
          -369 -10 155 195 -21 callgsubr
          63 rmoveto
          51 -9 31 -64 -80 -12 -31 -54 -54 28 -16 54 54 29 19 54 vhcurveto
          350 vmoveto
          -100 callgsubr
        </CharString>
        <CharString name="comma">
          -365 -126 -21 137 145 hstem
          43 169 vstem
          212 48 rmoveto
          57 -31 30 -62 -6 callsubr
          75 40 53 83 72 vvcurveto
          endchar
        </CharString>
        <CharString name="commaaccent">
          -364 -48 callsubr
          hstem
          51 152 vstem
          203 -105 -104 callsubr
        </CharString>
        <CharString name="copyright">
          212 -10 70 92 80 196 148 -80 80 104 70 hstemhm
          36 80 105 113 382 80 hintmask 11011111
          36 362 rmoveto
          -203 170 -169 209 211 170 169 203 211 -170 177 -211 -209 -170 -177 -211 vhcurveto
          80 hmoveto
          170 137 148 162 164 137 -148 -170 -162 -137 -140 -164 -162 -137 140 162 vhcurveto
          436 -105 rmoveto
          -17 -60 -33 -8 -36 hhcurveto
          -59 -30 53 71 51 5 47 19 27 hvcurveto
          10 8 23 5 19 hhcurveto
          25 28 -4 -6 16 hvcurveto
          hintmask 11101111
          13 -58 rlineto
          67 hlineto
          7 112 rlineto
          17 -26 -56 19 -57 hhcurveto
          -128 -76 -94 -130 -131 66 -69 126 70 48 25 13 34 hvcurveto
          endchar
        </CharString>
        <CharString name="currency">
          -73 75 -21 82 92 192 92 80 -20 hstem
          74 111 174 111 vstem
          470 324 rmoveto
          41 -12 36 -20 29 vhcurveto
          82 90 -86 72 -76 -97 rlineto
          11 -25 -30 6 -31 hhcurveto
          -31 -29 -6 -10 -25 hvcurveto
          -74 96 -86 -72 79 -88 rlineto
          -20 -30 -12 -37 -41 vvcurveto
          -43 12 -37 21 -30 vhcurveto
          -80 -88 86 -72 76 97 rlineto
          -10 25 28 -5 30 hhcurveto
          31 29 5 11 25 hvcurveto
          77 -98 86 72 -82 90 rlineto
          20 29 12 37 42 vvcurveto
          -111 hmoveto
          -59 -32 -37 -55 -55 -32 37 59 59 32 37 55 55 32 -37 -59 vhcurveto
          endchar
        </CharString>
        <CharString name="d">
          -34 -10 89 -58 -21 406 89 285 -20 hstemhm
          28 128 119 204 -120 120 hintmask 10111010
          359 137 -65 callsubr
          hintmask 10111100
          -84 402 rmoveto
          -74 vlineto
          62 -6 rlineto
          hintmask 10111010
          -100 callsubr
          -190 -59 callgsubr
          hintmask 01111100
          -90 callsubr
          671 vlineto
          endchar
        </CharString>
        <CharString name="dcaron">
          60 -10 89 -58 -21 406 89 141 127 17 -20 hstemhm
          28 128 119 204 -120 120 46 152 hintmask 1011010110000000
          677 -70 callgsubr
          -318 -553 -65 callsubr
          hintmask 1010111010000000
          -84 402 rmoveto
          -74 vlineto
          62 -6 rlineto
          hintmask 1011010110000000
          -100 callsubr
          -190 -59 callgsubr
          hintmask 0110111010000000
          -90 callsubr
          671 vlineto
          endchar
        </CharString>
        <CharString name="degree">
          -294 437 73 152 73 hstem
          6 88 138 88 vstem
          320 586 rmoveto
          88 -66 61 -91 -91 -66 -61 -88 -88 66 -61 91 91 66 61 88 vhcurveto
          -88 hmoveto
          -47 -25 -29 -44 -44 -25 29 47 47 25 29 44 44 25 -29 -47 vhcurveto
          endchar
        </CharString>
        <CharString name="dieresis">
          -73 567 131 hstem
          95 -11 callsubr
          vstem
          236 629 -103 callgsubr
        </CharString>
        <CharString name="divide">
          -98 0 137 57 97 57 137 hstem
          185 148 cntrmask 11100000
          333 412 rmoveto
          14 callgsubr
          -348 vmoveto
          14 callgsubr
          -293 130 rmoveto
          442 97 -442 hlineto
          endchar
        </CharString>
        <CharString name="dollar">
          -53 -122 222 -95 206 288 186 -92 92 -92 205 hstemhm
          46 132 37 109 76 129 hintmask 01100111
          153 211 rmoveto
          -100 hlineto
          -12 -166 56 -20 46 -16 75 -4 rlinecurve
          hintmask 10010111
          -5 -127 rlineto
          114 hlineto
          -6 130 rlineto
          137 17 71 76 104 vvcurveto
          125 -86 41 -93 32 vhcurveto
          -87 29 rlineto
          -60 21 -25 19 44 vvcurveto
          52 31 25 60 35 35 -7 -13 33 vhcurveto
          hintmask 10100111
          15 -74 rlineto
          97 hlineto
          14 160 -60 13 -59 10 -60 3 rlinecurve
          hintmask 10001111
          5 113 rlineto
          -114 hlineto
          5 -118 rlineto
          -114 -19 -55 -69 -88 vvcurveto
          -97 58 -60 81 -28 vhcurveto
          117 -41 rlineto
          81 -28 17 -19 -46 vvcurveto
          -57 -54 -28 -64 -56 -28 10 15 -32 vhcurveto
          endchar
        </CharString>
        <CharString name="dong">
          -35 -174 82 82 89 -58 -21 406 89 66 92 -92 219 hstemhm
          28 128 119 204 -120 120 hintmask 1101101100000000
          541 653 rmoveto
          -62 hlineto
          hintmask 1101011100000000
          127 -204 -74 vlineto
          62 -6 rlineto
          hintmask 1101101010000000
          -100 callsubr
          -19 -211 -92 211 -79 -59 callgsubr
          hintmask 1011101100000000
          -90 callsubr
          452 62 vlineto
          hintmask 1101101010000000
          -182 -424 -65 callsubr
          -313 -552 rmoveto
          506 82 -506 hlineto
          endchar
        </CharString>
        <CharString name="dotaccent">
          -369 555 -21 callgsubr
          628 rmoveto
          -100 callgsubr
        </CharString>
        <CharString name="dotbelow">
          -369 -207 -21 callgsubr
          -134 rmoveto
          -100 callgsubr
        </CharString>
        <CharString name="dotlessi">
          -314 -18 callsubr
          hstemhm
          26 -85 callgsubr
          hintmask 11100000
          29 callgsubr
          hintmask 11010000
          -100 callsubr
          -268 -86 callsubr
          hintmask 11100000
          -77 callsubr
          endchar
        </CharString>
        <CharString name="dotlessj">
          16 callgsubr
          -20 hstemhm
          25 -85 callgsubr
          hintmask 11100000
          28 callgsubr
          hintmask 11010000
          -25 callgsubr
          hintmask 11100000
          -33 callsubr
          endchar
        </CharString>
        <CharString name="dslash">
          -34 -10 89 -58 -21 406 89 66 92 -92 219 hstemhm
          28 128 119 204 -120 120 hintmask 10110110
          541 653 rmoveto
          -62 hlineto
          hintmask 10101110
          127 -204 -74 vlineto
          62 -6 rlineto
          hintmask 10110101
          -100 callsubr
          -19 -211 -92 211 -79 -59 callgsubr
          hintmask 01110110
          -90 callsubr
          452 62 vlineto
          hintmask 10110101
          -182 -424 -65 callsubr
          endchar
        </CharString>
        <CharString name="e">
          -113 -51 callgsubr
          hstem
          -23 callsubr
          12 callsubr
          vstem
          -104 callgsubr
          endchar
        </CharString>
        <CharString name="eacute">
          -113 -51 callgsubr
          0 59 203 -20 21 callgsubr
          12 callsubr
          hintmask 11011100
          -104 callgsubr
          -4 450 -52 callsubr
          hintmask 10111100
          -98 callsubr
        </CharString>
        <CharString name="ebreve">
          -113 -51 callgsubr
          83 86 64 -20 hstem
          -23 callsubr
          12 callsubr
          vstem
          -104 callgsubr
          6 421 -102 callsubr
        </CharString>
        <CharString name="ecaron">
          -113 -51 callgsubr
          0 70 194 -20 21 callgsubr
          12 callsubr
          hintmask 11011100
          -104 callgsubr
          hintmask 10111100
          -41 258 -77 callgsubr
        </CharString>
        <CharString name="ecircumflex">
          -113 -51 callgsubr
          253 -20 hstem
          -23 callsubr
          12 callsubr
          vstem
          -104 callgsubr
          -150 441 -88 callsubr
        </CharString>
        <CharString name="edieresis">
          -113 -51 callgsubr
          62 131 21 callgsubr
          -88 -11 callsubr
          -77 117 hintmask 11110010
          -104 callgsubr
          hintmask 11101100
          -138 312 -103 callgsubr
        </CharString>
        <CharString name="edotaccent">
          -113 -51 callgsubr
          67 155 hstem
          -23 callsubr
          14 165 12 117 vstem
          -104 callgsubr
          -12 328 rmoveto
          -100 callgsubr
        </CharString>
        <CharString name="egrave">
          -113 -51 callgsubr
          0 59 203 -20 21 callgsubr
          12 callsubr
          hintmask 11011100
          -104 callgsubr
          -265 373 -20 callgsubr
          hintmask 10111100
          -73 callgsubr
        </CharString>
        <CharString name="eight">
          -106 -10 90 562 88 hstemhm
          30 125 -100 121 165 118 -101 126 hintmask 11011000
          55 545 rmoveto
          -74 45 -49 72 -51 vhcurveto
          hintmask 11100100
          -74 -51 -68 -49 -96 vvcurveto
          -131 90 -54 133 126 105 67 124 101 -42 38 -97 62 vhcurveto
          hintmask 11011000
          64 53 50 36 96 vvcurveto
          103 -77 60 -115 -116 -96 -53 -132 vhcurveto
          hintmask 11100100
          100 -364 rmoveto
          73 37 35 51 36 vhcurveto
          76 -47 39 -36 -72 vvcurveto
          -54 -26 -36 -61 -67 -49 42 59 vhcurveto
          hintmask 11011000
          186 386 rmoveto
          -61 -27 -34 -42 -42 vhcurveto
          -63 45 -33 35 55 vvcurveto
          54 22 23 50 46 47 -19 -56 vhcurveto
          endchar
        </CharString>
        <CharString name="eightsuperior">
          -234 266 67 326 67 hstemhm
          21 97 -75 93 119 90 -77 97 hintmask 11011000
          43 616 rmoveto
          -61 35 -29 41 -25 vhcurveto
          hintmask 11100100
          -53 -29 -45 -30 -63 vvcurveto
          -77 64 -36 102 93 85 44 79 62 -45 33 -57 33 vhcurveto
          hintmask 11011000
          48 32 34 20 59 vvcurveto
          62 -57 36 -86 -89 -70 -34 -76 vhcurveto
          hintmask 11100100
          75 -227 rmoveto
          39 24 19 30 21 vhcurveto
          45 -26 51 -28 -31 vvcurveto
          -30 -24 -20 -41 -49 -36 17 39 vhcurveto
          hintmask 11011000
          137 232 rmoveto
          -36 -22 -21 -26 -19 vhcurveto
          -48 26 -23 22 34 vvcurveto
          23 20 9 27 36 36 -11 -27 vhcurveto
          endchar
        </CharString>
        <CharString name="ellipsis">
          127 -10 159 hstem
          43 169 77 169 77 169 cntrmask 01110000
          458 65 rmoveto
          -26 callgsubr
          -246 hmoveto
          -26 callgsubr
          492 hmoveto
          -26 callgsubr
          endchar
        </CharString>
        <CharString name="emacron">
          -113 -51 callgsubr
          112 97 hstem
          -23 callsubr
          12 callsubr
          vstem
          -104 callgsubr
          -241 300 -67 callsubr
        </CharString>
        <CharString name="emdash">
          290 210 92 hstem
          210 vmoveto
          910 92 -910 hlineto
          endchar
        </CharString>
        <CharString name="endash">
          -158 210 92 hstem
          210 vmoveto
          462 92 -462 hlineto
          endchar
        </CharString>
        <CharString name="eng">
          7 -234 -21 276 11 callsubr
          hstemhm
          103 120 189 120 hintmask 11101100
          412 16 rmoveto
          -116 -22 -38 -101 -62 vhcurveto
          69 -55 rlineto
          152 73 22 50 145 vvcurveto
          333 vlineto
          74 -43 75 -127 -10 callsubr
          vhcurveto
          hintmask 11011100
          -8 67 rlineto
          -169 -74 hlineto
          -66 callgsubr
          -267 -86 callsubr
          -35 callgsubr
          hintmask 11101100
          25 25 33 22 50 hhcurveto
          50 31 -28 -52 hvcurveto
          endchar
        </CharString>
        <CharString name="eogonek">
          -113 -230 75 145 89 327 89 hstem
          -23 callsubr
          40 91 60 117 vstem
          470 234 rmoveto
          160 -34 101 -162 -156 -84 -110 -148 -146 67 -101 155 13 13 1 1 13 vhcurveto
          -49 -33 -44 -28 -57 vvcurveto
          -94 callsubr
          14 12 54 39 59 35 -19 72 rcurveline
          -76 callgsubr
          -2 79 rmoveto
          90 11 14 25 83 hhcurveto
          69 15 -48 -51 1 hvcurveto
          endchar
        </CharString>
        <CharString name="equal">
          -72 83 100 103 100 hstem
          59 286 rmoveto
          430 100 -430 hlineto
          -303 vmoveto
          430 100 -430 hlineto
          endchar
        </CharString>
        <CharString name="eth">
          -103 -10 91 323 91 302 -20 hstem
          9 127 215 132 vstem
          483 286 rmoveto
          142 -44 140 -114 111 vhcurveto
          72 45 -43 67 -93 -58 -32 23 -36 22 -40 19 rlinecurve
          -46 -71 22 -13 24 -15 23 -17 rlinecurve
          -80 -49 43 -69 101 63 44 -45 38 -56 18 -68 rlinecurve
          19 -10 -37 19 -34 hhcurveto
          -160 -90 -135 -115 -148 60 -107 152 186 76 131 165 hvcurveto
          -244 118 rmoveto
          99 13 -47 -108 -47 -9 -67 -25 -28 hvcurveto
          -16 -13 -23 -10 -36 hhcurveto
          -73 -36 61 99 45 10 70 23 21 hvcurveto
          13 14 21 14 35 hhcurveto
          endchar
        </CharString>
        <CharString name="exclam">
          -294 -10 141 589 -20 34 callsubr
          113 197 rmoveto
          96 hlineto
          22 523 rlineto
          -139 hlineto
          hintmask 11100000
          149 -664 rmoveto
          -54 callgsubr
          endchar
        </CharString>
        <CharString name="exclamdown">
          -294 -219 -21 589 141 34 callsubr
          92 -240 rmoveto
          139 hlineto
          -22 523 rlineto
          -96 hlineto
          hintmask 11100000
          128 141 rmoveto
          49 -30 17 -49 -49 -28 -15 -49 -49 14 -28 72 59 11 28 47 vhcurveto
          endchar
        </CharString>
        <CharString name="f">
          -256 21 -21 404 83 212 91 hstemhm
          103 -36 callgsubr
          239 hintmask 11110000
          -16 callsubr
          295 vlineto
          hintmask 11101000
          119 93 hlineto
          hintmask 11110000
          -32 -2 -46 -5 -41 -3 rrcurveto
          148 -16 callgsubr
          -103 vlineto
          -68 -8 rlineto
          -71 68 vlineto
          endchar
        </CharString>
        <CharString name="fi">
          9 21 -21 404 81 107 198 -92 92 hstemhm
          103 120 191 120 hintmask 11011100
          103 483 rmoveto
          -68 -8 rlineto
          -71 68 -286 vlineto
          -28 -3 -6 -20 -3 2 callgsubr
          120 vlineto
          48 -4 rlineto
          21 -2 2 -8 -28 vvcurveto
          -244 vlineto
          -28 -2 -6 -21 -3 vhcurveto
          -45 -7 rlineto
          -74 261 74 vlineto
          -50 7 rlineto
          -21 3 -2 6 28 vvcurveto
          367 -311 158 vlineto
          38 23 17 48 33 48 -11 -5 17 vhcurveto
          hintmask 11101100
          16 -90 rlineto
          108 hlineto
          16 157 rlineto
          19 -43 -73 22 -106 hhcurveto
          -107 -100 -66 -134 hvcurveto
          endchar
        </CharString>
        <CharString name="five">
          -162 -174 94 491 99 hstem
          296 132 vstem
          407 510 rmoveto
          -329 hlineto
          -26 -334 126 -19 rlineto
          87 -13 31 -34 -62 vvcurveto
          -74 -44 -54 -77 -33 -91 19 9 -25 vhcurveto
          -20 -77 rlineto
          -17 35 57 -28 101 hhcurveto
          121 108 86 145 74 -22 97 -155 21 hvcurveto
          -80 11 15 151 rlineto
          221 hlineto
          endchar
        </CharString>
        <CharString name="fivesuperior">
          -280 266 73 306 80 hstem
          225 99 vstem
          307 725 rmoveto
          -244 hlineto
          -17 -239 112 -10 rlineto
          48 -4 19 -25 -44 vvcurveto
          -31 -23 -33 -56 -26 -71 12 5 -21 vhcurveto
          -18 -60 rlineto
          -12 28 51 -18 61 hhcurveto
          97 77 56 92 54 -19 71 -106 10 hvcurveto
          -61 6 11 90 rlineto
          158 hlineto
          endchar
        </CharString>
        <CharString name="fl">
          12 21 -21 698 92 hstemhm
          103 -36 callgsubr
          239 72 120 hintmask 11101000
          534 750 rmoveto
          20 -44 -86 20 -87 hhcurveto
          -126 -88 -74 -126 hvcurveto
          -107 vlineto
          -68 -8 rlineto
          -71 68 -295 vlineto
          -19 -6 -7 -17 -2 2 callgsubr
          vlineto
          hintmask 11011000
          119 93 hlineto
          hintmask 11101000
          -119 -10 rlineto
          156 vlineto
          38 25 17 38 52 44 -12 -13 32 vhcurveto
          -564 vlineto
          -18 -4 -7 -18 -3 vhcurveto
          -46 -7 rlineto
          -74 261 -9 callgsubr
          -18 2 -4 8 18 vvcurveto
          endchar
        </CharString>
        <CharString name="florin">
          -265 -201 -21 882 95 hstem
          103 120 vstem
          33 405 rmoveto
          -71 70 -275 vlineto
          -135 -5 -32 -129 -48 vhcurveto
          53 -66 rlineto
          161 48 40 41 144 vvcurveto
          323 118 vlineto
          10 96 -128 -12 rlineto
          193 vlineto
          28 13 21 31 52 34 -19 -9 20 vhcurveto
          44 94 rlineto
          14 -26 -43 15 -49 hhcurveto
          -118 -78 -66 -134 hvcurveto
          -142 vlineto
          endchar
        </CharString>
        <CharString name="four">
          -93 -143 -21 164 100 430 -20 hstem
          318 120 vstem
          509 100 rmoveto
          -71 150 -120 -150 -165 hlineto
          225 349 -78 81 -291 -430 55 -100 rlineto
          254 -164 120 164 71 hlineto
          endchar
        </CharString>
        <CharString name="foursuperior">
          -178 297 -21 100 75 279 -20 hstem
          253 93 vstem
          412 451 -40 callgsubr
          -100 93 100 66 hlineto
          endchar
        </CharString>
        <CharString name="fraction">
          -457 21 -21 730 -20 hstem
          243 730 -30 callgsubr
          endchar
        </CharString>
        <CharString name="franc">
          -43 0 245 -90 90 65 104 73 193 -99 99 -58 callgsubr
          hintmask 10101100
          376 155 rmoveto
          15 90 rlineto
          -139 65 191 104 -191 167 177 hlineto
          24 11 -4 -25 3 hvcurveto
          hintmask 10110100
          7 -65 rlineto
          84 hlineto
          7 193 rlineto
          -517 -76 hlineto
          48 -6 rlineto
          23 -3 6 -10 -23 vvcurveto
          -317 -69 vlineto
          hintmask 01110100
          -90 69 -29 vlineto
          -52 callgsubr
          13 callsubr
          hintmask 10110100
          -13 callgsubr
          hintmask 01110100
          29 vlineto
          endchar
        </CharString>
        <CharString name="g">
          -41 callsubr
          22 30 callsubr
          hintmask 10111101
          506 517 -92 callsubr
          hintmask 01111101
          -91 callgsubr
          hintmask 10111110
          -96 callsubr
          endchar
        </CharString>
        <CharString name="gbreve">
          -41 callsubr
          78 86 64 30 callsubr
          hintmask 1011111010000000
          506 517 -92 callsubr
          hintmask 0111111010000000
          -91 callgsubr
          hintmask 1011111100000000
          -96 callsubr
          25 401 -102 callsubr
        </CharString>
        <CharString name="gcircumflex">
          -41 callsubr
          248 30 callsubr
          hintmask 10111101
          506 517 -92 callsubr
          hintmask 01111101
          -91 callgsubr
          hintmask 10111110
          -96 callsubr
          -131 421 -88 callsubr
        </CharString>
        <CharString name="gcommaaccent">
          -41 callsubr
          47 118 95 -20 hstemhm
          39 126 32 142 8 126 -75 106 hintmask 1011111101000000
          197 610 rmoveto
          -36 21 -32 53 41 27 15 44 31 -20 28 -40 -4 -2 -1 -2 -4 vhcurveto
          21 31 28 29 17 vhcurveto
          -30 32 rlineto
          -49 -21 -53 -56 -68 vvcurveto
          309 -93 -92 callsubr
          hintmask 0111111101000000
          -91 callgsubr
          hintmask 1011111110000000
          -96 callsubr
          endchar
        </CharString>
        <CharString name="gdotaccent">
          -41 callsubr
          62 155 hstemhm
          39 126 24 165 -7 126 -75 106 hintmask 1011111010000000
          506 517 -92 callsubr
          hintmask 0111111010000000
          -91 callgsubr
          hintmask 1011110100000000
          -96 callsubr
          hintmask 1011111010000000
          7 308 rmoveto
          -100 callgsubr
        </CharString>
        <CharString name="germandbls">
          14 0 71 -71 149 -138 -21 705 95 hstemhm
          34 195 -120 120 42 115 44 124 -58 120 hintmask 1001011100000000
          554 626 rmoveto
          115 -80 49 -108 -159 -98 -78 -162 vhcurveto
          -60 vlineto
          -63 -9 -16 -78 rlineto
          79 -285 hlineto
          -28 -2 -8 -21 -2 vhcurveto
          hintmask 1001101100000000
          -52 -6 rlineto
          -74 195 606 vlineto
          25 3 21 15 16 vhcurveto
          16 14 32 11 45 hhcurveto
          58 34 -23 -53 hvcurveto
          -174 -159 67 -146 vvcurveto
          -81 39 -40 97 -38 vhcurveto
          hintmask 1001101010000000
          53 -21 36 -18 -38 vvcurveto
          -45 -35 -14 -34 -29 -23 9 11 -21 vhcurveto
          hintmask 0101101100000000
          -8 58 rlineto
          -66 hlineto
          -6 -124 rlineto
          hintmask 0011101010000000
          -19 41 50 -16 67 hhcurveto
          97 87 56 99 79 -47 28 -88 40 hvcurveto
          -61 27 -34 7 55 vvcurveto
          hintmask 1001101100000000
          88 168 -25 182 vvcurveto
          endchar
        </CharString>
        <CharString name="grave">
          -327 585 -21 203 -20 hstem
          49 690 -20 callgsubr
          -73 callgsubr
        </CharString>
        <CharString name="grave.case">
          -364 776 -21 190 -20 hstem
          14 859 -3 callsubr
          -73 callsubr
        </CharString>
        <CharString name="greater">
          -69 1 -21 526 -20 hstem
          100 506 rmoveto
          -51 -79 289 -184 -290 -183 52 -80 410 263 rlineto
          endchar
        </CharString>
        <CharString name="guillemotleft">
          -84 60 -21 406 -20 hstem
          209 39 -58 callsubr
          388 -203 -58 callsubr
          endchar
        </CharString>
        <CharString name="guillemotright">
          -84 60 -21 406 -20 hstem
          497 242 -57 callgsubr
          -48 203 -57 callgsubr
          endchar
        </CharString>
        <CharString name="guilsinglleft">
          -302 60 -21 406 -20 hstem
          209 39 -58 callsubr
          endchar
        </CharString>
        <CharString name="guilsinglright">
          -302 60 -21 406 -20 hstem
          279 242 -57 callgsubr
          endchar
        </CharString>
        <CharString name="h">
          7 21 1 callsubr
          285 -20 hstemhm
          30 193 -120 8 callsubr
          hintmask 11101100
          -28 callgsubr
          hintmask 11110100
          -35 callgsubr
          -68 callsubr
          hintmask 11110010
          193 -2 callgsubr
          hintmask 11110100
          -67 callgsubr
          -59 -50 -33 -28 -30 vhcurveto
          346 -63 callsubr
          -6 rlineto
          hintmask 11101100
          -100 callsubr
          endchar
        </CharString>
        <CharString name="hbar">
          7 21 1 callsubr
          68 90 -90 217 hstemhm
          30 193 -120 8 callsubr
          hintmask 11100110
          -28 callgsubr
          hintmask 11101010
          -35 callgsubr
          -68 callsubr
          hintmask 11101001
          193 -2 callgsubr
          hintmask 11101010
          -67 callgsubr
          -59 -50 -33 -28 -30 vhcurveto
          129 203 90 -203 vlineto
          hintmask 11011010
          127 -63 callsubr
          -6 rlineto
          hintmask 11100110
          -100 callsubr
          -19 -70 -90 70 vlineto
          endchar
        </CharString>
        <CharString name="hcircumflex">
          7 21 1 callsubr
          285 -20 208 -20 hstemhm
          30 193 -120 8 callsubr
          hintmask 11110110
          -28 callgsubr
          hintmask 11111010
          -35 callgsubr
          -68 callsubr
          hintmask 11111001
          193 -2 callgsubr
          hintmask 11111010
          -67 callgsubr
          -59 -50 -33 -28 -30 vhcurveto
          346 -63 callsubr
          -6 rlineto
          hintmask 11110110
          -100 callsubr
          183 296 -98 callgsubr
        </CharString>
        <CharString name="hook">
          -369 594 -21 182 60 hstem
          145 90 vstem
          133 581 rmoveto
          58 vlineto
          -60 callsubr
        </CharString>
        <CharString name="hungarumlaut">
          -120 766 -20 hstem
          165 766 -88 callgsubr
        </CharString>
        <CharString name="hyphen">
          -228 202 105 hstem
          53 202 rmoveto
          286 105 -286 hlineto
          endchar
        </CharString>
        <CharString name="i">
          -299 21 18 callgsubr
          -120 120 hintmask 11101000
          228 645 rmoveto
          -54 callgsubr
          -5 -160 rmoveto
          hintmask 11110000
          -72 callsubr
          hintmask 11100100
          -100 callsubr
          -268 -86 callsubr
          hintmask 11110000
          -77 callsubr
          endchar
        </CharString>
        <CharString name="iacute">
          -299 21 -6 callgsubr
          69 203 24 callsubr
          -82 callsubr
          -6 648 -52 callsubr
          -98 callsubr
        </CharString>
        <CharString name="ibreve">
          -314 -18 callsubr
          108 86 64 -20 hstemhm
          26 -85 callgsubr
          hintmask 11111000
          29 callgsubr
          hintmask 11110100
          -100 callsubr
          -268 -86 callsubr
          hintmask 11111000
          -77 callsubr
          17 614 -102 callsubr
        </CharString>
        <CharString name="icircumflex">
          -314 -18 callsubr
          278 -20 hstemhm
          26 -85 callgsubr
          hintmask 11110000
          219 -82 callsubr
          -139 634 -88 callsubr
        </CharString>
        <CharString name="idieresis">
          -299 -18 callsubr
          92 131 hstemhm
          -39 141 -72 -85 callgsubr
          -47 141 hintmask 11101000
          223 485 -76 callsubr
          hintmask 11110100
          -100 callsubr
          -268 -86 callsubr
          hintmask 11101000
          -77 callsubr
          hintmask 11110010
          -121 510 -103 callgsubr
        </CharString>
        <CharString name="igrave">
          -299 21 -6 callgsubr
          69 203 24 callsubr
          -82 callsubr
          -237 571 -20 callgsubr
          -73 callgsubr
        </CharString>
        <CharString name="ij">
          -4 -229 -21 271 18 callgsubr
          -120 120 123 37 callgsubr
          hintmask 1111010100000000
          228 645 rmoveto
          -54 callgsubr
          -5 -160 rmoveto
          hintmask 1111100100000000
          -72 callsubr
          hintmask 1111001100000000
          -100 callsubr
          -268 -86 callsubr
          hintmask 1111100100000000
          -77 callsubr
          316 376 -76 callsubr
          hintmask 1111100001000000
          -25 callgsubr
          hintmask 1111100100000000
          -33 callsubr
          5 638 rmoveto
          47 -11 28 -59 vhcurveto
          hintmask 1111100010000000
          -72 -14 -28 -49 -49 28 -15 49 49 30 17 49 hvcurveto
          endchar
        </CharString>
        <CharString name="imacron">
          -314 -18 callsubr
          137 97 hstemhm
          26 -85 callgsubr
          hintmask 11110000
          219 -82 callsubr
          -230 493 -67 callsubr
        </CharString>
        <CharString name="iogonek">
          -299 -230 75 176 18 callgsubr
          -136 26 callsubr
          hintmask 1111001000000000
          87 -126 rmoveto
          -94 callsubr
          hintmask 1111000100000000
          -15 callsubr
          -9 callgsubr
          hintmask 1111100000000000
          -18 2 -4 8 18 vvcurveto
          376 -63 callsubr
          -6 rlineto
          hintmask 1111000010000000
          -100 callsubr
          -268 -86 callsubr
          hintmask 1111100000000000
          -60 callgsubr
          162 vlineto
          hintmask 1111001000000000
          -12 callgsubr
          141 771 rmoveto
          47 -11 28 -59 vhcurveto
          hintmask 1111010000000000
          -72 -14 -28 -49 -49 28 -15 49 49 30 17 49 hvcurveto
          endchar
        </CharString>
        <CharString name="itilde">
          -314 -18 callsubr
          105 104 -67 67 hstemhm
          26 -85 callgsubr
          hintmask 11101000
          29 callgsubr
          hintmask 11100100
          -100 callsubr
          -268 -86 callsubr
          hintmask 11011000
          -77 callsubr
          -157 498 rmoveto
          hintmask 11101000
          -93 callgsubr
          hintmask 11011000
          -97 callsubr
        </CharString>
        <CharString name="j">
          16 callgsubr
          94 0 141 hstemhm
          25 37 callgsubr
          hintmask 11010000
          28 callgsubr
          hintmask 11000100
          -25 callgsubr
          hintmask 11010000
          -33 callsubr
          5 638 rmoveto
          hintmask 10101000
          -54 callgsubr
          endchar
        </CharString>
        <CharString name="jcircumflex">
          16 callgsubr
          -20 278 -20 hstemhm
          25 -85 callgsubr
          hintmask 11110000
          218 6 callsubr
          -343 vlineto
          -136 -14 -21 -113 -72 vhcurveto
          hintmask 11110000
          -33 callsubr
          -138 736 -88 callsubr
        </CharString>
        <CharString name="k">
          -32 0 87 -76 -21 414 81 295 -20 hstemhm
          30 -85 callgsubr
          hintmask 10111000
          -46 callgsubr
          hintmask 10110100
          -100 callsubr
          -563 -86 callsubr
          hintmask 10111000
          -60 callgsubr
          258 74 vlineto
          -43 7 rlineto
          -18 3 -4 7 18 vvcurveto
          159 vlineto
          147 -209 rlineto
          hintmask 01111000
          23 callgsubr
          hintmask 10111000
          -40 callsubr
          endchar
        </CharString>
        <CharString name="kcommaaccent">
          -32 -48 callsubr
          32 87 -76 -21 414 81 295 -20 hstemhm
          30 -85 callgsubr
          4 61 -61 152 hintmask 1110111010000000
          -46 callgsubr
          hintmask 1110110110000000
          -100 callsubr
          -563 -86 callsubr
          hintmask 1110111010000000
          -60 callgsubr
          258 74 vlineto
          -43 7 rlineto
          -18 3 -4 7 18 vvcurveto
          159 vlineto
          147 -209 rlineto
          hintmask 1101111010000000
          23 callgsubr
          hintmask 1110111001000000
          -40 callsubr
          156 -400 -104 callsubr
        </CharString>
        <CharString name="kgreenlandic">
          -44 0 87 -76 -21 414 76 5 -20 hstemhm
          106 120 hintmask 10101000
          226 362 rmoveto
          28 2 7 21 3 vhcurveto
          50 7 rlineto
          73 -266 -74 vlineto
          50 -6 rlineto
          20 -2 3 -8 -28 vvcurveto
          -244 vlineto
          -28 -2 -8 -21 -2 vhcurveto
          -50 -6 rlineto
          -74 266 73 vlineto
          -50 7 rlineto
          -20 3 -3 7 28 vvcurveto
          120 vlineto
          142 -179 rlineto
          hintmask 01101000
          -43 34 35 -26 47 hhcurveto
          27 19 4 12 23 hvcurveto
          16 88 rlineto
          hintmask 10101000
          -5 -12 -20 -2 -13 hhcurveto
          -21 -21 16 38 -33 hvcurveto
          -101 115 rlineto
          7 vlineto
          98 104 rlineto
          25 24 15 12 37 hhcurveto
          24 hlineto
          hintmask 10011000
          81 -57 vlineto
          -47 -24 -10 -43 -43 hvcurveto
          -149 -167 rlineto
          endchar
        </CharString>
        <CharString name="l">
          -299 21 -21 780 -20 hstemhm
          30 -85 callgsubr
          hintmask 11100000
          -46 callgsubr
          hintmask 11010000
          -100 callsubr
          -563 -86 callsubr
          hintmask 11100000
          -77 callsubr
          endchar
        </CharString>
        <CharString name="lacute">
          -299 21 -21 780 34 190 24 callsubr
          780 rmoveto
          -193 -74 hlineto
          51 -6 rlineto
          hintmask 11101000
          -100 callsubr
          -563 -86 callsubr
          hintmask 11110000
          -77 callsubr
          10 895 -61 callsubr
          -99 callgsubr
        </CharString>
        <CharString name="lcaron">
          -196 21 -21 636 127 17 -20 hstemhm
          30 -85 callgsubr
          49 152 hintmask 11010100
          424 -70 callgsubr
          hintmask 10110100
          -201 90 -76 callsubr
          hintmask 11001100
          -100 callsubr
          -563 -86 callsubr
          hintmask 10110100
          -77 callsubr
          endchar
        </CharString>
        <CharString name="lcommaaccent">
          -299 3 callgsubr
          780 -20 hstemhm
          30 193 -133 152 -152 206 -193 120 hintmask 11111000
          -46 callgsubr
          hintmask 11110001
          -100 callsubr
          -563 -86 callsubr
          hintmask 11111000
          -60 callgsubr
          vlineto
          hintmask 11110010
          266 -2 callgsubr
          hintmask 11111000
          -18 2 -4 8 18 vvcurveto
          hintmask 11110100
          19 -214 -104 callsubr
        </CharString>
        <CharString name="ldot">
          -178 21 -21 314 155 311 -20 hstemhm
          30 -85 callgsubr
          63 165 hintmask 11110100
          -46 callgsubr
          hintmask 11101100
          -100 callsubr
          -563 -86 callsubr
          hintmask 11110100
          -77 callsubr
          228 278 rmoveto
          -100 callgsubr
        </CharString>
        <CharString name="less">
          -69 1 -21 526 -20 hstem
          41 243 rmoveto
          410 -263 52 80 -290 183 289 184 -51 79 rlineto
          endchar
        </CharString>
        <CharString name="lira">
          25 callgsubr
          113 77 42 77 167 109 hstemhm
          129 129 -129 141 186 92 hintmask 0011011101100000
          61 344 rmoveto
          74 hlineto
          3 -42 rlineto
          -77 -77 83 hlineto
          1 -23 1 -19 -15 -1 callgsubr
          hintmask 0100011101100000
          7 callgsubr
          hintmask 1000011101100000
          -19 -16 -13 -22 vhcurveto
          hintmask 0010111101100000
          18 callsubr
          vvcurveto
          20 103 vlineto
          25 77 rlineto
          -130 hlineto
          -1 14 -1 14 14 vvcurveto
          140 hlineto
          25 77 rlineto
          -170 hlineto
          hintmask 1000011110100000
          -2 35 -1 33 30 -15 callgsubr
          -9 0 -11 1 -12 hvcurveto
          -69 hlineto
          endchar
        </CharString>
        <CharString name="logicalnot">
          -87 121 243 -99 99 hstemhm
          406 89 hintmask 10100000
          495 121 rmoveto
          243 -457 vlineto
          hintmask 01100000
          -99 368 vlineto
          hintmask 10100000
          -144 vlineto
          endchar
        </CharString>
        <CharString name="longs">
          -256 21 -21 699 91 hstem
          103 120 vstem
          -16 callsubr
          526 -16 callgsubr
          endchar
        </CharString>
        <CharString name="lslash">
          -299 21 -21 780 -20 hstemhm
          35 188 -120 -36 callgsubr
          184 hintmask 11010000
          -46 callgsubr
          -100 callsubr
          -259 vlineto
          hintmask 11100000
          -68 -39 rlineto
          -95 vlineto
          hintmask 11010000
          68 39 rlineto
          -209 -86 callsubr
          -77 callsubr
          278 vlineto
          hintmask 11001000
          64 37 rlineto
          96 vlineto
          hintmask 11010000
          -64 -37 rlineto
          endchar
        </CharString>
        <CharString name="m">
          294 0 callgsubr
          hstemhm
          103 120 175 -43 callgsubr
          108 -43 callgsubr
          hintmask 11011010
          5 callgsubr
          hintmask 11011001
          193 -2 callgsubr
          hintmask 11011010
          -23 callgsubr
          hintmask 10111010
          -8 67 rlineto
          -169 -74 hlineto
          -66 callgsubr
          -267 -86 callsubr
          -35 callgsubr
          hintmask 11011010
          25 25 33 22 50 hhcurveto
          49 18 -31 -49 hvcurveto
          -318 vlineto
          hintmask 11010110
          193 -2 callgsubr
          hintmask 11011010
          -18 2 -4 8 18 vvcurveto
          endchar
        </CharString>
        <CharString name="macron">
          -244 602 97 hstem
          48 602 -67 callsubr
        </CharString>
        <CharString name="macute">
          294 0 callgsubr
          30 34 callgsubr
          103 120 175 -43 callgsubr
          108 -43 callgsubr
          hintmask 1100111010000000
          5 callgsubr
          hintmask 1100111001000000
          193 -2 callgsubr
          hintmask 1100111010000000
          -23 callgsubr
          hintmask 1011111010000000
          -8 67 rlineto
          -169 -74 hlineto
          -66 callgsubr
          -267 -86 callsubr
          -35 callgsubr
          hintmask 1100111010000000
          25 25 33 22 50 hhcurveto
          49 18 -31 -49 hvcurveto
          -318 vlineto
          hintmask 1100110110000000
          193 -2 callgsubr
          hintmask 1011111010000000
          -18 2 -4 8 18 vvcurveto
          41 658 -52 callsubr
          -98 callsubr
        </CharString>
        <CharString name="minus">
          -94 182 106 hstem
          42 182 rmoveto
          442 106 -442 hlineto
          endchar
        </CharString>
        <CharString name="mu">
          -30 -229 -21 240 104 386 -20 hstem
          69 120 183 120 vstem
          215 -227 rmoveto
          -17 55 -25 93 -7 83 rrcurveto
          -9 21 24 -5 28 hhcurveto
          66 45 44 37 28 hvcurveto
          -62 5 60 -19 34 hhcurveto
          39 29 8 7 15 hvcurveto
          13 76 rlineto
          -6 -9 -15 0 -15 hhcurveto
          -23 -19 13 32 hvcurveto
          360 -120 -336 vlineto
          -12 -9 -45 -38 -56 hhcurveto
          -50 -23 23 43 hvcurveto
          320 -120 -303 vlineto
          -69 1 -81 -15 vvcurveto
          -112 8 -101 11 -49 vhcurveto
          endchar
        </CharString>
        <CharString name="multiply">
          -124 44 -21 423 -20 hstem
          109 23 rmoveto
          138 138 134 -135 72 73 -133 135 137 137 -73 72 -137 -135 -135 138 -73 -73 135 -137 -135 -133 rlineto
          endchar
        </CharString>
        <CharString name="n">
          26 callgsubr
          -24 callsubr
          hintmask 11010100
          605 hmoveto
          -9 callgsubr
          hintmask 11011000
          -67 callgsubr
          -10 callsubr
          vhcurveto
          hintmask 10111000
          -8 67 rlineto
          -169 -74 hlineto
          -66 callgsubr
          -267 -86 callsubr
          -35 callgsubr
          hintmask 11011000
          -68 callsubr
          endchar
        </CharString>
        <CharString name="nacute">
          26 callgsubr
          30 69 203 -20 -24 callsubr
          hintmask 11001101
          605 hmoveto
          -9 callgsubr
          hintmask 11001110
          -67 callgsubr
          -10 callsubr
          vhcurveto
          hintmask 10111110
          -8 67 rlineto
          -169 -74 hlineto
          -66 callgsubr
          -267 -86 callsubr
          -35 callgsubr
          hintmask 11001110
          -68 callsubr
          hintmask 10111101
          -56 767 -52 callsubr
          -98 callsubr
        </CharString>
        <CharString name="napostrophe">
          26 callgsubr
          171 127 hstemhm
          11 152 -60 8 callsubr
          hintmask 11011001
          163 -70 callgsubr
          442 -690 rmoveto
          -9 callgsubr
          hintmask 11011010
          -67 callgsubr
          -10 callsubr
          vhcurveto
          hintmask 10110110
          -8 67 rlineto
          -169 -74 hlineto
          -66 callgsubr
          -267 -86 callsubr
          -35 callgsubr
          hintmask 11011010
          -68 callsubr
          endchar
        </CharString>
        <CharString name="ncaron">
          26 callgsubr
          30 65 194 -20 -24 callsubr
          hintmask 11001101
          605 hmoveto
          -9 callgsubr
          hintmask 11001110
          -67 callgsubr
          -10 callsubr
          vhcurveto
          hintmask 10111110
          -8 67 rlineto
          -169 -74 hlineto
          -66 callgsubr
          -267 -86 callsubr
          -35 callgsubr
          hintmask 11001110
          -68 callsubr
          hintmask 10111101
          -54 560 -77 callgsubr
        </CharString>
        <CharString name="ncommaaccent">
          7 3 callgsubr
          398 97 -10 -20 hstemhm
          103 120 22 51 -51 152 15 -43 callgsubr
          hintmask 1111011001000000
          605 hmoveto
          -9 callgsubr
          hintmask 1111011010000000
          -67 callgsubr
          -10 callsubr
          vhcurveto
          hintmask 1110111010000000
          -8 67 rlineto
          -169 -74 hlineto
          -66 callgsubr
          -267 -86 callsubr
          -35 callgsubr
          hintmask 1111011010000000
          -68 callsubr
          hintmask 1111010101000000
          -15 -105 -104 callsubr
        </CharString>
        <CharString name="nine">
          -90 -250 90 225 101 260 94 hstem
          27 127 213 133 vstem
          27 288 rmoveto
          -130 81 -93 133 51 42 15 34 29 vhcurveto
          -151 -20 -142 -123 -134 hhcurveto
          15 -90 rlineto
          242 176 229 270 161 -80 110 -164 -131 -98 -76 -156 hvcurveto
          127 -6 rmoveto
          75 23 69 73 82 35 -60 -76 -43 -5 -28 -8 -15 vhcurveto
          -17 -11 -37 -21 -47 hhcurveto
          -87 -18 61 55 hvcurveto
          endchar
        </CharString>
        <CharString name="ninesuperior">
          -221 260 67 92 72 166 73 hstem
          18 97 154 98 vstem
          18 568 rmoveto
          -90 56 -59 97 33 38 14 37 23 vhcurveto
          -89 -21 -67 -54 -109 hhcurveto
          3 -67 rlineto
          74 87 14 66 60 hvcurveto
          48 53 27 68 92 vvcurveto
          85 -40 92 -128 -114 -67 -61 -101 vhcurveto
          97 7 rmoveto
          47 22 35 50 53 29 -31 -53 -32 -9 -18 -9 -10 vhcurveto
          -10 -9 -23 -12 -29 hhcurveto
          -59 -16 37 47 hvcurveto
          endchar
        </CharString>
        <CharString name="nsuperior">
          -232 454 -21 236 61 -5 -20 hstemhm
          69 73 108 73 hintmask 11011000
          364 433 rmoveto
          47 vlineto
          -28 4 rlineto
          -11 1 -2 5 16 vvcurveto
          139 vlineto
          43 -22 42 -73 -49 -23 -27 -18 -14 vhcurveto
          hintmask 10111000
          -6 40 rlineto
          -108 -41 hlineto
          28 -4 rlineto
          11 -1 2 -5 -17 vvcurveto
          -151 vlineto
          -16 -1 -5 -12 -1 vhcurveto
          -28 -4 rlineto
          -47 159 47 vlineto
          -31 4 rlineto
          -12 1 -2 5 16 vvcurveto
          127 vlineto
          hintmask 11011000
          17 9 22 19 32 hhcurveto
          27 18 -16 -30 hvcurveto
          -190 vlineto
          endchar
        </CharString>
        <CharString name="ntilde">
          8 0 callgsubr
          105 104 -67 67 -24 callsubr
          hintmask 11010101
          605 hmoveto
          -9 callgsubr
          hintmask 11010110
          -67 callgsubr
          -10 callsubr
          vhcurveto
          hintmask 10110110
          -8 67 rlineto
          -169 -74 hlineto
          -66 callgsubr
          -267 -86 callsubr
          -35 callgsubr
          hintmask 11010110
          -68 callsubr
          hintmask 11001101
          -170 607 rmoveto
          hintmask 11010110
          -93 callgsubr
          hintmask 11001110
          -97 callsubr
        </CharString>
        <CharString name="numbersign">
          -28 5 231 -97 97 112 96 -96 226 hstemhm
          hintmask 10100000
          404 5 rmoveto
          hintmask 01100000
          23 134 rlineto
          112 97 -95 hlineto
          20 112 rlineto
          103 96 -87 21 callsubr
          -99 21 callsubr
          -117 -96 101 hlineto
          -20 -112 rlineto
          -109 hlineto
          hintmask 01100000
          -97 92 vlineto
          hintmask 10100000
          -23 -134 rlineto
          104 hlineto
          hintmask 01100000
          23 134 rlineto
          99 hlineto
          hintmask 10100000
          -23 -134 rlineto
          -39 343 rmoveto
          99 hlineto
          -20 -112 rlineto
          -99 hlineto
          endchar
        </CharString>
        <CharString name="o">
          -11 callgsubr
          hstem
          -51 callsubr
          vstem
          -105 callsubr
          endchar
        </CharString>
        <CharString name="oacute">
          -11 callgsubr
          0 59 203 -20 hstemhm
          -51 callsubr
          hintmask 11011100
          -105 callsubr
          106 351 -52 callsubr
          hintmask 10111100
          -98 callsubr
        </CharString>
        <CharString name="obreve">
          -11 callgsubr
          54 86 64 35 callgsubr
          -105 callsubr
          112 293 -102 callsubr
        </CharString>
        <CharString name="ocircumflex">
          -11 callgsubr
          224 35 callgsubr
          -105 callsubr
          -44 313 -88 callsubr
        </CharString>
        <CharString name="odieresis">
          -11 callgsubr
          62 131 21 callgsubr
          -58 -11 callsubr
          -59 128 hintmask 11110010
          -105 callsubr
          hintmask 11101100
          -28 213 -103 callgsubr
        </CharString>
        <CharString name="oe">
          254 -51 callgsubr
          hstem
          -51 callsubr
          12 callsubr
          vstem
          837 234 rmoveto
          160 -34 101 -162 -82 -59 -31 -50 -38 vhcurveto
          51 -30 -52 30 -83 hhcurveto
          -190 -73 -136 -117 -146 65 -106 166 90 58 34 49 36 hvcurveto
          -52 33 56 -31 85 hhcurveto
          91 67 25 21 54 hvcurveto
          -17 callgsubr
          -256 194 rmoveto
          82 46 -61 -98 -50 -10 -71 -25 -23 hvcurveto
          -15 -15 -26 -9 -36 hhcurveto
          -82 -45 60 99 50 10 71 24 23 hvcurveto
          15 15 27 9 35 hhcurveto
          254 -115 rmoveto
          90 10 15 25 83 hhcurveto
          69 15 -48 -51 1 hvcurveto
          endchar
        </CharString>
        <CharString name="ogonek">
          -380 -230 75 -75 230 hstemhm
          19 91 hintmask 10100000
          19 -126 rmoveto
          -94 callsubr
          hintmask 01100000
          -15 callsubr
          -104 hlineto
          -12 callgsubr
          endchar
        </CharString>
        <CharString name="ograve">
          -11 callgsubr
          0 59 203 -20 hstemhm
          -51 callsubr
          hintmask 11011100
          -105 callsubr
          -155 274 -20 callgsubr
          hintmask 10111100
          -73 callgsubr
        </CharString>
        <CharString name="ohorn">
          2 -51 callgsubr
          90 -20 hstem
          -51 callsubr
          6 112 vstem
          529 242 rmoveto
          52 -8 47 -18 39 vhcurveto
          70 20 74 44 86 -26 callsubr
          -56 -32 -21 -38 -10 vhcurveto
          38 -37 -55 22 -76 hhcurveto
          -190 -73 -136 -117 -146 65 -106 166 191 73 136 116 hvcurveto
          -256 164 rmoveto
          82 46 -61 -98 -50 -10 -71 -25 -23 hvcurveto
          -15 -15 -26 -9 -36 hhcurveto
          -82 -45 60 99 50 10 71 24 23 hvcurveto
          15 15 27 9 35 hhcurveto
          endchar
        </CharString>
        <CharString name="ohungarumlaut">
          -11 callgsubr
          247 35 callgsubr
          -105 callsubr
          -30 336 -88 callgsubr
        </CharString>
        <CharString name="omacron">
          -11 callgsubr
          83 97 hstem
          -51 callsubr
          vstem
          -105 callsubr
          -135 172 -67 callsubr
        </CharString>
        <CharString name="one">
          -254 21 -21 510 -20 hstemhm
          33 220 vstemhm
          253 510 rmoveto
          -93 hlineto
          -127 -65 rlineto
          -99 vlineto
          hintmask 11100000
          100 45 rlineto
          -266 vlineto
          -28 -3 -9 -21 -2 vhcurveto
          -75 -7 rlineto
          -79 313 79 vlineto
          -70 7 rlineto
          -21 2 -3 9 28 vvcurveto
          endchar
        </CharString>
        <CharString name="onehalf">
          342 0 80 225 146 -72 72 273 -20 26 27 callsubr
          601 99 hintmask 1101010010000000
          -1 callsubr
          hintmask 1011000110000000
          -22 callsubr
          vlineto
          hintmask 1011001010000000
          244 63 hlineto
          -55 6 rlineto
          hintmask 1011010010000000
          -18 2 -3 8 25 vvcurveto
          hintmask 1100110010000000
          409 351 -30 callgsubr
          193 -650 -31 callsubr
          hintmask 1011010010000000
          -19 callgsubr
        </CharString>
        <CharString name="onequarter">
          277 18 -21 24 -21 97 75 552 -20 26 -20 hstemhm
          43 174 491 93 hintmask 01110110
          -1 callsubr
          -22 callsubr
          244 63 vlineto
          -55 6 rlineto
          -18 2 -3 8 25 vvcurveto
          hintmask 01101110
          409 351 -30 callgsubr
          143 -558 -40 callgsubr
          hlineto
          hintmask 10110110
          -100 93 100 66 vlineto
          endchar
        </CharString>
        <CharString name="onesuperior">
          -293 296 -21 449 27 callsubr
          hintmask 11100000
          -1 callsubr
          hintmask 11001000
          -22 callsubr
          vlineto
          hintmask 11010000
          244 63 hlineto
          -55 6 rlineto
          hintmask 11100000
          -18 2 -3 8 25 vvcurveto
          endchar
        </CharString>
        <CharString name="ordfeminine">
          -289 290 81 56 65 179 59 hstem
          20 80 92 78 vstem
          34 290 rmoveto
          267 81 -267 hlineto
          236 277 rmoveto
          60 -57 22 -65 -42 -25 -5 -16 -50 vhcurveto
          8 -84 rlineto
          47 hlineto
          8 38 rlineto
          3 12 20 5 19 hhcurveto
          25 22 -9 -20 hvcurveto
          -29 vlineto
          -79 -14 rlineto
          -59 -8 -34 -33 -49 vvcurveto
          -49 36 -33 51 30 33 17 31 26 vhcurveto
          4 -42 rlineto
          111 52 hlineto
          -27 4 rlineto
          -12 1 -2 5 16 vvcurveto
          -78 51 rmoveto
          -32 vlineto
          -12 -13 -29 -26 -24 hhcurveto
          -16 -10 8 18 16 11 13 16 3 hvcurveto
          endchar
        </CharString>
        <CharString name="ordmasculine">
          -273 290 81 46 70 173 70 hstem
          18 88 135 88 vstem
          40 290 rmoveto
          267 81 -267 hlineto
          289 202 rmoveto
          91 -39 66 -106 -122 -44 -85 -72 -91 39 -65 106 122 44 85 71 vhcurveto
          -161 87 rmoveto
          49 24 -32 -53 -21 -4 -39 -14 -13 hvcurveto
          -11 -9 -14 -4 -21 hhcurveto
          -49 -24 32 52 23 5 37 13 13 hvcurveto
          12 9 14 4 21 hhcurveto
          endchar
        </CharString>
        <CharString name="oslash">
          -77 -39 -21 50 89 416 -20 68 -81 callgsubr
          endchar
        </CharString>
        <CharString name="oslashacute">
          -77 -39 -21 50 89 416 69 203 -81 callgsubr
          50 361 -52 callsubr
          -98 callsubr
        </CharString>
        <CharString name="otilde">
          -11 callgsubr
          65 104 -67 67 hstemhm
          -51 callsubr
          hintmask 11011100
          -105 callsubr
          -62 191 rmoveto
          hintmask 11101100
          -93 callgsubr
          hintmask 11011100
          -97 callsubr
        </CharString>
        <CharString name="p">
          -36 20 callsubr
          -10 -20 hstemhm
          98 120 204 128 hintmask 11101100
          218 348 rmoveto
          -2 callsubr
          -34 -35 15 17 -24 hvcurveto
          hintmask 11011100
          -14 374 rmoveto
          -179 -74 hlineto
          -66 callgsubr
          -507 -86 callsubr
          -60 callgsubr
          277 74 vlineto
          -62 7 rlineto
          -18 2 -4 8 18 vvcurveto
          138 vlineto
          -9 20 34 -8 26 hhcurveto
          144 108 107 157 hvcurveto
          hintmask 11101100
          142 -74 99 -129 -61 -47 -42 -27 -27 vhcurveto
          endchar
        </CharString>
        <CharString name="paragraph">
          -34 -143 -21 884 -20 hstem
          253 107 84 107 vstem
          253 -164 rmoveto
          107 884 -107 hlineto
          -191 -47 -92 -140 -135 59 -63 179 hvcurveto
          191 -454 rmoveto
          107 884 -107 hlineto
          endchar
        </CharString>
        <CharString name="parenleft">
          -283 -194 -21 1005 -20 hstem
          55 128 vstem
          315 -159 rmoveto
          -102 146 -30 190 109 vvcurveto
          109 30 189 102 146 vhcurveto
          -63 60 rlineto
          -89 -92 -108 -190 -220 vvcurveto
          -220 109 -192 88 -91 vhcurveto
          endchar
        </CharString>
        <CharString name="parenright">
          -283 -194 -21 1005 -20 hstem
          154 128 vstem
          85 -215 rmoveto
          88 91 109 192 220 vvcurveto
          220 -108 190 -89 92 vhcurveto
          -63 -60 rlineto
          102 -146 30 -189 -109 vvcurveto
          -109 -30 -190 -102 -146 vhcurveto
          endchar
        </CharString>
        <CharString name="percent">
          93 -16 -21 27 75 119 78 50 75 119 78 27 -20 hstem
          33 91 105 91 73 91 105 91 vstem
          217 -37 rmoveto
          361 597 -78 51 -363 -598 rlineto
          543 112 -36 callsubr
          -269 315 -36 callsubr
          endchar
        </CharString>
        <CharString name="period">
          -369 -10 -21 callgsubr
          63 rmoveto
          -100 callgsubr
        </CharString>
        <CharString name="periodcentered">
          -369 215 -21 callgsubr
          288 rmoveto
          -100 callgsubr
        </CharString>
        <CharString name="peseta">
          610 -1 73 -73 147 -135 -21 268 97 26 84 118 97 hstemhm
          125 125 166 134 39 118 -118 231 17 116 124 118 hintmask 1001111110110000
          1015 465 rmoveto
          -94 -84 -37 -90 -77 38 -37 110 -38 hvcurveto
          52 -18 40 -14 -31 vvcurveto
          -36 -39 -15 -37 -21 -33 5 8 -19 vhcurveto
          hintmask 0101111110110000
          -9 61 rlineto
          -76 hlineto
          -4 -64 rlineto
          -9 -28 -25 -2 -15 hhcurveto
          -60 -4 49 67 hvcurveto
          194 vlineto
          hintmask 1001111101110000
          113 88 hlineto
          hintmask 1001111110110000
          -35 -3 -40 -5 -38 -3 rrcurveto
          96 vlineto
          -118 -25 rlineto
          -75 vlineto
          -45 -7 rlineto
          4 18 2 19 20 vvcurveto
          140 -93 36 -141 vhcurveto
          -264 -84 hlineto
          45 -8 rlineto
          24 -5 4 -7 -24 vvcurveto
          -429 vlineto
          -24 -4 -8 -24 -4 vhcurveto
          -45 -9 rlineto
          -79 288 80 vlineto
          -62 8 rlineto
          -24 3 -4 9 24 vvcurveto
          135 54 vlineto
          85 86 43 80 44 hvcurveto
          70 -208 hlineto
          hintmask 0011111110110000
          -118 10 -65 119 42 54 13 19 24 vhcurveto
          -20 50 46 -12 73 hhcurveto
          97 91 53 93 78 -55 32 -95 33 hvcurveto
          -54 18 -38 15 34 vvcurveto
          31 24 9 32 19 32 -2 -12 26 vhcurveto
          12 -56 rlineto
          74 hlineto
          6 119 rlineto
          14 -53 -50 16 -60 hhcurveto
          -765 118 rmoveto
          57 hlineto
          57 52 -16 -77 -63 -8 -33 -19 -19 hvcurveto
          -20 -23 -36 0 -29 hhcurveto
          -51 hlineto
          endchar
        </CharString>
        <CharString name="plus">
          -100 31 -21 180 104 176 -20 hstem
          203 108 vstem
          311 10 rmoveto
          180 170 104 -170 176 -108 -176 -164 -104 164 -180 vlineto
          endchar
        </CharString>
        <CharString name="plusminus">
          -92 0 104 201 104 148 -20 hstem
          207 108 vstem
          43 hmoveto
          442 104 -442 hlineto
          272 50 rmoveto
          151 170 104 -170 148 -108 -148 -164 -104 164 -151 vlineto
          endchar
        </CharString>
        <CharString name="q">
          -56 20 callsubr
          hstem
          -23 callsubr
          205 120 vstem
          367 133 rmoveto
          -18 -7 -35 -36 -51 hhcurveto
          -68 -44 50 112 58 15 66 26 19 hvcurveto
          14 18 29 8 26 hhcurveto
          30 38 -9 -8 23 hvcurveto
          -520 vmoveto
          -18 -4 -8 -18 -2 vhcurveto
          -62 -7 rlineto
          -74 277 -9 callgsubr
          -18 2 -4 8 18 vvcurveto
          616 vlineto
          -96 -17 rlineto
          11 -29 -42 16 -36 hhcurveto
          -160 -90 -112 -160 -144 86 -89 116 65 40 22 17 26 hvcurveto
          endchar
        </CharString>
        <CharString name="question">
          -155 -10 141 435 169 -84 84 hstemhm
          115 156 -140 111 94 122 hintmask 11001100
          336 577 rmoveto
          -154 -205 -2 -112 vvcurveto
          -53 8 -32 2 -27 vhcurveto
          96 7 5 65 rlineto
          9 114 207 -19 213 vvcurveto
          85 -54 73 -155 -74 -69 -17 -15 -47 vhcurveto
          11 -137 rlineto
          84 hlineto
          10 64 rlineto
          hintmask 10110100
          9 20 32 12 39 hhcurveto
          69 12 -38 -36 hvcurveto
          -65 -521 rmoveto
          -54 callgsubr
          endchar
        </CharString>
        <CharString name="questiondown">
          -178 -250 84 -84 169 435 141 hstemhm
          7 122 65 156 -127 111 hintmask 01110100
          129 -92 rmoveto
          154 205 2 112 vvcurveto
          53 -8 32 -2 27 vhcurveto
          -96 -7 -5 -65 rlineto
          -9 -114 -207 19 -213 vvcurveto
          -85 54 -73 155 74 69 17 15 47 vhcurveto
          -11 137 rlineto
          -84 hlineto
          -10 -64 rlineto
          hintmask 10111000
          -9 -20 -32 -12 -39 hhcurveto
          -69 -12 38 36 hvcurveto
          65 521 rmoveto
          -47 11 -28 59 72 14 28 49 49 -28 15 -49 -49 -30 -17 -49 vhcurveto
          endchar
        </CharString>
        <CharString name="quotedbl">
          -239 543 -21 273 -20 hstem
          153 746 rmoveto
          31 2 -14 18 -44 hhcurveto
          -48 -14 37 callsubr
          210 224 rmoveto
          31 2 -13 18 -40 hhcurveto
          -52 -15 37 callsubr
          endchar
        </CharString>
        <CharString name="quotedblbase">
          -158 -124 -21 278 -20 hstem
          42 161 57 161 vstem
          203 36 rmoveto
          -49 callgsubr
          218 hmoveto
          -49 callgsubr
          endchar
        </CharString>
        <CharString name="quotedblleft">
          -131 15 callgsubr
          44 171 60 171 vstem
          275 596 rmoveto
          -50 callgsubr
          -231 hmoveto
          -50 callgsubr
          endchar
        </CharString>
        <CharString name="quotedblright">
          -131 36 callsubr
          60 171 vstem
          214 698 rmoveto
          -50 callsubr
          231 hmoveto
          -50 callsubr
          endchar
        </CharString>
        <CharString name="quoteleft">
          -363 36 callsubr
          vstem
          43 596 rmoveto
          -50 callgsubr
          endchar
        </CharString>
        <CharString name="quoteright">
          -363 36 callsubr
          vstem
          214 698 rmoveto
          -50 callsubr
          endchar
        </CharString>
        <CharString name="quotesinglbase">
          -377 -124 -21 278 -20 hstem
          42 161 vstem
          203 36 rmoveto
          -49 callgsubr
          endchar
        </CharString>
        <CharString name="quotesingle">
          -440 548 -21 268 -20 hstem
          145 746 rmoveto
          31 2 -11 18 -44 hhcurveto
          -48 -11 -14 -35 2 hvcurveto
          18 -219 rlineto
          74 hlineto
          endchar
        </CharString>
        <CharString name="r">
          10 callgsubr
          10 -20 hstemhm
          103 120 hintmask 10101000
          -72 callgsubr
          hintmask 11001000
          -4 callgsubr
          hintmask 10011000
          -25 callsubr
          endchar
        </CharString>
        <CharString name="racute">
          10 callgsubr
          0 79 -69 -20 292 -20 hstemhm
          103 120 hintmask 10100110
          -72 callgsubr
          hintmask 11000110
          -4 callgsubr
          hintmask 10001110
          -25 callsubr
          hintmask 11000110
          86 358 -52 callsubr
          hintmask 10010110
          -98 callsubr
        </CharString>
        <CharString name="rcaron">
          10 callgsubr
          0 75 -65 -20 279 -20 hstemhm
          103 120 hintmask 10100110
          -72 callgsubr
          hintmask 11000110
          -4 callgsubr
          hintmask 10001110
          -25 callsubr
          hintmask 11000110
          hintmask 10010110
          88 151 -77 callgsubr
        </CharString>
        <CharString name="rcommaaccent">
          -174 3 callgsubr
          333 152 -86 86 10 -20 hstemhm
          88 152 -152 221 -206 120 hintmask 1110100010000000
          199 485 rmoveto
          -169 -74 hlineto
          -66 callgsubr
          -267 -86 callsubr
          -60 callgsubr
          vlineto
          hintmask 1111000100000000
          279 74 hlineto
          -64 7 rlineto
          hintmask 1110100010000000
          -18 2 -4 8 18 vvcurveto
          189 vlineto
          36 43 65 47 7 13 0 -4 6 vhcurveto
          hintmask 1111001000000000
          -4 callgsubr
          hintmask 1110011000000000
          -25 callsubr
          hintmask 1111001000000000
          31 -514 -104 callsubr
        </CharString>
        <CharString name="registered">
          -105 359 42 50 132 -132 230 47 42 hstemhm
          52 48 87 45 52 48 84 47 hintmask 10111111
          52 564 rmoveto
          -115 90 -90 115 116 90 90 115 116 -90 90 -116 -115 -90 -90 -116 vhcurveto
          48 hmoveto
          91 70 73 87 88 71 -73 -91 -90 -71 -73 -88 -87 -70 73 90 vhcurveto
          132 -15 rmoveto
          4 hlineto
          7 4 -5 -5 3 hvcurveto
          37 -64 rlineto
          -15 10 15 -12 20 hhcurveto
          16 11 5 2 3 hvcurveto
          3 28 rlineto
          -2 -9 -1 -4 hhcurveto
          -8 -8 4 14 -8 hvcurveto
          -28 46 -4 5 -8 4 -4 2 rlinecurve
          16 2 34 14 51 vvcurveto
          43 -30 14 -46 vhcurveto
          -94 -27 hlineto
          16 -3 rlineto
          7 -2 2 -1 -9 vvcurveto
          -146 vlineto
          -8 -2 -3 -7 -1 vhcurveto
          -16 -2 rlineto
          -28 96 28 vlineto
          -17 2 rlineto
          -9 2 0 1 9 vvcurveto
          155 vmoveto
          18 hlineto
          20 14 -6 -22 hvcurveto
          hintmask 11011111
          -28 -9 -9 -21 vhcurveto
          -22 hlineto
          endchar
        </CharString>
        <CharString name="ring">
          -309 557 62 78 63 hstem
          45 70 81 70 vstem
          266 660 -99 callsubr
          endchar
        </CharString>
        <CharString name="s">
          -164 -10 81 -81 161 264 80 hstemhm
          40 119 141 121 hintmask 10111000
          -78 callsubr
          hintmask 01111000
          -75 callsubr
          hintmask 10111000
          -48 callgsubr
          endchar
        </CharString>
        <CharString name="sacute">
          -164 -10 81 344 80 0 69 203 -69 callsubr
          52 272 -52 callsubr
          hintmask 10111100
          -98 callsubr
        </CharString>
        <CharString name="scaron">
          -164 -10 81 344 80 0 65 194 -69 callsubr
          hintmask 10111100
          54 65 -77 callgsubr
        </CharString>
        <CharString name="scedilla">
          -164 -235 56 170 80 270 154 -80 80 hstemhm
          40 119 67 88 -14 121 hintmask 11011010
          -78 callsubr
          -9 66 rlineto
          -81 hlineto
          -9 -125 38 -16 36 -11 46 -5 rlinecurve
          -19 -91 57 -13 rlineto
          hintmask 11101100
          -94 callgsubr
          48 vlineto
          hintmask 11011010
          98 4 90 55 95 vvcurveto
          80 -59 33 -101 34 vhcurveto
          -60 20 -42 18 38 vvcurveto
          37 27 10 37 20 34 -2 -12 28 vhcurveto
          hintmask 11011100
          -48 callgsubr
          endchar
        </CharString>
        <CharString name="scommaaccent">
          -164 -48 callsubr
          22 81 -81 161 264 80 hstemhm
          40 119 -23 152 12 121 hintmask 11101101
          -78 callsubr
          hintmask 11011101
          -75 callsubr
          hintmask 11101011
          -48 callgsubr
          58 -600 -104 callsubr
        </CharString>
        <CharString name="section">
          -102 -162 91 -91 193 534 165 -87 87 hstemhm
          51 126 164 126 -104 126 hintmask 01101100
          131 31 rmoveto
          -87 hlineto
          -15 -147 rlineto
          -23 47 71 -23 96 hhcurveto
          123 101 65 103 69 -24 41 -37 28 hvcurveto
          hintmask 10011010
          62 48 21 34 61 vvcurveto
          110 -90 34 -65 25 vhcurveto
          -85 32 rlineto
          -54 20 -18 27 44 vvcurveto
          45 26 19 48 vhcurveto
          hintmask 10101100
          31 29 -3 -8 30 hvcurveto
          12 -67 rlineto
          85 hlineto
          13 142 rlineto
          14 -62 -61 9 -64 hhcurveto
          -143 -70 -67 -94 -69 27 -48 43 -33 hvcurveto
          -59 -50 -18 -20 -64 vvcurveto
          -85 44 -43 81 -35 vhcurveto
          102 -43 rlineto
          56 -23 14 -23 -33 vvcurveto
          -46 -42 -25 -51 -52 -27 13 11 -29 vhcurveto
          hintmask 01101010
          30 349 rmoveto
          28 9 22 24 25 vhcurveto
          86 -32 rlineto
          53 -19 21 -19 -37 vvcurveto
          -32 -9 -22 -31 -29 vhcurveto
          -16 7 -72 29 rlineto
          -50 20 -15 24 35 vvcurveto
          endchar
        </CharString>
        <CharString name="semicolon">
          -373 -126 -21 137 145 205 155 hstem
          42 164 vstem
          206 48 rmoveto
          57 -29 30 -59 -6 callsubr
          72 40 51 83 72 vvcurveto
          1 365 rmoveto
          -100 callgsubr
        </CharString>
        <CharString name="seven">
          -169 -161 -21 500 186 -102 102 hstemhm
          hintmask 11000000
          147 -182 rmoveto
          0 207 417 17 35 vhcurveto
          50 103 rlineto
          18 37 10 29 38 vvcurveto
          27 -436 vlineto
          9 -186 rlineto
          83 hlineto
          6 57 rlineto
          hintmask 10100000
          25 2 11 2 25 hhcurveto
          160 hlineto
          -22 -83 -186 -331 -61 -105 rrcurveto
          endchar
        </CharString>
        <CharString name="sevensuperior">
          -272 273 -21 336 137 -78 78 hstemhm
          hintmask 11000000
          135 252 rmoveto
          190 372 rlineto
          17 34 4 20 26 vvcurveto
          21 -322 vlineto
          7 -137 rlineto
          67 hlineto
          4 41 rlineto
          hintmask 10100000
          17 2 7 1 17 hhcurveto
          106 hlineto
          -14 -54 -135 -233 -43 -69 rrcurveto
          endchar
        </CharString>
        <CharString name="six">
          -72 -10 93 252 99 211 85 hstem
          39 135 214 128 vstem
          516 211 rmoveto
          134 -75 89 -138 -49 -39 -7 -37 -37 vhcurveto
          22 124 112 124 155 7 rrcurveto
          85 vlineto
          -235 -193 -185 -278 -154 64 -123 166 151 96 85 136 hvcurveto
          -128 2 rmoveto
          -66 -30 -64 -69 -74 -40 49 84 -1 vhcurveto
          40 9 25 10 16 vhcurveto
          18 12 34 20 45 hhcurveto
          85 19 -60 -62 hvcurveto
          endchar
        </CharString>
        <CharString name="sixsuperior">
          -221 266 73 161 72 91 67 hstem
          32 98 154 97 vstem
          381 428 rmoveto
          87 -56 57 -97 -33 -38 -14 -37 -23 vhcurveto
          89 21 67 53 109 hhcurveto
          67 vlineto
          -77 -86 -13 -67 -61 hvcurveto
          -48 -52 -27 -65 -90 vvcurveto
          -85 40 -92 128 114 67 61 101 vhcurveto
          -97 -7 rmoveto
          -47 -22 -35 -50 -53 -29 31 53 29 9 17 9 9 vhcurveto
          10 9 23 12 29 hhcurveto
          59 16 -35 -44 hvcurveto
          endchar
        </CharString>
        <CharString name="slash">
          -185 -123 -21 864 -20 hstem
          306 720 rmoveto
          -304 -864 rlineto
          116 hlineto
          304 864 rlineto
          endchar
        </CharString>
        <CharString name="space">
          -364 endchar
        </CharString>
        <CharString name="sterling">
          25 callgsubr
          160 85 231 109 hstemhm
          129 129 -112 124 186 92 hintmask 0011011011000000
          59 272 rmoveto
          81 hlineto
          3 -40 3 -40 -24 -1 callgsubr
          hintmask 0100011011000000
          7 callgsubr
          hintmask 1000011011000000
          -19 -16 -13 -22 vhcurveto
          hintmask 0010111011000000
          18 callsubr
          22 -1 23 22 vvcurveto
          124 hlineto
          25 85 rlineto
          -153 hlineto
          hintmask 1000011101000000
          -4 59 -3 55 48 -15 callgsubr
          -22 2 -36 3 -38 hvcurveto
          -75 hlineto
          endchar
        </CharString>
        <CharString name="t">
          -264 -10 86 513 -20 -13 callsubr
          hintmask 11100000
          23 405 rmoveto
          59 -220 hlineto
          -59 callsubr
          205 vlineto
          hintmask 11010000
          121 93 hlineto
          hintmask 11100000
          -56 callsubr
          endchar
        </CharString>
        <CharString name="tbar">
          -264 -10 86 143 89 0 97 184 -20 -13 callsubr
          hintmask 10111000
          23 405 rmoveto
          59 -97 -58 hlineto
          hintmask 11011000
          -89 58 -34 vlineto
          -59 callsubr
          19 114 89 -114 vlineto
          hintmask 10111000
          97 vlineto
          hintmask 10110100
          121 93 hlineto
          hintmask 10111000
          -56 callsubr
          endchar
        </CharString>
        <CharString name="tcaron">
          -201 -10 86 560 127 -13 callsubr
          -68 152 hintmask 11101000
          407 -70 callgsubr
          -384 -285 rmoveto
          59 -220 hlineto
          -59 callsubr
          205 vlineto
          hintmask 11010000
          121 93 hlineto
          hintmask 11101000
          -56 callsubr
          endchar
        </CharString>
        <CharString name="tcedilla">
          -264 -235 56 190 -21 599 -20 -13 callsubr
          -111 88 hintmask 11110100
          23 405 rmoveto
          59 -220 hlineto
          -96 6 -63 58 -24 vhcurveto
          -21 -99 57 -13 rlineto
          -94 callgsubr
          47 vlineto
          40 52 9 12 22 hvcurveto
          11 75 rlineto
          -7 -30 -28 -3 -16 hhcurveto
          -63 -5 52 72 hvcurveto
          205 vlineto
          hintmask 11101000
          121 93 hlineto
          hintmask 11110100
          -56 callsubr
          endchar
        </CharString>
        <CharString name="tcommaaccent">
          -264 -48 callsubr
          22 86 513 -20 -13 callsubr
          -201 152 hintmask 11111000
          23 405 rmoveto
          59 -220 hlineto
          -59 callsubr
          205 vlineto
          hintmask 11110100
          121 93 hlineto
          hintmask 11111000
          -56 callsubr
          hintmask 11110010
          251 -580 -104 callsubr
        </CharString>
        <CharString name="thorn">
          -63 20 callsubr
          285 -20 hstemhm
          -2 -85 callgsubr
          204 128 hintmask 11111010
          191 -45 callsubr
          hintmask 11110110
          -100 callsubr
          -803 -86 callsubr
          hintmask 11111010
          -60 callgsubr
          277 74 vlineto
          -62 7 rlineto
          -18 2 -4 8 18 vvcurveto
          138 vlineto
          -9 20 34 -8 26 hhcurveto
          144 108 107 157 142 -74 99 -129 -61 -41 -37 -27 -27 hvcurveto
          -83 vmoveto
          -2 callsubr
          -36 -43 21 11 -14 hvcurveto
          endchar
        </CharString>
        <CharString name="three">
          -172 -174 94 444 156 -79 79 hstemhm
          273 127 -104 127 hintmask 11001000
          107 140 rmoveto
          90 -9 rlineto
          61 -6 38 -34 -61 vvcurveto
          -44 -34 -66 -78 -38 -95 19 9 -23 vhcurveto
          -23 -77 rlineto
          -17 36 57 -28 101 hhcurveto
          132 92 93 118 102 -59 43 -96 24 hvcurveto
          hintmask 11010000
          75 32 57 52 82 vvcurveto
          76 -51 72 -130 -65 -78 -13 -10 -52 vhcurveto
          8 -133 rlineto
          80 hlineto
          12 67 rlineto
          hintmask 10110000
          6 25 17 4 39 hhcurveto
          44 24 -31 -37 -104 -127 -37 -44 -8 hvcurveto
          endchar
        </CharString>
        <CharString name="threequarters">
          299 18 -21 24 -21 97 75 94 70 271 123 -70 70 hstemhm
          254 89 387 93 hintmask 01111011
          121 -37 callgsubr
          -8 callgsubr
          hintmask 01110111
          17 callsubr
          531 200 -30 callgsubr
          143 -558 -40 callgsubr
          hlineto
          hintmask 10111011
          -100 93 100 66 vlineto
          endchar
        </CharString>
        <CharString name="threesuperior">
          -250 266 70 271 123 -70 70 hstemhm
          236 89 -89 104 hintmask 11001000
          103 -37 callgsubr
          hintmask 11010000
          -8 callgsubr
          hintmask 10110000
          17 callsubr
          endchar
        </CharString>
        <CharString name="tilde">
          -216 570 104 -67 67 hstemhm
          hintmask 01000000
          130 607 rmoveto
          hintmask 10000000
          -93 callgsubr
          hintmask 01000000
          -97 callsubr
        </CharString>
        <CharString name="two">
          -172 0 100 248 172 -89 89 hstemhm
          286 128 hintmask 11010000
          411 100 rmoveto
          -244 hlineto
          2 28 27 21 50 23 rrcurveto
          80 37 88 56 101 vvcurveto
          90 -59 64 -130 -67 -76 -16 -15 -51 vhcurveto
          12 -141 rlineto
          80 hlineto
          15 71 rlineto
          hintmask 10110000
          5 20 24 7 36 hhcurveto
          41 27 -29 -43 -85 -126 -33 -80 -65 hvcurveto
          -34 -28 -29 -38 -89 vvcurveto
          -21 394 vlineto
          endchar
        </CharString>
        <CharString name="twosuperior">
          -255 279 80 225 146 -72 72 hstemhm
          243 99 hintmask 11010000
          342 359 -31 callsubr
          hintmask 10110000
          -19 callgsubr
        </CharString>
        <CharString name="u">
          -44 callgsubr
          -69 callgsubr
          hintmask 10110010
          -74 callsubr
          hintmask 10101100
          -90 callgsubr
          hintmask 01110100
          8 -67 rlineto
          169 -2 callgsubr
          -18 2 -4 8 18 vvcurveto
          376 -53 callsubr
          hintmask 10110010
          -100 callsubr
          endchar
        </CharString>
        <CharString name="uacute">
          -44 callgsubr
          292 -20 -69 callgsubr
          hintmask 10111001
          389 -101 callgsubr
          -26 381 -52 callsubr
          -98 callsubr
        </CharString>
        <CharString name="ubreve">
          -44 callgsubr
          113 86 64 -20 -69 callgsubr
          hintmask 1011110010000000
          -74 callsubr
          hintmask 1011101100000000
          -90 callgsubr
          hintmask 0111110100000000
          8 -67 rlineto
          169 -2 callgsubr
          -18 2 -4 8 18 vvcurveto
          376 -53 callsubr
          hintmask 1011110010000000
          -100 callsubr
          6 352 -102 callsubr
        </CharString>
        <CharString name="ucircumflex">
          -44 callgsubr
          283 -20 -69 callgsubr
          hintmask 10111001
          389 -101 callgsubr
          -150 372 -88 callsubr
        </CharString>
        <CharString name="udieresis">
          -44 callgsubr
          92 131 hstemhm
          13 -85 callgsubr
          -98 -11 callsubr
          -75 120 hintmask 1011100010000000
          -74 callsubr
          hintmask 1011010100000000
          -90 callgsubr
          hintmask 0111001010000000
          8 -67 rlineto
          169 -2 callgsubr
          -18 2 -4 8 18 vvcurveto
          376 -193 -74 vlineto
          -66 callgsubr
          -140 243 rmoveto
          43 -8 26 -54 -68 -11 -26 -46 -46 24 -13 46 46 25 16 46 vhcurveto
          hintmask 1011100100000000
          215 hmoveto
          43 -8 26 -54 -68 -11 -26 -46 -46 24 -13 46 46 25 16 46 vhcurveto
          endchar
        </CharString>
        <CharString name="ugrave">
          -14 -10 -19 callsubr
          34 callgsubr
          12 -85 callgsubr
          110 -85 callgsubr
          hintmask 10111001
          388 -101 callgsubr
          -287 304 -20 callgsubr
          -73 callgsubr
        </CharString>
        <CharString name="uhorn">
          62 -10 -19 callsubr
          -20 120 -20 -69 callgsubr
          73 112 hintmask 1011100110000000
          -74 callsubr
          hintmask 1011011010000000
          -90 callgsubr
          hintmask 0111101010000000
          8 -67 rlineto
          169 -2 callgsubr
          -18 2 -4 8 18 vvcurveto
          262 vlineto
          79 13 106 43 103 vvcurveto
          27 -4 17 -3 11 vhcurveto
          -113 -12 rlineto
          4 -21 4 -15 -15 vvcurveto
          -57 -34 -21 -39 -10 vhcurveto
          51 -53 callsubr
          hintmask 1011100110000000
          -100 callsubr
          endchar
        </CharString>
        <CharString name="uhungarumlaut">
          -44 callgsubr
          306 -20 -69 callgsubr
          hintmask 10111001
          389 -101 callgsubr
          -136 395 -88 callgsubr
        </CharString>
        <CharString name="umacron">
          -44 callgsubr
          142 97 -69 callgsubr
          hintmask 10111001
          389 -101 callgsubr
          -241 231 -67 callsubr
        </CharString>
        <CharString name="underscore">
          -114 -174 82 hstem
          -174 vmoveto
          506 82 -506 hlineto
          endchar
        </CharString>
        <CharString name="uni01F0">
          16 callgsubr
          75 194 -20 hstemhm
          25 -85 callgsubr
          hintmask 11110000
          218 6 callsubr
          -343 vlineto
          -136 -14 -21 -113 -72 vhcurveto
          hintmask 11110000
          -33 callsubr
          -15 553 -77 callgsubr
        </CharString>
        <CharString name="uni1E00">
          85 -240 62 78 63 58 -32 callsubr
          -20 hstem
          234 70 81 70 vstem
          -107 callgsubr
          102 -645 -99 callsubr
          endchar
        </CharString>
        <CharString name="uni1E01">
          -76 -240 62 78 63 27 90 -59 -21 330 165 -83 83 2 callsubr
          hintmask 1110101001000000
          -95 callgsubr
          hintmask 1110011001000000
          -103 callsubr
          hintmask 1101101001000000
          -91 callsubr
          hintmask 1110101001000000
          -89 callsubr
          hintmask 1110100110000000
          152 -331 -99 callsubr
          endchar
        </CharString>
        <CharString name="uni1EF4">
          80 -207 155 73 -22 callgsubr
          -20 hstemhm
          270 165 -150 127 hintmask 11101000
          -105 callgsubr
          hintmask 11110000
          23 -372 rmoveto
          -100 callgsubr
        </CharString>
        <CharString name="uni1EF5">
          -56 -250 93 -50 155 537 -20 hstemhm
          356 165 hintmask 10110000
          -106 callgsubr
          222 -14 rmoveto
          hintmask 01110000
          -100 callgsubr
        </CharString>
        <CharString name="uni1EF6">
          29 callsubr
          212 60 hstem
          285 127 2 80 vstem
          -105 callgsubr
          -20 500 rmoveto
          58 vlineto
          -60 callsubr
        </CharString>
        <CharString name="uni1EF7">
          15 callsubr
          290 60 hstemhm
          328 97 -97 234 hintmask 11101000
          -106 callgsubr
          24 701 rmoveto
          58 vlineto
          hintmask 11110000
          -60 callsubr
        </CharString>
        <CharString name="uogonek">
          -13 -230 75 145 -19 callsubr
          -20 hstemhm
          13 -85 callgsubr
          110 193 -136 26 callsubr
          hintmask 1011100100000000
          373 -126 rmoveto
          -94 callsubr
          hintmask 1011100010000000
          -15 callsubr
          -9 callgsubr
          hintmask 1101101000000000
          -18 2 -4 8 18 vvcurveto
          376 -53 callsubr
          hintmask 1101100001000000
          -100 callsubr
          -233 vlineto
          -11 -4 -50 -48 -56 hhcurveto
          -49 -24 30 54 hvcurveto
          317 -53 callsubr
          hintmask 1101011000000000
          -90 callgsubr
          hintmask 1011100100000000
          8 -67 rlineto
          65 hlineto
          -12 callgsubr
          endchar
        </CharString>
        <CharString name="uring">
          -44 callgsubr
          82 62 78 63 hstemhm
          13 -85 callgsubr
          -30 70 70 81 -8 120 hintmask 1011110001000000
          -74 callsubr
          hintmask 1011101010000000
          -90 callgsubr
          hintmask 0111110001000000
          8 -67 rlineto
          169 -2 callgsubr
          -18 2 -4 8 18 vvcurveto
          376 vlineto
          hintmask 1011110010000000
          -193 -74 hlineto
          51 -7 rlineto
          hintmask 1011110001000000
          -100 callsubr
          hintmask 1011100110000000
          8 274 -99 callsubr
          endchar
        </CharString>
        <CharString name="utilde">
          -44 callgsubr
          95 104 -67 67 -69 callgsubr
          hintmask 1011010010000000
          -74 callsubr
          hintmask 1011001100000000
          -90 callgsubr
          hintmask 0111010100000000
          8 -67 rlineto
          169 -2 callgsubr
          -18 2 -4 8 18 vvcurveto
          376 -53 callsubr
          hintmask 1010110010000000
          -100 callsubr
          -174 221 rmoveto
          hintmask 1011010100000000
          -93 callgsubr
          hintmask 1010110100000000
          -97 callsubr
        </CharString>
        <CharString name="v">
          -66 -18 callsubr
          hstem
          292 157 rmoveto
          -9 -45 -9 45 -81 211 rlineto
          -3 8 -3 8 7 vvcurveto
          8 5 6 9 1 vhcurveto
          43 23 callsubr
          -243 -73 vlineto
          41 -6 20 -3 5 -12 9 -23 rlinecurve
          147 -368 rlineto
          114 hlineto
          139 368 9 23 5 12 20 3 rlinecurve
          41 23 callsubr
          -235 -73 vlineto
          43 -6 rlineto
          9 -1 5 -6 -8 vvcurveto
          -7 -3 -8 -3 -8 vhcurveto
          endchar
        </CharString>
        <CharString name="w">
          154 -18 callsubr
          hstem
          -78 callgsubr
          -92 callgsubr
          endchar
        </CharString>
        <CharString name="wacute">
          154 21 -21 429 135 -79 -20 302 -20 hstemhm
          hintmask 11010000
          -78 callgsubr
          hintmask 10110000
          -92 callgsubr
          -151 399 -52 callsubr
          hintmask 11010000
          -98 callsubr
        </CharString>
        <CharString name="wcircumflex">
          154 -18 callsubr
          278 -20 hstem
          -78 callgsubr
          -92 callgsubr
          -258 375 -88 callsubr
        </CharString>
        <CharString name="wgrave">
          154 21 -21 429 135 -79 -20 302 -20 hstemhm
          hintmask 11010000
          -78 callgsubr
          hintmask 10110000
          -92 callgsubr
          -362 322 -20 callgsubr
          hintmask 11010000
          -73 callgsubr
        </CharString>
        <CharString name="x">
          -54 -18 callsubr
          hstemhm
          16 209 -209 239 58 237 -222 222 hintmask 11011000
          237 376 rmoveto
          -10 11 -7 7 5 vvcurveto
          4 3 3 9 2 vhcurveto
          23 5 rlineto
          72 -231 -73 vlineto
          28 -5 21 -4 2 -2 22 -25 rlinecurve
          110 -122 -112 -137 -20 -25 -6 -7 -23 -5 rlinecurve
          -30 -6 rlineto
          -74 vlineto
          hintmask 11101000
          209 73 hlineto
          -23 5 rlineto
          -6 2 -3 3 4 vvcurveto
          7 7 10 11 14 vhcurveto
          56 69 62 -69 rlineto
          10 -12 8 -10 -8 vvcurveto
          -5 -3 -3 -8 -2 vhcurveto
          -23 -5 rlineto
          -73 237 74 vlineto
          -30 5 -18 3 -6 7 -25 28 rlinecurve
          -116 128 107 131 20 24 6 2 26 5 rlinecurve
          28 5 rlineto
          73 vlineto
          hintmask 11100100
          -214 -72 hlineto
          23 -5 rlineto
          9 -2 4 -3 -4 vvcurveto
          -5 -6 -7 -10 -11 vhcurveto
          -54 -64 rlineto
          endchar
        </CharString>
        <CharString name="y">
          15 callsubr
          hstem
          -106 callgsubr
          endchar
        </CharString>
        <CharString name="yacute">
          -12 callsubr
          69 203 -20 hstem
          -106 callgsubr
          63 877 -52 callsubr
          -98 callsubr
        </CharString>
        <CharString name="ycircumflex">
          15 callsubr
          283 -20 hstem
          -106 callgsubr
          -65 868 -88 callsubr
        </CharString>
        <CharString name="ydieresis">
          15 callsubr
          92 131 hstem
          91 -11 callsubr
          vstem
          -106 callgsubr
          -67 739 -103 callgsubr
        </CharString>
        <CharString name="yen">
          80 0 245 -90 90 435 -20 hstemhm
          285 127 hintmask 10110000
          604 554 rmoveto
          16 29 5 8 29 5 44 5 rcurveline
          79 -284 -79 vlineto
          35 -6 rlineto
          24 -4 11 -3 -12 vvcurveto
          -5 -2 -8 -5 -9 vhcurveto
          -121 -174 -116 174 rlineto
          -5 10 -4 7 6 vvcurveto
          12 13 4 20 3 vhcurveto
          35 6 rlineto
          78 -297 -79 vlineto
          44 -5 24 -3 10 -9 16 -30 rlinecurve
          189 -286 rlineto
          -23 -92 vlineto
          hintmask 01110000
          -15 -90 rlineto
          107 -29 hlineto
          -65 callgsubr
          hintmask 10110000
          -71 callgsubr
          hintmask 01110000
          29 92 vlineto
          15 90 rlineto
          -107 23 hlineto
          endchar
        </CharString>
        <CharString name="ygrave">
          -12 callsubr
          69 203 -20 hstem
          -106 callgsubr
          -194 800 -20 callgsubr
          -73 callgsubr
        </CharString>
        <CharString name="ytilde">
          15 callsubr
          110 104 -67 67 hstemhm
          hintmask 11010000
          -106 callgsubr
          -83 732 rmoveto
          hintmask 11100000
          -93 callgsubr
          hintmask 11010000
          -97 callsubr
        </CharString>
        <CharString name="z">
          28 callsubr
          hstemhm
          hintmask 10010000
          -35 callsubr
          hintmask 01100000
          -3 callgsubr
          hintmask 10100000
          -45 callgsubr
          7 -164 rlineto
          74 hlineto
          8 58 rlineto
          hintmask 10010000
          18 2 8 4 18 hhcurveto
          endchar
        </CharString>
        <CharString name="zacute">
          35 callsubr
          79 203 -55 callgsubr
          122 366 -52 callsubr
          hintmask 10011000
          -98 callsubr
        </CharString>
        <CharString name="zcaron">
          35 callsubr
          75 194 -55 callgsubr
          hintmask 10011000
          153 159 -77 callgsubr
        </CharString>
        <CharString name="zdotaccent">
          28 callsubr
          72 155 hstemhm
          169 165 hintmask 10011100
          -35 callsubr
          hintmask 01101100
          -3 callgsubr
          hintmask 10101100
          -45 callgsubr
          7 -164 rlineto
          74 hlineto
          8 58 rlineto
          hintmask 10011100
          18 2 8 4 18 hhcurveto
          182 229 rmoveto
          -100 callgsubr
        </CharString>
        <CharString name="zero">
          4 -10 91 348 91 hstem
          39 132 282 132 vstem
          585 264 rmoveto
          148 -95 108 -164 -189 -98 -138 -136 -148 95 -108 164 189 98 136 138 vhcurveto
          -132 -4 rmoveto
          -103 -40 -76 -90 -95 -57 66 103 103 40 76 90 94 58 -66 -103 vhcurveto
          endchar
        </CharString>
        <CharString name="zerosuperior">
          -115 266 78 308 78 hstem
          32 99 243 99 vstem
          473 507 rmoveto
          129 -75 94 -134 -155 -77 -119 -118 -132 75 -95 134 155 77 121 120 vhcurveto
          -99 -3 rmoveto
          -92 -35 -68 -77 -82 -49 60 92 89 33 67 79 80 51 -59 -89 vhcurveto
          endchar
        </CharString>
      <CharString index="0">
        82 132 rmoveto
        -13 -36 -9 -5 -25 -5 -33 -7 rcurveline
        -79 273 77 vlineto
        -49 9 rlineto
        -20 3 -8 8 13 vvcurveto
        6 2 8 3 9 vhcurveto
        28 85 rlineto
        224 hlineto
        31 -88 rlineto
        3 -10 2 -7 -6 vvcurveto
        -12 -8 -6 -19 -30 callsubr
        -77 289 79 vlineto
        -34 7 -26 5 -9 5 -13 36 rlinecurve
        -212 588 rlineto
        -119 hlineto
        130 -404 rmoveto
        -156 hlineto
        66 194 10 49 13 -51 rlineto
        return
      </CharString>
      <CharString index="1">
        486 368 rmoveto
        9 22 6 13 20 3 41 6 rcurveline
        73 -234 -73 vlineto
        44 -6 rlineto
        9 -1 4 -4 -6 vvcurveto
        -7 -3 -9 -4 -11 vhcurveto
        -88 -253 -92 253 rlineto
        -4 10 -3 9 6 vvcurveto
        7 4 4 10 2 vhcurveto
        44 23 callsubr
        -247 -73 vlineto
        41 -6 20 -3 5 -12 9 -23 rlinecurve
        149 -389 -17 -49 rlineto
        -55 -20 -34 -32 -49 hhcurveto
        -35 -26 4 7 -30 hvcurveto
        13 -88 rlineto
        -7 19 51 -9 35 hhcurveto
        78 54 41 89 34 hvcurveto
        return
      </CharString>
      <CharString index="2">
        604 24 callgsubr
        16 29 5 8 29 5 44 5 rcurveline
        79 -284 -79 vlineto
        35 -6 rlineto
        24 -4 11 -3 -12 vvcurveto
        -5 -2 -8 -5 -9 vhcurveto
        -116 -234 -121 234 rlineto
        -5 10 -4 7 6 vvcurveto
        12 13 4 20 3 vhcurveto
        35 6 rlineto
        78 -297 -79 vlineto
        44 -5 24 -3 10 -10 16 -29 rlinecurve
        189 -346 rlineto
        -122 vlineto
        -87 callsubr
        112 vlineto
        return
      </CharString>
      <CharString index="3">
        470 234 rmoveto
        160 -34 101 -162 -156 -84 -110 -148 -146 67 -101 155 91 67 25 21 54 vhcurveto
        7 callsubr
        90 11 14 25 83 hhcurveto
        69 15 -48 -51 1 hvcurveto
        return
      </CharString>
      <CharString index="4">
        rmoveto
        43 -8 26 -54 -68 -11 -26 -46 -46 24 -13 46 46 25 16 46 vhcurveto
        215 hmoveto
        43 -8 26 -54 -68 -11 -26 -46 -46 24 -13 46 46 25 16 46 vhcurveto
        endchar
      </CharString>
      <CharString index="5">
        49 720 rmoveto
        0 callsubr
        4 -12 -25 vvcurveto
        -469 vlineto
        -25 -4 -9 -25 -4 vhcurveto
        13 callsubr
        -79 281 11 callgsubr
        3 -4 10 25 vvcurveto
        365 vlineto
        307 -491 rlineto
        132 595 hlineto
        25 4 12 6 callgsubr
        47 6 rlineto
        79 -278 0 callsubr
        3 -12 -25 vvcurveto
        -366 vlineto
        -307 491 rlineto
        return
      </CharString>
      <CharString index="6">
        -93 callsubr
        hintmask 10110110
        -90 callgsubr
        hintmask 01111010
        8 -67 rlineto
        169 -2 callgsubr
        -18 2 -4 8 18 vvcurveto
        376 -53 callsubr
        hintmask 10111001
        -100 callsubr
        return
      </CharString>
      <CharString index="7">
        51 -9 31 -64 -80 -12 -31 -54 -54 28 -16 54 54 29 19 54 vhcurveto
        endchar
      </CharString>
      <CharString index="8">
        -20 14 21 -22 27 hhcurveto
        9 10 3 7 11 hvcurveto
        142 94 rlineto
        endchar
      </CharString>
      <CharString index="9">
        rmoveto
        -119 -126 59 -48 114 98 114 -98 59 48 -118 126 rlineto
        endchar
      </CharString>
      <CharString index="10">
        -25 -2 -12 -4 -24 hhcurveto
        -188 218 211 104 -211 190 187 hlineto
        24 11 -4 -25 3 hvcurveto
        return
      </CharString>
      <CharString index="11">
        15 -79 rlineto
        97 hlineto
        14 165 rlineto
        16 -73 -72 11 -74 hhcurveto
        -163 -80 -79 -111 -106 58 -65 81 -31 hvcurveto
        122 -46 rlineto
        84 -32 19 -25 -52 vvcurveto
        -63 -56 -33 -67 -58 -30 12 18 -33 vhcurveto
        return
      </CharString>
      <CharString index="12">
        449 351 rmoveto
        104 -97 40 -104 -61 -36 -12 -30 -84 vhcurveto
        9 -123 rlineto
        79 hlineto
        12 66 rlineto
        return
      </CharString>
      <CharString index="13">
        19 -5 11 -7 -19 vvcurveto
        -30 -17 -8 -17 -24 -33 8 6 -15 vhcurveto
        -17 -49 rlineto
        -7 16 36 -14 42 hhcurveto
        55 62 33 68 33 -9 20 -45 15 hvcurveto
        -27 9 rlineto
        return
      </CharString>
      <CharString index="14">
        46 39 -37 53 hhcurveto
        40 35 33 35 22 hvcurveto
        -24 60 rlineto
        -10 -14 -30 -14 -22 hhcurveto
        return
      </CharString>
      <CharString index="15">
        73 -244 -73 vlineto
        41 -6 20 -3 7 -11 7 -24 rlinecurve
        116 -368 rlineto
        112 hlineto
        72 225 9 42 9 -42 69 -225 rlineto
        116 hlineto
        117 368 7 24 7 11 20 3 rlinecurve
        41 23 callsubr
        -232 -73 vlineto
        43 -6 rlineto
        10 -2 3 -4 -7 vvcurveto
        -6 -2 -8 -3 -11 vhcurveto
        return
      </CharString>
      <CharString index="16">
        68 -78 vlineto
        -23 -129 rlineto
        -35 44 80 -24 94 hhcurveto
        152 99 86 96 69 -35 36 -78 13 hvcurveto
        -57 9 -44 4 -62 10 rrcurveto
        -15 2 -5 4 7 vvcurveto
        2 1 5 1 2 vhcurveto
        11 30 rlineto
        -1 11 1 0 13 hhcurveto
        return
      </CharString>
      <CharString index="17">
        -100 callsubr
        -238 vlineto
        -95 60 -53 110 65 58 47 30 26 vhcurveto
        return
      </CharString>
      <CharString index="18">
        155 207 rmoveto
        -100 hlineto
        -12 -171 rlineto
        -26 70 51 -20 102 hhcurveto
        180 95 88 124 131 -89 44 -95 34 hvcurveto
        -85 30 rlineto
        -65 24 -27 34 52 vvcurveto
        59 33 26 63 37 36 -6 -14 35 vhcurveto
        return
      </CharString>
      <CharString index="19">
        rmoveto
        -105 -200 13 -8 26 -16 26 6 rlinecurve
        11 2 10 6 10 14 99 138 rcurveline
        95 58 rmoveto
        -105 -200 13 -8 26 -16 26 6 rlinecurve
        11 3 11 5 10 14 98 138 rcurveline
        endchar
      </CharString>
      <CharString index="20">
        592 140 rmoveto
        -10 -28 -100 -32 -92 hhcurveto
        -130 -66 102 159 69 19 132 37 31 hvcurveto
        20 24 31 14 63 hhcurveto
        61 28 -7 -13 41 hvcurveto
        return
      </CharString>
      <CharString index="21">
        48 -6 rlineto
        23 -3 11 -7 -17 vvcurveto
        -4 -1 -5 -1 -6 vhcurveto
        -86 -356 -9 -52 -9 50 -112 400 rlineto
        -130 hlineto
        -109 -399 -10 -51 -9 52 -91 356 rlineto
        -2 8 -1 7 5 vvcurveto
        14 8 6 21 2 vhcurveto
        52 6 rlineto
        return
      </CharString>
      <CharString index="22">
        193 -120 120 return
      </CharString>
      <CharString index="23">
        434 109 rmoveto
        -20 -72 -43 -10 -44 hhcurveto
        -75 -38 66 88 60 7 57 22 32 hvcurveto
        16 11 31 8 24 hhcurveto
        30 33 -4 -9 18 hvcurveto
        return
      </CharString>
      <CharString index="24">
        vhcurveto
        -80 callgsubr
        return
      </CharString>
      <CharString index="25">
        -38 callsubr
        -42 callsubr
        -28 callsubr
        return
      </CharString>
      <CharString index="26">
        35 callgsubr
        163 -60 rmoveto
        28 59 rlineto
        -6 22 24 -3 28 hhcurveto
        191 73 136 116 105 -33 84 -80 39 hvcurveto
        17 35 -80 38 -24 -50 rlineto
        1 -10 -11 1 -11 hhcurveto
        -190 -73 -136 -117 -88 23 -73 54 -44 hvcurveto
        -28 -59 rlineto
        318 269 rmoveto
        -50 -10 -71 -25 -23 vhcurveto
        -15 -15 -26 -9 -36 hhcurveto
        -21 -18 4 7 -16 hvcurveto
        132 275 rlineto
        23 -27 12 -41 -50 vvcurveto
        -128 159 rmoveto
        5 5 0 -1 4 hvcurveto
        -115 -241 rlineto
        -7 21 -3 25 28 vvcurveto
        50 10 71 24 23 vhcurveto
        15 15 27 9 35 hhcurveto
        return
      </CharString>
      <CharString index="27">
        -82 callgsubr
        25 return
      </CharString>
      <CharString index="28">
        -20 hstemhm
        hintmask 10110000
        508 397 rmoveto
        113 -397 rlineto
        133 hlineto
        150 594 9 36 11 4 25 3 rlinecurve
        30 4 rlineto
        79 -270 -78 vlineto
        hintmask 11010000
        -86 callgsubr
        hintmask 10110000
        78 -300 -79 vlineto
        34 -4 25 -3 21 -5 9 -35 rlinecurve
        157 -594 rlineto
        133 hlineto
        110 397 8 50 rlineto
        return
      </CharString>
      <CharString index="29">
        538 178 rmoveto
        -9 -45 -9 45 -73 251 rlineto
        -109 hlineto
        -73 -251 -9 -45 -9 45 -53 190 rlineto
        -4 12 -2 8 6 vvcurveto
        7 4 3 10 2 vhcurveto
        43 6 rlineto
        return
      </CharString>
      <CharString index="30">
        rmoveto
        103 146 -59 48 -99 -118 -99 118 -59 -48 104 -146 rlineto
        endchar
      </CharString>
      <CharString index="31">
        -10 -35 -84 -19 -46 hhcurveto
        -78 -39 46 87 -5 hvcurveto
        return
      </CharString>
      <CharString index="32">
        -20 hstem
        508 397 rmoveto
        113 -397 rlineto
        133 hlineto
        150 594 9 36 11 4 25 3 rlinecurve
        30 4 rlineto
        79 -270 -78 vlineto
        -86 callgsubr
        78 -300 -79 vlineto
        34 -4 25 -3 21 -5 9 -35 rlinecurve
        157 -594 rlineto
        133 hlineto
        110 397 8 50 rlineto
        return
      </CharString>
      <CharString index="33">
        79 vlineto
        -52 9 rlineto
        -25 4 -4 9 25 vvcurveto
        return
      </CharString>
      <CharString index="34">
        -11 12 12 -3 12 hhcurveto
        26 22 22 11 11 hvcurveto
        -149 170 rlineto
        endchar
      </CharString>
      <CharString index="35">
        199 485 rmoveto
        -169 -74 hlineto
        -66 callgsubr
        -267 -86 callsubr
        -51 19 callgsubr
        189 vlineto
        36 43 65 47 7 13 0 -4 6 vhcurveto
        return
      </CharString>
      <CharString index="36">
        -79 289 -74 callgsubr
        return
      </CharString>
      <CharString index="37">
        690 rmoveto
        39 -22 34 -57 -44 -29 -16 -47 -34 21 -30 43 4 3 1 2 4 vhcurveto
        -22 -33 -30 -32 -19 vhcurveto
        33 -34 rlineto
        52 23 57 60 73 vvcurveto
        return
      </CharString>
      <CharString index="38">
        hstemhm
        13 -85 callgsubr
        110 -85 callgsubr
        return
      </CharString>
      <CharString index="39">
        234 rmoveto
        160 -34 101 -162 -64 -52 -20 -34 -38 vhcurveto
        38 -37 -61 16 -63 hhcurveto
        -61 -36 -12 -30 -84 hvcurveto
        9 -123 rlineto
        79 hlineto
        12 66 rlineto
        9 20 29 7 26 hhcurveto
        50 37 -17 -46 hvcurveto
        -58 vlineto
        -139 -18 rlineto
        -99 -13 -51 -56 -80 vvcurveto
        -79 45 -55 98 59 80 43 47 38 vhcurveto
        -56 35 60 -34 90 hhcurveto
        91 67 25 21 54 hvcurveto
        7 callsubr
        return
      </CharString>
      <CharString index="40">
        -18 2 -4 8 18 vvcurveto
        237 vlineto
        74 -43 75 -127 return
      </CharString>
      <CharString index="41">
        51 -7 rlineto
        -100 callsubr
        return
      </CharString>
      <CharString index="42">
        -25 -4 -9 -25 -4 vhcurveto
        -52 -9 rlineto
        return
      </CharString>
      <CharString index="43">
        -76 -10 90 -59 -21 330 165 -83 83 return
      </CharString>
      <CharString index="44">
        -25 -4 -10 16 callsubr
        315 vlineto
        228 97 163 208 215 -89 134 -236 hvcurveto
        return
      </CharString>
      <CharString index="45">
        125 127 return
      </CharString>
      <CharString index="46">
        7 -68 rlineto
        84 hlineto
        7 197 rlineto
        -603 hlineto
        7 -197 rlineto
        84 hlineto
        7 68 rlineto
        return
      </CharString>
      <CharString index="47">
        -51 -7 rlineto
        -74 return
      </CharString>
      <CharString index="48">
        vlineto
        5 -21 -25 8 -32 hhcurveto
        -163 -90 -129 -141 -146 77 -89 125 61 47 42 27 27 hvcurveto
        return
      </CharString>
      <CharString index="49">
        hstemhm
        -62 callgsubr
        return
      </CharString>
      <CharString index="50">
        rmoveto
        -170 203 rlineto
        -19 -22 -26 -13 -24 vvcurveto
        -7 2 -9 6 -10 vhcurveto
        74 -118 -74 -118 rlineto
        -8 -11 0 -7 -9 vvcurveto
        -24 26 -15 19 -19 vhcurveto
        return
      </CharString>
      <CharString index="51">
        551 370 rmoveto
        -192 -63 -76 -135 vhcurveto
        -101 516 101 hlineto
        135 63 -57 -191 hvcurveto
        -503 350 rmoveto
        -76 vlineto
        48 -6 rlineto
        25 -3 4 -12 -25 vvcurveto
        -469 vlineto
        -63 callgsubr
        return
      </CharString>
      <CharString index="52">
        -20 hstemhm
        hintmask 10101000
        -35 callsubr
        -3 callgsubr
        -45 callgsubr
        hintmask 11001000
        7 -164 rlineto
        74 hlineto
        8 58 rlineto
        hintmask 10101000
        18 2 8 4 18 hhcurveto
        return
      </CharString>
      <CharString index="53">
        47 -11 28 -59 -72 -14 -28 -49 -49 28 -15 49 49 30 17 49 vhcurveto
        return
      </CharString>
      <CharString index="54">
        hhcurveto
        -241 -100 -168 -210 return
      </CharString>
      <CharString index="55">
        -25 -4 -8 -37 callsubr
        return
      </CharString>
      <CharString index="56">
        -10 89 327 89 return
      </CharString>
      <CharString index="57">
        -52 22 -45 74 44 31 18 52 50 -22 24 -51 5 vhcurveto
        40 50 41 31 17 vhcurveto
        -47 49 rlineto
        -59 -31 -73 -78 -90 vvcurveto
        return
      </CharString>
      <CharString index="58">
        52 -17 45 -70 -44 -30 -18 -52 -47 19 -22 53 -5 vhcurveto
        -42 -43 -33 -29 -18 vhcurveto
        42 -41 rlineto
        56 30 63 65 86 vvcurveto
        return
      </CharString>
</ttFont>
